G04 #@! TF.GenerationSoftware,KiCad,Pcbnew,8.0.2*
G04 #@! TF.CreationDate,2024-06-05T18:53:51-04:00*
G04 #@! TF.ProjectId,CSP_macropad_arduino,4353505f-6d61-4637-926f-7061645f6172,rev?*
G04 #@! TF.SameCoordinates,Original*
G04 #@! TF.FileFunction,Paste,Bot*
G04 #@! TF.FilePolarity,Positive*
%FSLAX46Y46*%
G04 Gerber Fmt 4.6, Leading zero omitted, Abs format (unit mm)*
G04 Created by KiCad (PCBNEW 8.0.2) date 2024-06-05 18:53:51*
%MOMM*%
%LPD*%
G01*
G04 APERTURE LIST*
G04 Aperture macros list*
%AMRoundRect*
0 Rectangle with rounded corners*
0 $1 Rounding radius*
0 $2 $3 $4 $5 $6 $7 $8 $9 X,Y pos of 4 corners*
0 Add a 4 corners polygon primitive as box body*
4,1,4,$2,$3,$4,$5,$6,$7,$8,$9,$2,$3,0*
0 Add four circle primitives for the rounded corners*
1,1,$1+$1,$2,$3*
1,1,$1+$1,$4,$5*
1,1,$1+$1,$6,$7*
1,1,$1+$1,$8,$9*
0 Add four rect primitives between the rounded corners*
20,1,$1+$1,$2,$3,$4,$5,0*
20,1,$1+$1,$4,$5,$6,$7,0*
20,1,$1+$1,$6,$7,$8,$9,0*
20,1,$1+$1,$8,$9,$2,$3,0*%
G04 Aperture macros list end*
%ADD10RoundRect,0.250000X-1.025000X-1.000000X1.025000X-1.000000X1.025000X1.000000X-1.025000X1.000000X0*%
%ADD11RoundRect,0.225000X-0.225000X-0.375000X0.225000X-0.375000X0.225000X0.375000X-0.225000X0.375000X0*%
G04 APERTURE END LIST*
D10*
X110644500Y-66692500D03*
X97717500Y-69232500D03*
X97717500Y-31122500D03*
X110644500Y-28582500D03*
X135827500Y-116870000D03*
X148754500Y-114330000D03*
X97717500Y-88287500D03*
X110644500Y-85747500D03*
X116772500Y-107342500D03*
X129699500Y-104802500D03*
X116772500Y-50177500D03*
X129699500Y-47637500D03*
X135827500Y-69232500D03*
X148754500Y-66692500D03*
X116772500Y-69232500D03*
X129699500Y-66692500D03*
X78662500Y-31122500D03*
X91589500Y-28582500D03*
X135827500Y-50177500D03*
X148754500Y-47637500D03*
X135827500Y-88287500D03*
X148754500Y-85747500D03*
X78662500Y-50177500D03*
X91589500Y-47637500D03*
X78662500Y-69232500D03*
X91589500Y-66692500D03*
X78662500Y-126397500D03*
X91589500Y-123857500D03*
X107245000Y-126397500D03*
X120172000Y-123857500D03*
X97717500Y-107342500D03*
X110644500Y-104802500D03*
X135827500Y-31122500D03*
X148754500Y-28582500D03*
X78662500Y-88287500D03*
X91589500Y-85747500D03*
X116772500Y-88287500D03*
X129699500Y-85747500D03*
X97717500Y-50177500D03*
X110644500Y-47637500D03*
X116772500Y-31122500D03*
X129699500Y-28582500D03*
X78662500Y-107342500D03*
X91589500Y-104802500D03*
D11*
X116872000Y-133385000D03*
X120172000Y-133385000D03*
X107344500Y-114330000D03*
X110644500Y-114330000D03*
X126398832Y-76220000D03*
X129698832Y-76220000D03*
X107343166Y-76220000D03*
X110643166Y-76220000D03*
X107344500Y-57165000D03*
X110644500Y-57165000D03*
X126399500Y-114330000D03*
X129699500Y-114330000D03*
X88289500Y-57165000D03*
X91589500Y-57165000D03*
X145454500Y-57165000D03*
X148754500Y-57165000D03*
X145454500Y-123857500D03*
X148754500Y-123857500D03*
X145454500Y-38110000D03*
X148754500Y-38110000D03*
X107344500Y-95275000D03*
X110644500Y-95275000D03*
X107342500Y-38110000D03*
X110642500Y-38110000D03*
X88289500Y-95275000D03*
X91589500Y-95275000D03*
X145454500Y-95275000D03*
X148754500Y-95275000D03*
X145454500Y-76220000D03*
X148754500Y-76220000D03*
X88287500Y-38110000D03*
X91587500Y-38110000D03*
X88289500Y-114330000D03*
X91589500Y-114330000D03*
X88287500Y-76220000D03*
X91587500Y-76220000D03*
X88287500Y-133385000D03*
X91587500Y-133385000D03*
X126399500Y-57165000D03*
X129699500Y-57165000D03*
X126399500Y-95275000D03*
X129699500Y-95275000D03*
X126399500Y-38110000D03*
X129699500Y-38110000D03*
M02*
