M48
; DRILL file {KiCad 8.0.2} date 2024-06-05T18:53:58-0400
; FORMAT={-:-/ absolute / metric / decimal}
; #@! TF.CreationDate,2024-06-05T18:53:58-04:00
; #@! TF.GenerationSoftware,Kicad,Pcbnew,8.0.2
; #@! TF.FileFunction,NonPlated,1,2,NPTH
FMAT,2
METRIC
; #@! TA.AperFunction,NonPlated,NPTH,ComponentDrill
T1C1.500
; #@! TA.AperFunction,NonPlated,NPTH,ComponentDrill
T2C1.750
; #@! TA.AperFunction,NonPlated,NPTH,ComponentDrill
T3C3.050
; #@! TA.AperFunction,NonPlated,NPTH,ComponentDrill
T4C4.000
%
G90
G05
T2
X80.667Y-33.663
X80.667Y-52.718
X80.667Y-71.772
X80.667Y-90.828
X80.667Y-109.882
X80.667Y-128.938
X90.828Y-33.663
X90.828Y-52.718
X90.828Y-71.772
X90.828Y-90.828
X90.828Y-109.882
X90.828Y-128.938
X99.722Y-33.663
X99.722Y-52.718
X99.722Y-71.772
X99.722Y-90.828
X99.722Y-109.882
X109.25Y-128.938
X109.882Y-33.663
X109.882Y-52.718
X109.882Y-71.772
X109.882Y-90.828
X109.882Y-109.882
X118.777Y-33.663
X118.777Y-52.718
X118.777Y-71.772
X118.777Y-90.828
X118.777Y-109.882
X119.41Y-128.938
X128.938Y-33.663
X128.938Y-52.718
X128.938Y-71.772
X128.938Y-90.828
X128.938Y-109.882
X137.832Y-33.663
X137.832Y-52.718
X137.832Y-71.772
X137.832Y-90.828
X137.832Y-119.41
X147.993Y-33.663
X147.993Y-52.718
X147.993Y-71.772
X147.993Y-90.828
X147.993Y-119.41
T3
X81.938Y-31.122
X81.938Y-50.177
X81.938Y-69.233
X81.938Y-88.287
X81.938Y-107.343
X81.938Y-126.397
X88.287Y-28.582
X88.287Y-47.637
X88.287Y-66.692
X88.287Y-85.748
X88.287Y-104.802
X88.287Y-123.857
X100.992Y-31.122
X100.992Y-50.177
X100.992Y-69.233
X100.992Y-88.287
X100.992Y-107.343
X107.343Y-28.582
X107.343Y-47.637
X107.343Y-66.692
X107.343Y-85.748
X107.343Y-104.802
X110.52Y-126.397
X116.87Y-123.857
X120.047Y-31.122
X120.047Y-50.177
X120.047Y-69.233
X120.047Y-88.287
X120.047Y-107.343
X126.397Y-28.582
X126.397Y-47.637
X126.397Y-66.692
X126.397Y-85.748
X126.397Y-104.802
X139.102Y-31.122
X139.102Y-50.177
X139.102Y-69.233
X139.102Y-88.287
X139.102Y-116.87
X145.452Y-28.582
X145.452Y-47.637
X145.452Y-66.692
X145.452Y-85.748
X145.452Y-114.33
T4
X85.748Y-33.663
X85.748Y-52.718
X85.748Y-71.772
X85.748Y-90.828
X85.748Y-109.882
X85.748Y-128.938
X104.802Y-33.663
X104.802Y-52.718
X104.802Y-71.772
X104.802Y-90.828
X104.802Y-109.882
X114.33Y-128.938
X123.857Y-33.663
X123.857Y-52.718
X123.857Y-71.772
X123.857Y-90.828
X123.857Y-109.882
X142.912Y-33.663
X142.912Y-52.718
X142.912Y-71.772
X142.912Y-90.828
X142.912Y-119.41
T1
X62.92Y-64.492G85X64.22Y-64.492
G05
X62.92Y-75.692G85X64.22Y-75.692
G05
X62.92Y-105.703G85X64.22Y-105.703
G05
X62.92Y-116.902G85X64.22Y-116.902
G05
M30
