%TF.GenerationSoftware,KiCad,Pcbnew,8.0.2*%
%TF.CreationDate,2024-06-05T18:53:59-04:00*%
%TF.ProjectId,CSP_macropad_arduino,4353505f-6d61-4637-926f-7061645f6172,rev?*%
%TF.SameCoordinates,Original*%
%TF.FileFunction,Drillmap*%
%TF.FilePolarity,Positive*%
%FSLAX45Y45*%
G04 Gerber Fmt 4.5, Leading zero omitted, Abs format (unit mm)*
G04 Created by KiCad (PCBNEW 8.0.2) date 2024-06-05 18:53:59*
%MOMM*%
%LPD*%
G01*
G04 APERTURE LIST*
%ADD10C,0.050000*%
%ADD11C,0.200000*%
%ADD12C,0.100000*%
%ADD13C,0.109220*%
G04 APERTURE END LIST*
D10*
X15974575Y-13814875D02*
G75*
G02*
X15498200Y-14291250I-476375J0D01*
G01*
X15974575Y-2381875D02*
X15974575Y-13814875D01*
X5494125Y-1905500D02*
X15498200Y-1905500D01*
X5017750Y-2381875D02*
G75*
G02*
X5494125Y-1905500I476375J0D01*
G01*
X5017750Y-13814875D02*
X5017750Y-2381875D01*
X15498200Y-1905500D02*
G75*
G02*
X15974580Y-2381875I10J-476370D01*
G01*
X5494125Y-14291250D02*
G75*
G02*
X5017750Y-13814875I0J476375D01*
G01*
X15498200Y-14291250D02*
X5494125Y-14291250D01*
D11*
D12*
X5211875Y-6893800D02*
X5241875Y-6923800D01*
X5241875Y-6893800D02*
X5211875Y-6923800D01*
X5211875Y-7261404D02*
X5241875Y-7291404D01*
X5241875Y-7261404D02*
X5211875Y-7291404D01*
X5288805Y-6944600D02*
X5318805Y-6974600D01*
X5318805Y-6944600D02*
X5288805Y-6974600D01*
X5313475Y-7261404D02*
X5343475Y-7291404D01*
X5343475Y-7261404D02*
X5313475Y-7291404D01*
X5313475Y-10703800D02*
X5343475Y-10733800D01*
X5343475Y-10703800D02*
X5313475Y-10733800D01*
X5313475Y-10957800D02*
X5343475Y-10987800D01*
X5343475Y-10957800D02*
X5313475Y-10987800D01*
X5368805Y-6944600D02*
X5398805Y-6974600D01*
X5398805Y-6944600D02*
X5368805Y-6974600D01*
X5669075Y-5725400D02*
X5699075Y-5755400D01*
X5699075Y-5725400D02*
X5669075Y-5755400D01*
X5729075Y-5665400D02*
X5759075Y-5695400D01*
X5759075Y-5665400D02*
X5729075Y-5695400D01*
X5789075Y-5603599D02*
X5819075Y-5633599D01*
X5819075Y-5603599D02*
X5789075Y-5633599D01*
X5849075Y-5543599D02*
X5879075Y-5573599D01*
X5879075Y-5543599D02*
X5849075Y-5573599D01*
X7381683Y-5725400D02*
X7411683Y-5755400D01*
X7411683Y-5725400D02*
X7381683Y-5755400D01*
X7400083Y-13307900D02*
X7430083Y-13337900D01*
X7430083Y-13307900D02*
X7400083Y-13337900D01*
X7432483Y-5663599D02*
X7462483Y-5693599D01*
X7462483Y-5663599D02*
X7432483Y-5693599D01*
X7450883Y-11428300D02*
X7480883Y-11458300D01*
X7480883Y-11428300D02*
X7450883Y-11458300D01*
X7492483Y-5610684D02*
X7522483Y-5640684D01*
X7522483Y-5610684D02*
X7492483Y-5640684D01*
X7501683Y-9497900D02*
X7531683Y-9527900D01*
X7531683Y-9497900D02*
X7501683Y-9527900D01*
X7548675Y-5522200D02*
X7578675Y-5552200D01*
X7578675Y-5522200D02*
X7548675Y-5552200D01*
X7552483Y-7618300D02*
X7582483Y-7648300D01*
X7582483Y-7618300D02*
X7552483Y-7648300D01*
X7857283Y-3300300D02*
X7887283Y-3330300D01*
X7887283Y-3300300D02*
X7857283Y-3330300D01*
X7857283Y-4824300D02*
X7887283Y-4854300D01*
X7887283Y-4824300D02*
X7857283Y-4854300D01*
X7857283Y-6703900D02*
X7887283Y-6733900D01*
X7887283Y-6703900D02*
X7857283Y-6733900D01*
X7857283Y-8634300D02*
X7887283Y-8664300D01*
X7887283Y-8634300D02*
X7857283Y-8664300D01*
X7857283Y-10513900D02*
X7887283Y-10543900D01*
X7887283Y-10513900D02*
X7857283Y-10543900D01*
X7857283Y-12393500D02*
X7887283Y-12423500D01*
X7887283Y-12393500D02*
X7857283Y-12423500D01*
X9758383Y-3307000D02*
X9788383Y-3337000D01*
X9788383Y-3307000D02*
X9758383Y-3337000D01*
X9758383Y-3947400D02*
X9788383Y-3977400D01*
X9788383Y-3947400D02*
X9758383Y-3977400D01*
X9758383Y-4811000D02*
X9788383Y-4841000D01*
X9788383Y-4811000D02*
X9758383Y-4841000D01*
X9758383Y-6717000D02*
X9788383Y-6747000D01*
X9788383Y-6717000D02*
X9758383Y-6747000D01*
X9758383Y-8621000D02*
X9788383Y-8651000D01*
X9788383Y-8621000D02*
X9758383Y-8651000D01*
X9758383Y-10551400D02*
X9788383Y-10581400D01*
X9788383Y-10551400D02*
X9758383Y-10581400D01*
X10698275Y-12431000D02*
X10728275Y-12461000D01*
X10728275Y-12431000D02*
X10698275Y-12461000D01*
X11663383Y-3322000D02*
X11693383Y-3352000D01*
X11693383Y-3322000D02*
X11663383Y-3352000D01*
X11663383Y-4150600D02*
X11693383Y-4180600D01*
X11693383Y-4150600D02*
X11663383Y-4180600D01*
X11663383Y-4822000D02*
X11693383Y-4852000D01*
X11693383Y-4822000D02*
X11663383Y-4852000D01*
X11663383Y-6709500D02*
X11693383Y-6739500D01*
X11693383Y-6709500D02*
X11663383Y-6739500D01*
X11663383Y-8624500D02*
X11693383Y-8654500D01*
X11693383Y-8624500D02*
X11663383Y-8654500D01*
X11663383Y-10557000D02*
X11693383Y-10587000D01*
X11693383Y-10557000D02*
X11663383Y-10587000D01*
X13568383Y-3299500D02*
X13598383Y-3329500D01*
X13598383Y-3299500D02*
X13568383Y-3329500D01*
X13568383Y-4404600D02*
X13598383Y-4434600D01*
X13598383Y-4404600D02*
X13568383Y-4434600D01*
X13568383Y-4837000D02*
X13598383Y-4867000D01*
X13598383Y-4837000D02*
X13568383Y-4867000D01*
X13568383Y-6737000D02*
X13598383Y-6767000D01*
X13598383Y-6737000D02*
X13568383Y-6767000D01*
X13568383Y-8639500D02*
X13598383Y-8669500D01*
X13598383Y-8639500D02*
X13568383Y-8669500D01*
X13568383Y-11504500D02*
X13598383Y-11534500D01*
X13598383Y-11504500D02*
X13568383Y-11534500D01*
X5657008Y-6759250D02*
G75*
G02*
X5557008Y-6759250I-50000J0D01*
G01*
X5557008Y-6759250D02*
G75*
G02*
X5657008Y-6759250I50000J0D01*
G01*
X5657008Y-7009250D02*
G75*
G02*
X5557008Y-7009250I-50000J0D01*
G01*
X5557008Y-7009250D02*
G75*
G02*
X5657008Y-7009250I50000J0D01*
G01*
X5657008Y-7259250D02*
G75*
G02*
X5557008Y-7259250I-50000J0D01*
G01*
X5557008Y-7259250D02*
G75*
G02*
X5657008Y-7259250I50000J0D01*
G01*
X5657008Y-10880250D02*
G75*
G02*
X5557008Y-10880250I-50000J0D01*
G01*
X5557008Y-10880250D02*
G75*
G02*
X5657008Y-10880250I50000J0D01*
G01*
X5657008Y-11130250D02*
G75*
G02*
X5557008Y-11130250I-50000J0D01*
G01*
X5557008Y-11130250D02*
G75*
G02*
X5657008Y-11130250I50000J0D01*
G01*
X5657008Y-11380250D02*
G75*
G02*
X5557008Y-11380250I-50000J0D01*
G01*
X5557008Y-11380250D02*
G75*
G02*
X5657008Y-11380250I50000J0D01*
G01*
X7107008Y-6759250D02*
G75*
G02*
X7007008Y-6759250I-50000J0D01*
G01*
X7007008Y-6759250D02*
G75*
G02*
X7107008Y-6759250I50000J0D01*
G01*
X7107008Y-7259250D02*
G75*
G02*
X7007008Y-7259250I-50000J0D01*
G01*
X7007008Y-7259250D02*
G75*
G02*
X7107008Y-7259250I50000J0D01*
G01*
X7107008Y-10880250D02*
G75*
G02*
X7007008Y-10880250I-50000J0D01*
G01*
X7007008Y-10880250D02*
G75*
G02*
X7107008Y-10880250I50000J0D01*
G01*
X7107008Y-11380250D02*
G75*
G02*
X7007008Y-11380250I-50000J0D01*
G01*
X7007008Y-11380250D02*
G75*
G02*
X7107008Y-11380250I50000J0D01*
G01*
D13*
X5494325Y-2327265D02*
X5494325Y-2436485D01*
X5439715Y-2381875D02*
X5548935Y-2381875D01*
X5494325Y-2581265D02*
X5494325Y-2690485D01*
X5439715Y-2635875D02*
X5548935Y-2635875D01*
X5494325Y-2835265D02*
X5494325Y-2944485D01*
X5439715Y-2889875D02*
X5548935Y-2889875D01*
X5494325Y-3089265D02*
X5494325Y-3198485D01*
X5439715Y-3143875D02*
X5548935Y-3143875D01*
X5494325Y-3343265D02*
X5494325Y-3452485D01*
X5439715Y-3397875D02*
X5548935Y-3397875D01*
X5494325Y-3597265D02*
X5494325Y-3706485D01*
X5439715Y-3651875D02*
X5548935Y-3651875D01*
X5494325Y-3851265D02*
X5494325Y-3960485D01*
X5439715Y-3905875D02*
X5548935Y-3905875D01*
X5494325Y-4105265D02*
X5494325Y-4214485D01*
X5439715Y-4159875D02*
X5548935Y-4159875D01*
X5494325Y-4359265D02*
X5494325Y-4468485D01*
X5439715Y-4413875D02*
X5548935Y-4413875D01*
X5494325Y-4613265D02*
X5494325Y-4722485D01*
X5439715Y-4667875D02*
X5548935Y-4667875D01*
X5494325Y-4867265D02*
X5494325Y-4976485D01*
X5439715Y-4921875D02*
X5548935Y-4921875D01*
X5494325Y-5121265D02*
X5494325Y-5230485D01*
X5439715Y-5175875D02*
X5548935Y-5175875D01*
X7018325Y-2327265D02*
X7018325Y-2436485D01*
X6963715Y-2381875D02*
X7072935Y-2381875D01*
X7018325Y-2581265D02*
X7018325Y-2690485D01*
X6963715Y-2635875D02*
X7072935Y-2635875D01*
X7018325Y-2835265D02*
X7018325Y-2944485D01*
X6963715Y-2889875D02*
X7072935Y-2889875D01*
X7018325Y-3089265D02*
X7018325Y-3198485D01*
X6963715Y-3143875D02*
X7072935Y-3143875D01*
X7018325Y-3343265D02*
X7018325Y-3452485D01*
X6963715Y-3397875D02*
X7072935Y-3397875D01*
X7018325Y-3597265D02*
X7018325Y-3706485D01*
X6963715Y-3651875D02*
X7072935Y-3651875D01*
X7018325Y-3851265D02*
X7018325Y-3960485D01*
X6963715Y-3905875D02*
X7072935Y-3905875D01*
X7018325Y-4105265D02*
X7018325Y-4214485D01*
X6963715Y-4159875D02*
X7072935Y-4159875D01*
X7018325Y-4359265D02*
X7018325Y-4468485D01*
X6963715Y-4413875D02*
X7072935Y-4413875D01*
X7018325Y-4613265D02*
X7018325Y-4722485D01*
X6963715Y-4667875D02*
X7072935Y-4667875D01*
X7018325Y-4867265D02*
X7018325Y-4976485D01*
X6963715Y-4921875D02*
X7072935Y-4921875D01*
X7018325Y-5121265D02*
X7018325Y-5230485D01*
X6963715Y-5175875D02*
X7072935Y-5175875D01*
D11*
X5276027Y-14605234D02*
X5276027Y-14405234D01*
X5276027Y-14405234D02*
X5323646Y-14405234D01*
X5323646Y-14405234D02*
X5352217Y-14414758D01*
X5352217Y-14414758D02*
X5371265Y-14433805D01*
X5371265Y-14433805D02*
X5380789Y-14452853D01*
X5380789Y-14452853D02*
X5390313Y-14490948D01*
X5390313Y-14490948D02*
X5390313Y-14519519D01*
X5390313Y-14519519D02*
X5380789Y-14557615D01*
X5380789Y-14557615D02*
X5371265Y-14576662D01*
X5371265Y-14576662D02*
X5352217Y-14595710D01*
X5352217Y-14595710D02*
X5323646Y-14605234D01*
X5323646Y-14605234D02*
X5276027Y-14605234D01*
X5476027Y-14605234D02*
X5476027Y-14471900D01*
X5476027Y-14509996D02*
X5485551Y-14490948D01*
X5485551Y-14490948D02*
X5495074Y-14481424D01*
X5495074Y-14481424D02*
X5514122Y-14471900D01*
X5514122Y-14471900D02*
X5533170Y-14471900D01*
X5599836Y-14605234D02*
X5599836Y-14471900D01*
X5599836Y-14405234D02*
X5590313Y-14414758D01*
X5590313Y-14414758D02*
X5599836Y-14424281D01*
X5599836Y-14424281D02*
X5609360Y-14414758D01*
X5609360Y-14414758D02*
X5599836Y-14405234D01*
X5599836Y-14405234D02*
X5599836Y-14424281D01*
X5723646Y-14605234D02*
X5704598Y-14595710D01*
X5704598Y-14595710D02*
X5695074Y-14576662D01*
X5695074Y-14576662D02*
X5695074Y-14405234D01*
X5828408Y-14605234D02*
X5809360Y-14595710D01*
X5809360Y-14595710D02*
X5799836Y-14576662D01*
X5799836Y-14576662D02*
X5799836Y-14405234D01*
X6056979Y-14605234D02*
X6056979Y-14405234D01*
X6056979Y-14405234D02*
X6123646Y-14548091D01*
X6123646Y-14548091D02*
X6190312Y-14405234D01*
X6190312Y-14405234D02*
X6190312Y-14605234D01*
X6371265Y-14605234D02*
X6371265Y-14500472D01*
X6371265Y-14500472D02*
X6361741Y-14481424D01*
X6361741Y-14481424D02*
X6342693Y-14471900D01*
X6342693Y-14471900D02*
X6304598Y-14471900D01*
X6304598Y-14471900D02*
X6285551Y-14481424D01*
X6371265Y-14595710D02*
X6352217Y-14605234D01*
X6352217Y-14605234D02*
X6304598Y-14605234D01*
X6304598Y-14605234D02*
X6285551Y-14595710D01*
X6285551Y-14595710D02*
X6276027Y-14576662D01*
X6276027Y-14576662D02*
X6276027Y-14557615D01*
X6276027Y-14557615D02*
X6285551Y-14538567D01*
X6285551Y-14538567D02*
X6304598Y-14529043D01*
X6304598Y-14529043D02*
X6352217Y-14529043D01*
X6352217Y-14529043D02*
X6371265Y-14519519D01*
X6466503Y-14471900D02*
X6466503Y-14671900D01*
X6466503Y-14481424D02*
X6485551Y-14471900D01*
X6485551Y-14471900D02*
X6523646Y-14471900D01*
X6523646Y-14471900D02*
X6542693Y-14481424D01*
X6542693Y-14481424D02*
X6552217Y-14490948D01*
X6552217Y-14490948D02*
X6561741Y-14509996D01*
X6561741Y-14509996D02*
X6561741Y-14567138D01*
X6561741Y-14567138D02*
X6552217Y-14586186D01*
X6552217Y-14586186D02*
X6542693Y-14595710D01*
X6542693Y-14595710D02*
X6523646Y-14605234D01*
X6523646Y-14605234D02*
X6485551Y-14605234D01*
X6485551Y-14605234D02*
X6466503Y-14595710D01*
X6647455Y-14586186D02*
X6656979Y-14595710D01*
X6656979Y-14595710D02*
X6647455Y-14605234D01*
X6647455Y-14605234D02*
X6637932Y-14595710D01*
X6637932Y-14595710D02*
X6647455Y-14586186D01*
X6647455Y-14586186D02*
X6647455Y-14605234D01*
X6647455Y-14481424D02*
X6656979Y-14490948D01*
X6656979Y-14490948D02*
X6647455Y-14500472D01*
X6647455Y-14500472D02*
X6637932Y-14490948D01*
X6637932Y-14490948D02*
X6647455Y-14481424D01*
X6647455Y-14481424D02*
X6647455Y-14500472D01*
D12*
X4985250Y-14918750D02*
X5015250Y-14948750D01*
X5015250Y-14918750D02*
X4985250Y-14948750D01*
D11*
X5314122Y-14825234D02*
X5333170Y-14825234D01*
X5333170Y-14825234D02*
X5352217Y-14834758D01*
X5352217Y-14834758D02*
X5361741Y-14844281D01*
X5361741Y-14844281D02*
X5371265Y-14863329D01*
X5371265Y-14863329D02*
X5380789Y-14901424D01*
X5380789Y-14901424D02*
X5380789Y-14949043D01*
X5380789Y-14949043D02*
X5371265Y-14987138D01*
X5371265Y-14987138D02*
X5361741Y-15006186D01*
X5361741Y-15006186D02*
X5352217Y-15015710D01*
X5352217Y-15015710D02*
X5333170Y-15025234D01*
X5333170Y-15025234D02*
X5314122Y-15025234D01*
X5314122Y-15025234D02*
X5295074Y-15015710D01*
X5295074Y-15015710D02*
X5285551Y-15006186D01*
X5285551Y-15006186D02*
X5276027Y-14987138D01*
X5276027Y-14987138D02*
X5266503Y-14949043D01*
X5266503Y-14949043D02*
X5266503Y-14901424D01*
X5266503Y-14901424D02*
X5276027Y-14863329D01*
X5276027Y-14863329D02*
X5285551Y-14844281D01*
X5285551Y-14844281D02*
X5295074Y-14834758D01*
X5295074Y-14834758D02*
X5314122Y-14825234D01*
X5466503Y-15006186D02*
X5476027Y-15015710D01*
X5476027Y-15015710D02*
X5466503Y-15025234D01*
X5466503Y-15025234D02*
X5456979Y-15015710D01*
X5456979Y-15015710D02*
X5466503Y-15006186D01*
X5466503Y-15006186D02*
X5466503Y-15025234D01*
X5542694Y-14825234D02*
X5666503Y-14825234D01*
X5666503Y-14825234D02*
X5599836Y-14901424D01*
X5599836Y-14901424D02*
X5628408Y-14901424D01*
X5628408Y-14901424D02*
X5647455Y-14910948D01*
X5647455Y-14910948D02*
X5656979Y-14920472D01*
X5656979Y-14920472D02*
X5666503Y-14939519D01*
X5666503Y-14939519D02*
X5666503Y-14987138D01*
X5666503Y-14987138D02*
X5656979Y-15006186D01*
X5656979Y-15006186D02*
X5647455Y-15015710D01*
X5647455Y-15015710D02*
X5628408Y-15025234D01*
X5628408Y-15025234D02*
X5571265Y-15025234D01*
X5571265Y-15025234D02*
X5552217Y-15015710D01*
X5552217Y-15015710D02*
X5542694Y-15006186D01*
X5790312Y-14825234D02*
X5809360Y-14825234D01*
X5809360Y-14825234D02*
X5828408Y-14834758D01*
X5828408Y-14834758D02*
X5837932Y-14844281D01*
X5837932Y-14844281D02*
X5847455Y-14863329D01*
X5847455Y-14863329D02*
X5856979Y-14901424D01*
X5856979Y-14901424D02*
X5856979Y-14949043D01*
X5856979Y-14949043D02*
X5847455Y-14987138D01*
X5847455Y-14987138D02*
X5837932Y-15006186D01*
X5837932Y-15006186D02*
X5828408Y-15015710D01*
X5828408Y-15015710D02*
X5809360Y-15025234D01*
X5809360Y-15025234D02*
X5790312Y-15025234D01*
X5790312Y-15025234D02*
X5771265Y-15015710D01*
X5771265Y-15015710D02*
X5761741Y-15006186D01*
X5761741Y-15006186D02*
X5752217Y-14987138D01*
X5752217Y-14987138D02*
X5742693Y-14949043D01*
X5742693Y-14949043D02*
X5742693Y-14901424D01*
X5742693Y-14901424D02*
X5752217Y-14863329D01*
X5752217Y-14863329D02*
X5761741Y-14844281D01*
X5761741Y-14844281D02*
X5771265Y-14834758D01*
X5771265Y-14834758D02*
X5790312Y-14825234D01*
X5980789Y-14825234D02*
X5999836Y-14825234D01*
X5999836Y-14825234D02*
X6018884Y-14834758D01*
X6018884Y-14834758D02*
X6028408Y-14844281D01*
X6028408Y-14844281D02*
X6037932Y-14863329D01*
X6037932Y-14863329D02*
X6047455Y-14901424D01*
X6047455Y-14901424D02*
X6047455Y-14949043D01*
X6047455Y-14949043D02*
X6037932Y-14987138D01*
X6037932Y-14987138D02*
X6028408Y-15006186D01*
X6028408Y-15006186D02*
X6018884Y-15015710D01*
X6018884Y-15015710D02*
X5999836Y-15025234D01*
X5999836Y-15025234D02*
X5980789Y-15025234D01*
X5980789Y-15025234D02*
X5961741Y-15015710D01*
X5961741Y-15015710D02*
X5952217Y-15006186D01*
X5952217Y-15006186D02*
X5942693Y-14987138D01*
X5942693Y-14987138D02*
X5933170Y-14949043D01*
X5933170Y-14949043D02*
X5933170Y-14901424D01*
X5933170Y-14901424D02*
X5942693Y-14863329D01*
X5942693Y-14863329D02*
X5952217Y-14844281D01*
X5952217Y-14844281D02*
X5961741Y-14834758D01*
X5961741Y-14834758D02*
X5980789Y-14825234D01*
X6133170Y-15025234D02*
X6133170Y-14891900D01*
X6133170Y-14910948D02*
X6142693Y-14901424D01*
X6142693Y-14901424D02*
X6161741Y-14891900D01*
X6161741Y-14891900D02*
X6190313Y-14891900D01*
X6190313Y-14891900D02*
X6209360Y-14901424D01*
X6209360Y-14901424D02*
X6218884Y-14920472D01*
X6218884Y-14920472D02*
X6218884Y-15025234D01*
X6218884Y-14920472D02*
X6228408Y-14901424D01*
X6228408Y-14901424D02*
X6247455Y-14891900D01*
X6247455Y-14891900D02*
X6276027Y-14891900D01*
X6276027Y-14891900D02*
X6295074Y-14901424D01*
X6295074Y-14901424D02*
X6304598Y-14920472D01*
X6304598Y-14920472D02*
X6304598Y-15025234D01*
X6399836Y-15025234D02*
X6399836Y-14891900D01*
X6399836Y-14910948D02*
X6409360Y-14901424D01*
X6409360Y-14901424D02*
X6428408Y-14891900D01*
X6428408Y-14891900D02*
X6456979Y-14891900D01*
X6456979Y-14891900D02*
X6476027Y-14901424D01*
X6476027Y-14901424D02*
X6485551Y-14920472D01*
X6485551Y-14920472D02*
X6485551Y-15025234D01*
X6485551Y-14920472D02*
X6495074Y-14901424D01*
X6495074Y-14901424D02*
X6514122Y-14891900D01*
X6514122Y-14891900D02*
X6542693Y-14891900D01*
X6542693Y-14891900D02*
X6561741Y-14901424D01*
X6561741Y-14901424D02*
X6571265Y-14920472D01*
X6571265Y-14920472D02*
X6571265Y-15025234D01*
X6961741Y-14815710D02*
X6790313Y-15072853D01*
X7218884Y-14825234D02*
X7237932Y-14825234D01*
X7237932Y-14825234D02*
X7256979Y-14834758D01*
X7256979Y-14834758D02*
X7266503Y-14844281D01*
X7266503Y-14844281D02*
X7276027Y-14863329D01*
X7276027Y-14863329D02*
X7285551Y-14901424D01*
X7285551Y-14901424D02*
X7285551Y-14949043D01*
X7285551Y-14949043D02*
X7276027Y-14987138D01*
X7276027Y-14987138D02*
X7266503Y-15006186D01*
X7266503Y-15006186D02*
X7256979Y-15015710D01*
X7256979Y-15015710D02*
X7237932Y-15025234D01*
X7237932Y-15025234D02*
X7218884Y-15025234D01*
X7218884Y-15025234D02*
X7199836Y-15015710D01*
X7199836Y-15015710D02*
X7190313Y-15006186D01*
X7190313Y-15006186D02*
X7180789Y-14987138D01*
X7180789Y-14987138D02*
X7171265Y-14949043D01*
X7171265Y-14949043D02*
X7171265Y-14901424D01*
X7171265Y-14901424D02*
X7180789Y-14863329D01*
X7180789Y-14863329D02*
X7190313Y-14844281D01*
X7190313Y-14844281D02*
X7199836Y-14834758D01*
X7199836Y-14834758D02*
X7218884Y-14825234D01*
X7371265Y-15006186D02*
X7380789Y-15015710D01*
X7380789Y-15015710D02*
X7371265Y-15025234D01*
X7371265Y-15025234D02*
X7361741Y-15015710D01*
X7361741Y-15015710D02*
X7371265Y-15006186D01*
X7371265Y-15006186D02*
X7371265Y-15025234D01*
X7504598Y-14825234D02*
X7523646Y-14825234D01*
X7523646Y-14825234D02*
X7542694Y-14834758D01*
X7542694Y-14834758D02*
X7552217Y-14844281D01*
X7552217Y-14844281D02*
X7561741Y-14863329D01*
X7561741Y-14863329D02*
X7571265Y-14901424D01*
X7571265Y-14901424D02*
X7571265Y-14949043D01*
X7571265Y-14949043D02*
X7561741Y-14987138D01*
X7561741Y-14987138D02*
X7552217Y-15006186D01*
X7552217Y-15006186D02*
X7542694Y-15015710D01*
X7542694Y-15015710D02*
X7523646Y-15025234D01*
X7523646Y-15025234D02*
X7504598Y-15025234D01*
X7504598Y-15025234D02*
X7485551Y-15015710D01*
X7485551Y-15015710D02*
X7476027Y-15006186D01*
X7476027Y-15006186D02*
X7466503Y-14987138D01*
X7466503Y-14987138D02*
X7456979Y-14949043D01*
X7456979Y-14949043D02*
X7456979Y-14901424D01*
X7456979Y-14901424D02*
X7466503Y-14863329D01*
X7466503Y-14863329D02*
X7476027Y-14844281D01*
X7476027Y-14844281D02*
X7485551Y-14834758D01*
X7485551Y-14834758D02*
X7504598Y-14825234D01*
X7761741Y-15025234D02*
X7647456Y-15025234D01*
X7704598Y-15025234D02*
X7704598Y-14825234D01*
X7704598Y-14825234D02*
X7685551Y-14853805D01*
X7685551Y-14853805D02*
X7666503Y-14872853D01*
X7666503Y-14872853D02*
X7647456Y-14882377D01*
X7952217Y-15025234D02*
X7837932Y-15025234D01*
X7895075Y-15025234D02*
X7895075Y-14825234D01*
X7895075Y-14825234D02*
X7876027Y-14853805D01*
X7876027Y-14853805D02*
X7856979Y-14872853D01*
X7856979Y-14872853D02*
X7837932Y-14882377D01*
X8066503Y-14910948D02*
X8047456Y-14901424D01*
X8047456Y-14901424D02*
X8037932Y-14891900D01*
X8037932Y-14891900D02*
X8028408Y-14872853D01*
X8028408Y-14872853D02*
X8028408Y-14863329D01*
X8028408Y-14863329D02*
X8037932Y-14844281D01*
X8037932Y-14844281D02*
X8047456Y-14834758D01*
X8047456Y-14834758D02*
X8066503Y-14825234D01*
X8066503Y-14825234D02*
X8104598Y-14825234D01*
X8104598Y-14825234D02*
X8123646Y-14834758D01*
X8123646Y-14834758D02*
X8133170Y-14844281D01*
X8133170Y-14844281D02*
X8142694Y-14863329D01*
X8142694Y-14863329D02*
X8142694Y-14872853D01*
X8142694Y-14872853D02*
X8133170Y-14891900D01*
X8133170Y-14891900D02*
X8123646Y-14901424D01*
X8123646Y-14901424D02*
X8104598Y-14910948D01*
X8104598Y-14910948D02*
X8066503Y-14910948D01*
X8066503Y-14910948D02*
X8047456Y-14920472D01*
X8047456Y-14920472D02*
X8037932Y-14929996D01*
X8037932Y-14929996D02*
X8028408Y-14949043D01*
X8028408Y-14949043D02*
X8028408Y-14987138D01*
X8028408Y-14987138D02*
X8037932Y-15006186D01*
X8037932Y-15006186D02*
X8047456Y-15015710D01*
X8047456Y-15015710D02*
X8066503Y-15025234D01*
X8066503Y-15025234D02*
X8104598Y-15025234D01*
X8104598Y-15025234D02*
X8123646Y-15015710D01*
X8123646Y-15015710D02*
X8133170Y-15006186D01*
X8133170Y-15006186D02*
X8142694Y-14987138D01*
X8142694Y-14987138D02*
X8142694Y-14949043D01*
X8142694Y-14949043D02*
X8133170Y-14929996D01*
X8133170Y-14929996D02*
X8123646Y-14920472D01*
X8123646Y-14920472D02*
X8104598Y-14910948D01*
X8218884Y-14825234D02*
X8218884Y-14863329D01*
X8295075Y-14825234D02*
X8295075Y-14863329D01*
X8590313Y-15101424D02*
X8580789Y-15091900D01*
X8580789Y-15091900D02*
X8561741Y-15063329D01*
X8561741Y-15063329D02*
X8552218Y-15044281D01*
X8552218Y-15044281D02*
X8542694Y-15015710D01*
X8542694Y-15015710D02*
X8533170Y-14968091D01*
X8533170Y-14968091D02*
X8533170Y-14929996D01*
X8533170Y-14929996D02*
X8542694Y-14882377D01*
X8542694Y-14882377D02*
X8552218Y-14853805D01*
X8552218Y-14853805D02*
X8561741Y-14834758D01*
X8561741Y-14834758D02*
X8580789Y-14806186D01*
X8580789Y-14806186D02*
X8590313Y-14796662D01*
X8752218Y-14891900D02*
X8752218Y-15025234D01*
X8704599Y-14815710D02*
X8656980Y-14958567D01*
X8656980Y-14958567D02*
X8780789Y-14958567D01*
X8942694Y-14891900D02*
X8942694Y-15025234D01*
X8895075Y-14815710D02*
X8847456Y-14958567D01*
X8847456Y-14958567D02*
X8971265Y-14958567D01*
X9199837Y-15025234D02*
X9199837Y-14825234D01*
X9285551Y-15025234D02*
X9285551Y-14920472D01*
X9285551Y-14920472D02*
X9276027Y-14901424D01*
X9276027Y-14901424D02*
X9256980Y-14891900D01*
X9256980Y-14891900D02*
X9228408Y-14891900D01*
X9228408Y-14891900D02*
X9209361Y-14901424D01*
X9209361Y-14901424D02*
X9199837Y-14910948D01*
X9409361Y-15025234D02*
X9390313Y-15015710D01*
X9390313Y-15015710D02*
X9380789Y-15006186D01*
X9380789Y-15006186D02*
X9371265Y-14987138D01*
X9371265Y-14987138D02*
X9371265Y-14929996D01*
X9371265Y-14929996D02*
X9380789Y-14910948D01*
X9380789Y-14910948D02*
X9390313Y-14901424D01*
X9390313Y-14901424D02*
X9409361Y-14891900D01*
X9409361Y-14891900D02*
X9437932Y-14891900D01*
X9437932Y-14891900D02*
X9456980Y-14901424D01*
X9456980Y-14901424D02*
X9466503Y-14910948D01*
X9466503Y-14910948D02*
X9476027Y-14929996D01*
X9476027Y-14929996D02*
X9476027Y-14987138D01*
X9476027Y-14987138D02*
X9466503Y-15006186D01*
X9466503Y-15006186D02*
X9456980Y-15015710D01*
X9456980Y-15015710D02*
X9437932Y-15025234D01*
X9437932Y-15025234D02*
X9409361Y-15025234D01*
X9590313Y-15025234D02*
X9571265Y-15015710D01*
X9571265Y-15015710D02*
X9561742Y-14996662D01*
X9561742Y-14996662D02*
X9561742Y-14825234D01*
X9742694Y-15015710D02*
X9723646Y-15025234D01*
X9723646Y-15025234D02*
X9685551Y-15025234D01*
X9685551Y-15025234D02*
X9666503Y-15015710D01*
X9666503Y-15015710D02*
X9656980Y-14996662D01*
X9656980Y-14996662D02*
X9656980Y-14920472D01*
X9656980Y-14920472D02*
X9666503Y-14901424D01*
X9666503Y-14901424D02*
X9685551Y-14891900D01*
X9685551Y-14891900D02*
X9723646Y-14891900D01*
X9723646Y-14891900D02*
X9742694Y-14901424D01*
X9742694Y-14901424D02*
X9752218Y-14920472D01*
X9752218Y-14920472D02*
X9752218Y-14939519D01*
X9752218Y-14939519D02*
X9656980Y-14958567D01*
X9828408Y-15015710D02*
X9847456Y-15025234D01*
X9847456Y-15025234D02*
X9885551Y-15025234D01*
X9885551Y-15025234D02*
X9904599Y-15015710D01*
X9904599Y-15015710D02*
X9914123Y-14996662D01*
X9914123Y-14996662D02*
X9914123Y-14987138D01*
X9914123Y-14987138D02*
X9904599Y-14968091D01*
X9904599Y-14968091D02*
X9885551Y-14958567D01*
X9885551Y-14958567D02*
X9856980Y-14958567D01*
X9856980Y-14958567D02*
X9837932Y-14949043D01*
X9837932Y-14949043D02*
X9828408Y-14929996D01*
X9828408Y-14929996D02*
X9828408Y-14920472D01*
X9828408Y-14920472D02*
X9837932Y-14901424D01*
X9837932Y-14901424D02*
X9856980Y-14891900D01*
X9856980Y-14891900D02*
X9885551Y-14891900D01*
X9885551Y-14891900D02*
X9904599Y-14901424D01*
X9980789Y-15101424D02*
X9990313Y-15091900D01*
X9990313Y-15091900D02*
X10009361Y-15063329D01*
X10009361Y-15063329D02*
X10018884Y-15044281D01*
X10018884Y-15044281D02*
X10028408Y-15015710D01*
X10028408Y-15015710D02*
X10037932Y-14968091D01*
X10037932Y-14968091D02*
X10037932Y-14929996D01*
X10037932Y-14929996D02*
X10028408Y-14882377D01*
X10028408Y-14882377D02*
X10018884Y-14853805D01*
X10018884Y-14853805D02*
X10009361Y-14834758D01*
X10009361Y-14834758D02*
X9990313Y-14806186D01*
X9990313Y-14806186D02*
X9980789Y-14796662D01*
D12*
X5015250Y-15197750D02*
G75*
G02*
X4915250Y-15197750I-50000J0D01*
G01*
X4915250Y-15197750D02*
G75*
G02*
X5015250Y-15197750I50000J0D01*
G01*
D11*
X5380789Y-15289234D02*
X5266503Y-15289234D01*
X5323646Y-15289234D02*
X5323646Y-15089234D01*
X5323646Y-15089234D02*
X5304598Y-15117805D01*
X5304598Y-15117805D02*
X5285551Y-15136853D01*
X5285551Y-15136853D02*
X5266503Y-15146377D01*
X5466503Y-15270186D02*
X5476027Y-15279710D01*
X5476027Y-15279710D02*
X5466503Y-15289234D01*
X5466503Y-15289234D02*
X5456979Y-15279710D01*
X5456979Y-15279710D02*
X5466503Y-15270186D01*
X5466503Y-15270186D02*
X5466503Y-15289234D01*
X5599836Y-15089234D02*
X5618884Y-15089234D01*
X5618884Y-15089234D02*
X5637932Y-15098758D01*
X5637932Y-15098758D02*
X5647455Y-15108281D01*
X5647455Y-15108281D02*
X5656979Y-15127329D01*
X5656979Y-15127329D02*
X5666503Y-15165424D01*
X5666503Y-15165424D02*
X5666503Y-15213043D01*
X5666503Y-15213043D02*
X5656979Y-15251138D01*
X5656979Y-15251138D02*
X5647455Y-15270186D01*
X5647455Y-15270186D02*
X5637932Y-15279710D01*
X5637932Y-15279710D02*
X5618884Y-15289234D01*
X5618884Y-15289234D02*
X5599836Y-15289234D01*
X5599836Y-15289234D02*
X5580789Y-15279710D01*
X5580789Y-15279710D02*
X5571265Y-15270186D01*
X5571265Y-15270186D02*
X5561741Y-15251138D01*
X5561741Y-15251138D02*
X5552217Y-15213043D01*
X5552217Y-15213043D02*
X5552217Y-15165424D01*
X5552217Y-15165424D02*
X5561741Y-15127329D01*
X5561741Y-15127329D02*
X5571265Y-15108281D01*
X5571265Y-15108281D02*
X5580789Y-15098758D01*
X5580789Y-15098758D02*
X5599836Y-15089234D01*
X5790312Y-15089234D02*
X5809360Y-15089234D01*
X5809360Y-15089234D02*
X5828408Y-15098758D01*
X5828408Y-15098758D02*
X5837932Y-15108281D01*
X5837932Y-15108281D02*
X5847455Y-15127329D01*
X5847455Y-15127329D02*
X5856979Y-15165424D01*
X5856979Y-15165424D02*
X5856979Y-15213043D01*
X5856979Y-15213043D02*
X5847455Y-15251138D01*
X5847455Y-15251138D02*
X5837932Y-15270186D01*
X5837932Y-15270186D02*
X5828408Y-15279710D01*
X5828408Y-15279710D02*
X5809360Y-15289234D01*
X5809360Y-15289234D02*
X5790312Y-15289234D01*
X5790312Y-15289234D02*
X5771265Y-15279710D01*
X5771265Y-15279710D02*
X5761741Y-15270186D01*
X5761741Y-15270186D02*
X5752217Y-15251138D01*
X5752217Y-15251138D02*
X5742693Y-15213043D01*
X5742693Y-15213043D02*
X5742693Y-15165424D01*
X5742693Y-15165424D02*
X5752217Y-15127329D01*
X5752217Y-15127329D02*
X5761741Y-15108281D01*
X5761741Y-15108281D02*
X5771265Y-15098758D01*
X5771265Y-15098758D02*
X5790312Y-15089234D01*
X5980789Y-15089234D02*
X5999836Y-15089234D01*
X5999836Y-15089234D02*
X6018884Y-15098758D01*
X6018884Y-15098758D02*
X6028408Y-15108281D01*
X6028408Y-15108281D02*
X6037932Y-15127329D01*
X6037932Y-15127329D02*
X6047455Y-15165424D01*
X6047455Y-15165424D02*
X6047455Y-15213043D01*
X6047455Y-15213043D02*
X6037932Y-15251138D01*
X6037932Y-15251138D02*
X6028408Y-15270186D01*
X6028408Y-15270186D02*
X6018884Y-15279710D01*
X6018884Y-15279710D02*
X5999836Y-15289234D01*
X5999836Y-15289234D02*
X5980789Y-15289234D01*
X5980789Y-15289234D02*
X5961741Y-15279710D01*
X5961741Y-15279710D02*
X5952217Y-15270186D01*
X5952217Y-15270186D02*
X5942693Y-15251138D01*
X5942693Y-15251138D02*
X5933170Y-15213043D01*
X5933170Y-15213043D02*
X5933170Y-15165424D01*
X5933170Y-15165424D02*
X5942693Y-15127329D01*
X5942693Y-15127329D02*
X5952217Y-15108281D01*
X5952217Y-15108281D02*
X5961741Y-15098758D01*
X5961741Y-15098758D02*
X5980789Y-15089234D01*
X6133170Y-15289234D02*
X6133170Y-15155900D01*
X6133170Y-15174948D02*
X6142693Y-15165424D01*
X6142693Y-15165424D02*
X6161741Y-15155900D01*
X6161741Y-15155900D02*
X6190313Y-15155900D01*
X6190313Y-15155900D02*
X6209360Y-15165424D01*
X6209360Y-15165424D02*
X6218884Y-15184472D01*
X6218884Y-15184472D02*
X6218884Y-15289234D01*
X6218884Y-15184472D02*
X6228408Y-15165424D01*
X6228408Y-15165424D02*
X6247455Y-15155900D01*
X6247455Y-15155900D02*
X6276027Y-15155900D01*
X6276027Y-15155900D02*
X6295074Y-15165424D01*
X6295074Y-15165424D02*
X6304598Y-15184472D01*
X6304598Y-15184472D02*
X6304598Y-15289234D01*
X6399836Y-15289234D02*
X6399836Y-15155900D01*
X6399836Y-15174948D02*
X6409360Y-15165424D01*
X6409360Y-15165424D02*
X6428408Y-15155900D01*
X6428408Y-15155900D02*
X6456979Y-15155900D01*
X6456979Y-15155900D02*
X6476027Y-15165424D01*
X6476027Y-15165424D02*
X6485551Y-15184472D01*
X6485551Y-15184472D02*
X6485551Y-15289234D01*
X6485551Y-15184472D02*
X6495074Y-15165424D01*
X6495074Y-15165424D02*
X6514122Y-15155900D01*
X6514122Y-15155900D02*
X6542693Y-15155900D01*
X6542693Y-15155900D02*
X6561741Y-15165424D01*
X6561741Y-15165424D02*
X6571265Y-15184472D01*
X6571265Y-15184472D02*
X6571265Y-15289234D01*
X6961741Y-15079710D02*
X6790313Y-15336853D01*
X7218884Y-15089234D02*
X7237932Y-15089234D01*
X7237932Y-15089234D02*
X7256979Y-15098758D01*
X7256979Y-15098758D02*
X7266503Y-15108281D01*
X7266503Y-15108281D02*
X7276027Y-15127329D01*
X7276027Y-15127329D02*
X7285551Y-15165424D01*
X7285551Y-15165424D02*
X7285551Y-15213043D01*
X7285551Y-15213043D02*
X7276027Y-15251138D01*
X7276027Y-15251138D02*
X7266503Y-15270186D01*
X7266503Y-15270186D02*
X7256979Y-15279710D01*
X7256979Y-15279710D02*
X7237932Y-15289234D01*
X7237932Y-15289234D02*
X7218884Y-15289234D01*
X7218884Y-15289234D02*
X7199836Y-15279710D01*
X7199836Y-15279710D02*
X7190313Y-15270186D01*
X7190313Y-15270186D02*
X7180789Y-15251138D01*
X7180789Y-15251138D02*
X7171265Y-15213043D01*
X7171265Y-15213043D02*
X7171265Y-15165424D01*
X7171265Y-15165424D02*
X7180789Y-15127329D01*
X7180789Y-15127329D02*
X7190313Y-15108281D01*
X7190313Y-15108281D02*
X7199836Y-15098758D01*
X7199836Y-15098758D02*
X7218884Y-15089234D01*
X7371265Y-15270186D02*
X7380789Y-15279710D01*
X7380789Y-15279710D02*
X7371265Y-15289234D01*
X7371265Y-15289234D02*
X7361741Y-15279710D01*
X7361741Y-15279710D02*
X7371265Y-15270186D01*
X7371265Y-15270186D02*
X7371265Y-15289234D01*
X7504598Y-15089234D02*
X7523646Y-15089234D01*
X7523646Y-15089234D02*
X7542694Y-15098758D01*
X7542694Y-15098758D02*
X7552217Y-15108281D01*
X7552217Y-15108281D02*
X7561741Y-15127329D01*
X7561741Y-15127329D02*
X7571265Y-15165424D01*
X7571265Y-15165424D02*
X7571265Y-15213043D01*
X7571265Y-15213043D02*
X7561741Y-15251138D01*
X7561741Y-15251138D02*
X7552217Y-15270186D01*
X7552217Y-15270186D02*
X7542694Y-15279710D01*
X7542694Y-15279710D02*
X7523646Y-15289234D01*
X7523646Y-15289234D02*
X7504598Y-15289234D01*
X7504598Y-15289234D02*
X7485551Y-15279710D01*
X7485551Y-15279710D02*
X7476027Y-15270186D01*
X7476027Y-15270186D02*
X7466503Y-15251138D01*
X7466503Y-15251138D02*
X7456979Y-15213043D01*
X7456979Y-15213043D02*
X7456979Y-15165424D01*
X7456979Y-15165424D02*
X7466503Y-15127329D01*
X7466503Y-15127329D02*
X7476027Y-15108281D01*
X7476027Y-15108281D02*
X7485551Y-15098758D01*
X7485551Y-15098758D02*
X7504598Y-15089234D01*
X7637932Y-15089234D02*
X7761741Y-15089234D01*
X7761741Y-15089234D02*
X7695075Y-15165424D01*
X7695075Y-15165424D02*
X7723646Y-15165424D01*
X7723646Y-15165424D02*
X7742694Y-15174948D01*
X7742694Y-15174948D02*
X7752217Y-15184472D01*
X7752217Y-15184472D02*
X7761741Y-15203519D01*
X7761741Y-15203519D02*
X7761741Y-15251138D01*
X7761741Y-15251138D02*
X7752217Y-15270186D01*
X7752217Y-15270186D02*
X7742694Y-15279710D01*
X7742694Y-15279710D02*
X7723646Y-15289234D01*
X7723646Y-15289234D02*
X7666503Y-15289234D01*
X7666503Y-15289234D02*
X7647456Y-15279710D01*
X7647456Y-15279710D02*
X7637932Y-15270186D01*
X7856979Y-15289234D02*
X7895075Y-15289234D01*
X7895075Y-15289234D02*
X7914122Y-15279710D01*
X7914122Y-15279710D02*
X7923646Y-15270186D01*
X7923646Y-15270186D02*
X7942694Y-15241615D01*
X7942694Y-15241615D02*
X7952217Y-15203519D01*
X7952217Y-15203519D02*
X7952217Y-15127329D01*
X7952217Y-15127329D02*
X7942694Y-15108281D01*
X7942694Y-15108281D02*
X7933170Y-15098758D01*
X7933170Y-15098758D02*
X7914122Y-15089234D01*
X7914122Y-15089234D02*
X7876027Y-15089234D01*
X7876027Y-15089234D02*
X7856979Y-15098758D01*
X7856979Y-15098758D02*
X7847456Y-15108281D01*
X7847456Y-15108281D02*
X7837932Y-15127329D01*
X7837932Y-15127329D02*
X7837932Y-15174948D01*
X7837932Y-15174948D02*
X7847456Y-15193996D01*
X7847456Y-15193996D02*
X7856979Y-15203519D01*
X7856979Y-15203519D02*
X7876027Y-15213043D01*
X7876027Y-15213043D02*
X7914122Y-15213043D01*
X7914122Y-15213043D02*
X7933170Y-15203519D01*
X7933170Y-15203519D02*
X7942694Y-15193996D01*
X7942694Y-15193996D02*
X7952217Y-15174948D01*
X8123646Y-15155900D02*
X8123646Y-15289234D01*
X8076027Y-15079710D02*
X8028408Y-15222567D01*
X8028408Y-15222567D02*
X8152217Y-15222567D01*
X8218884Y-15089234D02*
X8218884Y-15127329D01*
X8295075Y-15089234D02*
X8295075Y-15127329D01*
X8590313Y-15365424D02*
X8580789Y-15355900D01*
X8580789Y-15355900D02*
X8561741Y-15327329D01*
X8561741Y-15327329D02*
X8552218Y-15308281D01*
X8552218Y-15308281D02*
X8542694Y-15279710D01*
X8542694Y-15279710D02*
X8533170Y-15232091D01*
X8533170Y-15232091D02*
X8533170Y-15193996D01*
X8533170Y-15193996D02*
X8542694Y-15146377D01*
X8542694Y-15146377D02*
X8552218Y-15117805D01*
X8552218Y-15117805D02*
X8561741Y-15098758D01*
X8561741Y-15098758D02*
X8580789Y-15070186D01*
X8580789Y-15070186D02*
X8590313Y-15060662D01*
X8771265Y-15289234D02*
X8656980Y-15289234D01*
X8714122Y-15289234D02*
X8714122Y-15089234D01*
X8714122Y-15089234D02*
X8695075Y-15117805D01*
X8695075Y-15117805D02*
X8676027Y-15136853D01*
X8676027Y-15136853D02*
X8656980Y-15146377D01*
X8895075Y-15089234D02*
X8914122Y-15089234D01*
X8914122Y-15089234D02*
X8933170Y-15098758D01*
X8933170Y-15098758D02*
X8942694Y-15108281D01*
X8942694Y-15108281D02*
X8952218Y-15127329D01*
X8952218Y-15127329D02*
X8961741Y-15165424D01*
X8961741Y-15165424D02*
X8961741Y-15213043D01*
X8961741Y-15213043D02*
X8952218Y-15251138D01*
X8952218Y-15251138D02*
X8942694Y-15270186D01*
X8942694Y-15270186D02*
X8933170Y-15279710D01*
X8933170Y-15279710D02*
X8914122Y-15289234D01*
X8914122Y-15289234D02*
X8895075Y-15289234D01*
X8895075Y-15289234D02*
X8876027Y-15279710D01*
X8876027Y-15279710D02*
X8866503Y-15270186D01*
X8866503Y-15270186D02*
X8856980Y-15251138D01*
X8856980Y-15251138D02*
X8847456Y-15213043D01*
X8847456Y-15213043D02*
X8847456Y-15165424D01*
X8847456Y-15165424D02*
X8856980Y-15127329D01*
X8856980Y-15127329D02*
X8866503Y-15108281D01*
X8866503Y-15108281D02*
X8876027Y-15098758D01*
X8876027Y-15098758D02*
X8895075Y-15089234D01*
X9199837Y-15289234D02*
X9199837Y-15089234D01*
X9285551Y-15289234D02*
X9285551Y-15184472D01*
X9285551Y-15184472D02*
X9276027Y-15165424D01*
X9276027Y-15165424D02*
X9256980Y-15155900D01*
X9256980Y-15155900D02*
X9228408Y-15155900D01*
X9228408Y-15155900D02*
X9209361Y-15165424D01*
X9209361Y-15165424D02*
X9199837Y-15174948D01*
X9409361Y-15289234D02*
X9390313Y-15279710D01*
X9390313Y-15279710D02*
X9380789Y-15270186D01*
X9380789Y-15270186D02*
X9371265Y-15251138D01*
X9371265Y-15251138D02*
X9371265Y-15193996D01*
X9371265Y-15193996D02*
X9380789Y-15174948D01*
X9380789Y-15174948D02*
X9390313Y-15165424D01*
X9390313Y-15165424D02*
X9409361Y-15155900D01*
X9409361Y-15155900D02*
X9437932Y-15155900D01*
X9437932Y-15155900D02*
X9456980Y-15165424D01*
X9456980Y-15165424D02*
X9466503Y-15174948D01*
X9466503Y-15174948D02*
X9476027Y-15193996D01*
X9476027Y-15193996D02*
X9476027Y-15251138D01*
X9476027Y-15251138D02*
X9466503Y-15270186D01*
X9466503Y-15270186D02*
X9456980Y-15279710D01*
X9456980Y-15279710D02*
X9437932Y-15289234D01*
X9437932Y-15289234D02*
X9409361Y-15289234D01*
X9590313Y-15289234D02*
X9571265Y-15279710D01*
X9571265Y-15279710D02*
X9561742Y-15260662D01*
X9561742Y-15260662D02*
X9561742Y-15089234D01*
X9742694Y-15279710D02*
X9723646Y-15289234D01*
X9723646Y-15289234D02*
X9685551Y-15289234D01*
X9685551Y-15289234D02*
X9666503Y-15279710D01*
X9666503Y-15279710D02*
X9656980Y-15260662D01*
X9656980Y-15260662D02*
X9656980Y-15184472D01*
X9656980Y-15184472D02*
X9666503Y-15165424D01*
X9666503Y-15165424D02*
X9685551Y-15155900D01*
X9685551Y-15155900D02*
X9723646Y-15155900D01*
X9723646Y-15155900D02*
X9742694Y-15165424D01*
X9742694Y-15165424D02*
X9752218Y-15184472D01*
X9752218Y-15184472D02*
X9752218Y-15203519D01*
X9752218Y-15203519D02*
X9656980Y-15222567D01*
X9828408Y-15279710D02*
X9847456Y-15289234D01*
X9847456Y-15289234D02*
X9885551Y-15289234D01*
X9885551Y-15289234D02*
X9904599Y-15279710D01*
X9904599Y-15279710D02*
X9914123Y-15260662D01*
X9914123Y-15260662D02*
X9914123Y-15251138D01*
X9914123Y-15251138D02*
X9904599Y-15232091D01*
X9904599Y-15232091D02*
X9885551Y-15222567D01*
X9885551Y-15222567D02*
X9856980Y-15222567D01*
X9856980Y-15222567D02*
X9837932Y-15213043D01*
X9837932Y-15213043D02*
X9828408Y-15193996D01*
X9828408Y-15193996D02*
X9828408Y-15184472D01*
X9828408Y-15184472D02*
X9837932Y-15165424D01*
X9837932Y-15165424D02*
X9856980Y-15155900D01*
X9856980Y-15155900D02*
X9885551Y-15155900D01*
X9885551Y-15155900D02*
X9904599Y-15165424D01*
X9980789Y-15365424D02*
X9990313Y-15355900D01*
X9990313Y-15355900D02*
X10009361Y-15327329D01*
X10009361Y-15327329D02*
X10018884Y-15308281D01*
X10018884Y-15308281D02*
X10028408Y-15279710D01*
X10028408Y-15279710D02*
X10037932Y-15232091D01*
X10037932Y-15232091D02*
X10037932Y-15193996D01*
X10037932Y-15193996D02*
X10028408Y-15146377D01*
X10028408Y-15146377D02*
X10018884Y-15117805D01*
X10018884Y-15117805D02*
X10009361Y-15098758D01*
X10009361Y-15098758D02*
X9990313Y-15070186D01*
X9990313Y-15070186D02*
X9980789Y-15060662D01*
D13*
X4960640Y-15407140D02*
X4960640Y-15516360D01*
X4906030Y-15461750D02*
X5015250Y-15461750D01*
D11*
X5380789Y-15553234D02*
X5266503Y-15553234D01*
X5323646Y-15553234D02*
X5323646Y-15353234D01*
X5323646Y-15353234D02*
X5304598Y-15381805D01*
X5304598Y-15381805D02*
X5285551Y-15400853D01*
X5285551Y-15400853D02*
X5266503Y-15410377D01*
X5466503Y-15534186D02*
X5476027Y-15543710D01*
X5476027Y-15543710D02*
X5466503Y-15553234D01*
X5466503Y-15553234D02*
X5456979Y-15543710D01*
X5456979Y-15543710D02*
X5466503Y-15534186D01*
X5466503Y-15534186D02*
X5466503Y-15553234D01*
X5599836Y-15353234D02*
X5618884Y-15353234D01*
X5618884Y-15353234D02*
X5637932Y-15362758D01*
X5637932Y-15362758D02*
X5647455Y-15372281D01*
X5647455Y-15372281D02*
X5656979Y-15391329D01*
X5656979Y-15391329D02*
X5666503Y-15429424D01*
X5666503Y-15429424D02*
X5666503Y-15477043D01*
X5666503Y-15477043D02*
X5656979Y-15515138D01*
X5656979Y-15515138D02*
X5647455Y-15534186D01*
X5647455Y-15534186D02*
X5637932Y-15543710D01*
X5637932Y-15543710D02*
X5618884Y-15553234D01*
X5618884Y-15553234D02*
X5599836Y-15553234D01*
X5599836Y-15553234D02*
X5580789Y-15543710D01*
X5580789Y-15543710D02*
X5571265Y-15534186D01*
X5571265Y-15534186D02*
X5561741Y-15515138D01*
X5561741Y-15515138D02*
X5552217Y-15477043D01*
X5552217Y-15477043D02*
X5552217Y-15429424D01*
X5552217Y-15429424D02*
X5561741Y-15391329D01*
X5561741Y-15391329D02*
X5571265Y-15372281D01*
X5571265Y-15372281D02*
X5580789Y-15362758D01*
X5580789Y-15362758D02*
X5599836Y-15353234D01*
X5761741Y-15553234D02*
X5799836Y-15553234D01*
X5799836Y-15553234D02*
X5818884Y-15543710D01*
X5818884Y-15543710D02*
X5828408Y-15534186D01*
X5828408Y-15534186D02*
X5847455Y-15505615D01*
X5847455Y-15505615D02*
X5856979Y-15467519D01*
X5856979Y-15467519D02*
X5856979Y-15391329D01*
X5856979Y-15391329D02*
X5847455Y-15372281D01*
X5847455Y-15372281D02*
X5837932Y-15362758D01*
X5837932Y-15362758D02*
X5818884Y-15353234D01*
X5818884Y-15353234D02*
X5780789Y-15353234D01*
X5780789Y-15353234D02*
X5761741Y-15362758D01*
X5761741Y-15362758D02*
X5752217Y-15372281D01*
X5752217Y-15372281D02*
X5742693Y-15391329D01*
X5742693Y-15391329D02*
X5742693Y-15438948D01*
X5742693Y-15438948D02*
X5752217Y-15457996D01*
X5752217Y-15457996D02*
X5761741Y-15467519D01*
X5761741Y-15467519D02*
X5780789Y-15477043D01*
X5780789Y-15477043D02*
X5818884Y-15477043D01*
X5818884Y-15477043D02*
X5837932Y-15467519D01*
X5837932Y-15467519D02*
X5847455Y-15457996D01*
X5847455Y-15457996D02*
X5856979Y-15438948D01*
X5933170Y-15372281D02*
X5942693Y-15362758D01*
X5942693Y-15362758D02*
X5961741Y-15353234D01*
X5961741Y-15353234D02*
X6009360Y-15353234D01*
X6009360Y-15353234D02*
X6028408Y-15362758D01*
X6028408Y-15362758D02*
X6037932Y-15372281D01*
X6037932Y-15372281D02*
X6047455Y-15391329D01*
X6047455Y-15391329D02*
X6047455Y-15410377D01*
X6047455Y-15410377D02*
X6037932Y-15438948D01*
X6037932Y-15438948D02*
X5923646Y-15553234D01*
X5923646Y-15553234D02*
X6047455Y-15553234D01*
X6133170Y-15553234D02*
X6133170Y-15419900D01*
X6133170Y-15438948D02*
X6142693Y-15429424D01*
X6142693Y-15429424D02*
X6161741Y-15419900D01*
X6161741Y-15419900D02*
X6190313Y-15419900D01*
X6190313Y-15419900D02*
X6209360Y-15429424D01*
X6209360Y-15429424D02*
X6218884Y-15448472D01*
X6218884Y-15448472D02*
X6218884Y-15553234D01*
X6218884Y-15448472D02*
X6228408Y-15429424D01*
X6228408Y-15429424D02*
X6247455Y-15419900D01*
X6247455Y-15419900D02*
X6276027Y-15419900D01*
X6276027Y-15419900D02*
X6295074Y-15429424D01*
X6295074Y-15429424D02*
X6304598Y-15448472D01*
X6304598Y-15448472D02*
X6304598Y-15553234D01*
X6399836Y-15553234D02*
X6399836Y-15419900D01*
X6399836Y-15438948D02*
X6409360Y-15429424D01*
X6409360Y-15429424D02*
X6428408Y-15419900D01*
X6428408Y-15419900D02*
X6456979Y-15419900D01*
X6456979Y-15419900D02*
X6476027Y-15429424D01*
X6476027Y-15429424D02*
X6485551Y-15448472D01*
X6485551Y-15448472D02*
X6485551Y-15553234D01*
X6485551Y-15448472D02*
X6495074Y-15429424D01*
X6495074Y-15429424D02*
X6514122Y-15419900D01*
X6514122Y-15419900D02*
X6542693Y-15419900D01*
X6542693Y-15419900D02*
X6561741Y-15429424D01*
X6561741Y-15429424D02*
X6571265Y-15448472D01*
X6571265Y-15448472D02*
X6571265Y-15553234D01*
X6961741Y-15343710D02*
X6790313Y-15600853D01*
X7218884Y-15353234D02*
X7237932Y-15353234D01*
X7237932Y-15353234D02*
X7256979Y-15362758D01*
X7256979Y-15362758D02*
X7266503Y-15372281D01*
X7266503Y-15372281D02*
X7276027Y-15391329D01*
X7276027Y-15391329D02*
X7285551Y-15429424D01*
X7285551Y-15429424D02*
X7285551Y-15477043D01*
X7285551Y-15477043D02*
X7276027Y-15515138D01*
X7276027Y-15515138D02*
X7266503Y-15534186D01*
X7266503Y-15534186D02*
X7256979Y-15543710D01*
X7256979Y-15543710D02*
X7237932Y-15553234D01*
X7237932Y-15553234D02*
X7218884Y-15553234D01*
X7218884Y-15553234D02*
X7199836Y-15543710D01*
X7199836Y-15543710D02*
X7190313Y-15534186D01*
X7190313Y-15534186D02*
X7180789Y-15515138D01*
X7180789Y-15515138D02*
X7171265Y-15477043D01*
X7171265Y-15477043D02*
X7171265Y-15429424D01*
X7171265Y-15429424D02*
X7180789Y-15391329D01*
X7180789Y-15391329D02*
X7190313Y-15372281D01*
X7190313Y-15372281D02*
X7199836Y-15362758D01*
X7199836Y-15362758D02*
X7218884Y-15353234D01*
X7371265Y-15534186D02*
X7380789Y-15543710D01*
X7380789Y-15543710D02*
X7371265Y-15553234D01*
X7371265Y-15553234D02*
X7361741Y-15543710D01*
X7361741Y-15543710D02*
X7371265Y-15534186D01*
X7371265Y-15534186D02*
X7371265Y-15553234D01*
X7504598Y-15353234D02*
X7523646Y-15353234D01*
X7523646Y-15353234D02*
X7542694Y-15362758D01*
X7542694Y-15362758D02*
X7552217Y-15372281D01*
X7552217Y-15372281D02*
X7561741Y-15391329D01*
X7561741Y-15391329D02*
X7571265Y-15429424D01*
X7571265Y-15429424D02*
X7571265Y-15477043D01*
X7571265Y-15477043D02*
X7561741Y-15515138D01*
X7561741Y-15515138D02*
X7552217Y-15534186D01*
X7552217Y-15534186D02*
X7542694Y-15543710D01*
X7542694Y-15543710D02*
X7523646Y-15553234D01*
X7523646Y-15553234D02*
X7504598Y-15553234D01*
X7504598Y-15553234D02*
X7485551Y-15543710D01*
X7485551Y-15543710D02*
X7476027Y-15534186D01*
X7476027Y-15534186D02*
X7466503Y-15515138D01*
X7466503Y-15515138D02*
X7456979Y-15477043D01*
X7456979Y-15477043D02*
X7456979Y-15429424D01*
X7456979Y-15429424D02*
X7466503Y-15391329D01*
X7466503Y-15391329D02*
X7476027Y-15372281D01*
X7476027Y-15372281D02*
X7485551Y-15362758D01*
X7485551Y-15362758D02*
X7504598Y-15353234D01*
X7742694Y-15419900D02*
X7742694Y-15553234D01*
X7695075Y-15343710D02*
X7647456Y-15486567D01*
X7647456Y-15486567D02*
X7771265Y-15486567D01*
X7828408Y-15353234D02*
X7952217Y-15353234D01*
X7952217Y-15353234D02*
X7885551Y-15429424D01*
X7885551Y-15429424D02*
X7914122Y-15429424D01*
X7914122Y-15429424D02*
X7933170Y-15438948D01*
X7933170Y-15438948D02*
X7942694Y-15448472D01*
X7942694Y-15448472D02*
X7952217Y-15467519D01*
X7952217Y-15467519D02*
X7952217Y-15515138D01*
X7952217Y-15515138D02*
X7942694Y-15534186D01*
X7942694Y-15534186D02*
X7933170Y-15543710D01*
X7933170Y-15543710D02*
X7914122Y-15553234D01*
X7914122Y-15553234D02*
X7856979Y-15553234D01*
X7856979Y-15553234D02*
X7837932Y-15543710D01*
X7837932Y-15543710D02*
X7828408Y-15534186D01*
X8076027Y-15353234D02*
X8095075Y-15353234D01*
X8095075Y-15353234D02*
X8114122Y-15362758D01*
X8114122Y-15362758D02*
X8123646Y-15372281D01*
X8123646Y-15372281D02*
X8133170Y-15391329D01*
X8133170Y-15391329D02*
X8142694Y-15429424D01*
X8142694Y-15429424D02*
X8142694Y-15477043D01*
X8142694Y-15477043D02*
X8133170Y-15515138D01*
X8133170Y-15515138D02*
X8123646Y-15534186D01*
X8123646Y-15534186D02*
X8114122Y-15543710D01*
X8114122Y-15543710D02*
X8095075Y-15553234D01*
X8095075Y-15553234D02*
X8076027Y-15553234D01*
X8076027Y-15553234D02*
X8056979Y-15543710D01*
X8056979Y-15543710D02*
X8047456Y-15534186D01*
X8047456Y-15534186D02*
X8037932Y-15515138D01*
X8037932Y-15515138D02*
X8028408Y-15477043D01*
X8028408Y-15477043D02*
X8028408Y-15429424D01*
X8028408Y-15429424D02*
X8037932Y-15391329D01*
X8037932Y-15391329D02*
X8047456Y-15372281D01*
X8047456Y-15372281D02*
X8056979Y-15362758D01*
X8056979Y-15362758D02*
X8076027Y-15353234D01*
X8218884Y-15353234D02*
X8218884Y-15391329D01*
X8295075Y-15353234D02*
X8295075Y-15391329D01*
X8590313Y-15629424D02*
X8580789Y-15619900D01*
X8580789Y-15619900D02*
X8561741Y-15591329D01*
X8561741Y-15591329D02*
X8552218Y-15572281D01*
X8552218Y-15572281D02*
X8542694Y-15543710D01*
X8542694Y-15543710D02*
X8533170Y-15496091D01*
X8533170Y-15496091D02*
X8533170Y-15457996D01*
X8533170Y-15457996D02*
X8542694Y-15410377D01*
X8542694Y-15410377D02*
X8552218Y-15381805D01*
X8552218Y-15381805D02*
X8561741Y-15362758D01*
X8561741Y-15362758D02*
X8580789Y-15334186D01*
X8580789Y-15334186D02*
X8590313Y-15324662D01*
X8656980Y-15372281D02*
X8666503Y-15362758D01*
X8666503Y-15362758D02*
X8685551Y-15353234D01*
X8685551Y-15353234D02*
X8733170Y-15353234D01*
X8733170Y-15353234D02*
X8752218Y-15362758D01*
X8752218Y-15362758D02*
X8761741Y-15372281D01*
X8761741Y-15372281D02*
X8771265Y-15391329D01*
X8771265Y-15391329D02*
X8771265Y-15410377D01*
X8771265Y-15410377D02*
X8761741Y-15438948D01*
X8761741Y-15438948D02*
X8647456Y-15553234D01*
X8647456Y-15553234D02*
X8771265Y-15553234D01*
X8942694Y-15419900D02*
X8942694Y-15553234D01*
X8895075Y-15343710D02*
X8847456Y-15486567D01*
X8847456Y-15486567D02*
X8971265Y-15486567D01*
X9199837Y-15553234D02*
X9199837Y-15353234D01*
X9285551Y-15553234D02*
X9285551Y-15448472D01*
X9285551Y-15448472D02*
X9276027Y-15429424D01*
X9276027Y-15429424D02*
X9256980Y-15419900D01*
X9256980Y-15419900D02*
X9228408Y-15419900D01*
X9228408Y-15419900D02*
X9209361Y-15429424D01*
X9209361Y-15429424D02*
X9199837Y-15438948D01*
X9409361Y-15553234D02*
X9390313Y-15543710D01*
X9390313Y-15543710D02*
X9380789Y-15534186D01*
X9380789Y-15534186D02*
X9371265Y-15515138D01*
X9371265Y-15515138D02*
X9371265Y-15457996D01*
X9371265Y-15457996D02*
X9380789Y-15438948D01*
X9380789Y-15438948D02*
X9390313Y-15429424D01*
X9390313Y-15429424D02*
X9409361Y-15419900D01*
X9409361Y-15419900D02*
X9437932Y-15419900D01*
X9437932Y-15419900D02*
X9456980Y-15429424D01*
X9456980Y-15429424D02*
X9466503Y-15438948D01*
X9466503Y-15438948D02*
X9476027Y-15457996D01*
X9476027Y-15457996D02*
X9476027Y-15515138D01*
X9476027Y-15515138D02*
X9466503Y-15534186D01*
X9466503Y-15534186D02*
X9456980Y-15543710D01*
X9456980Y-15543710D02*
X9437932Y-15553234D01*
X9437932Y-15553234D02*
X9409361Y-15553234D01*
X9590313Y-15553234D02*
X9571265Y-15543710D01*
X9571265Y-15543710D02*
X9561742Y-15524662D01*
X9561742Y-15524662D02*
X9561742Y-15353234D01*
X9742694Y-15543710D02*
X9723646Y-15553234D01*
X9723646Y-15553234D02*
X9685551Y-15553234D01*
X9685551Y-15553234D02*
X9666503Y-15543710D01*
X9666503Y-15543710D02*
X9656980Y-15524662D01*
X9656980Y-15524662D02*
X9656980Y-15448472D01*
X9656980Y-15448472D02*
X9666503Y-15429424D01*
X9666503Y-15429424D02*
X9685551Y-15419900D01*
X9685551Y-15419900D02*
X9723646Y-15419900D01*
X9723646Y-15419900D02*
X9742694Y-15429424D01*
X9742694Y-15429424D02*
X9752218Y-15448472D01*
X9752218Y-15448472D02*
X9752218Y-15467519D01*
X9752218Y-15467519D02*
X9656980Y-15486567D01*
X9828408Y-15543710D02*
X9847456Y-15553234D01*
X9847456Y-15553234D02*
X9885551Y-15553234D01*
X9885551Y-15553234D02*
X9904599Y-15543710D01*
X9904599Y-15543710D02*
X9914123Y-15524662D01*
X9914123Y-15524662D02*
X9914123Y-15515138D01*
X9914123Y-15515138D02*
X9904599Y-15496091D01*
X9904599Y-15496091D02*
X9885551Y-15486567D01*
X9885551Y-15486567D02*
X9856980Y-15486567D01*
X9856980Y-15486567D02*
X9837932Y-15477043D01*
X9837932Y-15477043D02*
X9828408Y-15457996D01*
X9828408Y-15457996D02*
X9828408Y-15448472D01*
X9828408Y-15448472D02*
X9837932Y-15429424D01*
X9837932Y-15429424D02*
X9856980Y-15419900D01*
X9856980Y-15419900D02*
X9885551Y-15419900D01*
X9885551Y-15419900D02*
X9904599Y-15429424D01*
X9980789Y-15629424D02*
X9990313Y-15619900D01*
X9990313Y-15619900D02*
X10009361Y-15591329D01*
X10009361Y-15591329D02*
X10018884Y-15572281D01*
X10018884Y-15572281D02*
X10028408Y-15543710D01*
X10028408Y-15543710D02*
X10037932Y-15496091D01*
X10037932Y-15496091D02*
X10037932Y-15457996D01*
X10037932Y-15457996D02*
X10028408Y-15410377D01*
X10028408Y-15410377D02*
X10018884Y-15381805D01*
X10018884Y-15381805D02*
X10009361Y-15362758D01*
X10009361Y-15362758D02*
X9990313Y-15334186D01*
X9990313Y-15334186D02*
X9980789Y-15324662D01*
M02*
