%TF.GenerationSoftware,KiCad,Pcbnew,8.0.2*%
%TF.CreationDate,2024-06-05T18:53:59-04:00*%
%TF.ProjectId,CSP_macropad_arduino,4353505f-6d61-4637-926f-7061645f6172,rev?*%
%TF.SameCoordinates,Original*%
%TF.FileFunction,Drillmap*%
%TF.FilePolarity,Positive*%
%FSLAX45Y45*%
G04 Gerber Fmt 4.5, Leading zero omitted, Abs format (unit mm)*
G04 Created by KiCad (PCBNEW 8.0.2) date 2024-06-05 18:53:59*
%MOMM*%
%LPD*%
G01*
G04 APERTURE LIST*
%ADD10C,0.050000*%
%ADD11C,0.200000*%
%ADD12C,0.150000*%
%ADD13C,0.100000*%
%ADD14C,0.175000*%
%ADD15C,0.305000*%
%ADD16C,0.400000*%
G04 APERTURE END LIST*
D10*
X15974575Y-13814875D02*
G75*
G02*
X15498200Y-14291250I-476375J0D01*
G01*
X15974575Y-2381875D02*
X15974575Y-13814875D01*
X5494125Y-1905500D02*
X15498200Y-1905500D01*
X5017750Y-2381875D02*
G75*
G02*
X5494125Y-1905500I476375J0D01*
G01*
X5017750Y-13814875D02*
X5017750Y-2381875D01*
X15498200Y-1905500D02*
G75*
G02*
X15974580Y-2381875I10J-476370D01*
G01*
X5494125Y-14291250D02*
G75*
G02*
X5017750Y-13814875I0J476375D01*
G01*
X15498200Y-14291250D02*
X5494125Y-14291250D01*
D11*
D12*
X6282008Y-6374250D02*
X6432008Y-6524250D01*
X6432008Y-6374250D02*
X6282008Y-6524250D01*
D13*
X6292008Y-6524250D02*
X6422008Y-6524250D01*
X6422008Y-6374250D02*
G75*
G02*
X6422008Y-6524250I0J-75000D01*
G01*
X6422008Y-6374250D02*
X6292008Y-6374250D01*
X6292008Y-6374250D02*
G75*
G03*
X6292008Y-6524250I0J-75000D01*
G01*
D12*
X6282008Y-7494250D02*
X6432008Y-7644250D01*
X6432008Y-7494250D02*
X6282008Y-7644250D01*
D13*
X6292008Y-7644250D02*
X6422008Y-7644250D01*
X6422008Y-7494250D02*
G75*
G02*
X6422008Y-7644250I0J-75000D01*
G01*
X6422008Y-7494250D02*
X6292008Y-7494250D01*
X6292008Y-7494250D02*
G75*
G03*
X6292008Y-7644250I0J-75000D01*
G01*
D12*
X6282008Y-10495250D02*
X6432008Y-10645250D01*
X6432008Y-10495250D02*
X6282008Y-10645250D01*
D13*
X6292008Y-10645250D02*
X6422008Y-10645250D01*
X6422008Y-10495250D02*
G75*
G02*
X6422008Y-10645250I0J-75000D01*
G01*
X6422008Y-10495250D02*
X6292008Y-10495250D01*
X6292008Y-10495250D02*
G75*
G03*
X6292008Y-10645250I0J-75000D01*
G01*
D12*
X6282008Y-11615250D02*
X6432008Y-11765250D01*
X6432008Y-11615250D02*
X6282008Y-11765250D01*
D13*
X6292008Y-11765250D02*
X6422008Y-11765250D01*
X6422008Y-11615250D02*
G75*
G02*
X6422008Y-11765250I0J-75000D01*
G01*
X6422008Y-11615250D02*
X6292008Y-11615250D01*
X6292008Y-11615250D02*
G75*
G03*
X6292008Y-11765250I0J-75000D01*
G01*
D14*
X8154250Y-3366250D02*
G75*
G02*
X7979250Y-3366250I-87500J0D01*
G01*
X7979250Y-3366250D02*
G75*
G02*
X8154250Y-3366250I87500J0D01*
G01*
X8154250Y-5271750D02*
G75*
G02*
X7979250Y-5271750I-87500J0D01*
G01*
X7979250Y-5271750D02*
G75*
G02*
X8154250Y-5271750I87500J0D01*
G01*
X8154250Y-7177250D02*
G75*
G02*
X7979250Y-7177250I-87500J0D01*
G01*
X7979250Y-7177250D02*
G75*
G02*
X8154250Y-7177250I87500J0D01*
G01*
X8154250Y-9082750D02*
G75*
G02*
X7979250Y-9082750I-87500J0D01*
G01*
X7979250Y-9082750D02*
G75*
G02*
X8154250Y-9082750I87500J0D01*
G01*
X8154250Y-10988250D02*
G75*
G02*
X7979250Y-10988250I-87500J0D01*
G01*
X7979250Y-10988250D02*
G75*
G02*
X8154250Y-10988250I87500J0D01*
G01*
X8154250Y-12893750D02*
G75*
G02*
X7979250Y-12893750I-87500J0D01*
G01*
X7979250Y-12893750D02*
G75*
G02*
X8154250Y-12893750I87500J0D01*
G01*
X9170250Y-3366250D02*
G75*
G02*
X8995250Y-3366250I-87500J0D01*
G01*
X8995250Y-3366250D02*
G75*
G02*
X9170250Y-3366250I87500J0D01*
G01*
X9170250Y-5271750D02*
G75*
G02*
X8995250Y-5271750I-87500J0D01*
G01*
X8995250Y-5271750D02*
G75*
G02*
X9170250Y-5271750I87500J0D01*
G01*
X9170250Y-7177250D02*
G75*
G02*
X8995250Y-7177250I-87500J0D01*
G01*
X8995250Y-7177250D02*
G75*
G02*
X9170250Y-7177250I87500J0D01*
G01*
X9170250Y-9082750D02*
G75*
G02*
X8995250Y-9082750I-87500J0D01*
G01*
X8995250Y-9082750D02*
G75*
G02*
X9170250Y-9082750I87500J0D01*
G01*
X9170250Y-10988250D02*
G75*
G02*
X8995250Y-10988250I-87500J0D01*
G01*
X8995250Y-10988250D02*
G75*
G02*
X9170250Y-10988250I87500J0D01*
G01*
X9170250Y-12893750D02*
G75*
G02*
X8995250Y-12893750I-87500J0D01*
G01*
X8995250Y-12893750D02*
G75*
G02*
X9170250Y-12893750I87500J0D01*
G01*
X10059750Y-3366250D02*
G75*
G02*
X9884750Y-3366250I-87500J0D01*
G01*
X9884750Y-3366250D02*
G75*
G02*
X10059750Y-3366250I87500J0D01*
G01*
X10059750Y-5271750D02*
G75*
G02*
X9884750Y-5271750I-87500J0D01*
G01*
X9884750Y-5271750D02*
G75*
G02*
X10059750Y-5271750I87500J0D01*
G01*
X10059750Y-7177250D02*
G75*
G02*
X9884750Y-7177250I-87500J0D01*
G01*
X9884750Y-7177250D02*
G75*
G02*
X10059750Y-7177250I87500J0D01*
G01*
X10059750Y-9082750D02*
G75*
G02*
X9884750Y-9082750I-87500J0D01*
G01*
X9884750Y-9082750D02*
G75*
G02*
X10059750Y-9082750I87500J0D01*
G01*
X10059750Y-10988250D02*
G75*
G02*
X9884750Y-10988250I-87500J0D01*
G01*
X9884750Y-10988250D02*
G75*
G02*
X10059750Y-10988250I87500J0D01*
G01*
X11012500Y-12893750D02*
G75*
G02*
X10837500Y-12893750I-87500J0D01*
G01*
X10837500Y-12893750D02*
G75*
G02*
X11012500Y-12893750I87500J0D01*
G01*
X11075750Y-3366250D02*
G75*
G02*
X10900750Y-3366250I-87500J0D01*
G01*
X10900750Y-3366250D02*
G75*
G02*
X11075750Y-3366250I87500J0D01*
G01*
X11075750Y-5271750D02*
G75*
G02*
X10900750Y-5271750I-87500J0D01*
G01*
X10900750Y-5271750D02*
G75*
G02*
X11075750Y-5271750I87500J0D01*
G01*
X11075750Y-7177250D02*
G75*
G02*
X10900750Y-7177250I-87500J0D01*
G01*
X10900750Y-7177250D02*
G75*
G02*
X11075750Y-7177250I87500J0D01*
G01*
X11075750Y-9082750D02*
G75*
G02*
X10900750Y-9082750I-87500J0D01*
G01*
X10900750Y-9082750D02*
G75*
G02*
X11075750Y-9082750I87500J0D01*
G01*
X11075750Y-10988250D02*
G75*
G02*
X10900750Y-10988250I-87500J0D01*
G01*
X10900750Y-10988250D02*
G75*
G02*
X11075750Y-10988250I87500J0D01*
G01*
X11965250Y-3366250D02*
G75*
G02*
X11790250Y-3366250I-87500J0D01*
G01*
X11790250Y-3366250D02*
G75*
G02*
X11965250Y-3366250I87500J0D01*
G01*
X11965250Y-5271750D02*
G75*
G02*
X11790250Y-5271750I-87500J0D01*
G01*
X11790250Y-5271750D02*
G75*
G02*
X11965250Y-5271750I87500J0D01*
G01*
X11965250Y-7177250D02*
G75*
G02*
X11790250Y-7177250I-87500J0D01*
G01*
X11790250Y-7177250D02*
G75*
G02*
X11965250Y-7177250I87500J0D01*
G01*
X11965250Y-9082750D02*
G75*
G02*
X11790250Y-9082750I-87500J0D01*
G01*
X11790250Y-9082750D02*
G75*
G02*
X11965250Y-9082750I87500J0D01*
G01*
X11965250Y-10988250D02*
G75*
G02*
X11790250Y-10988250I-87500J0D01*
G01*
X11790250Y-10988250D02*
G75*
G02*
X11965250Y-10988250I87500J0D01*
G01*
X12028500Y-12893750D02*
G75*
G02*
X11853500Y-12893750I-87500J0D01*
G01*
X11853500Y-12893750D02*
G75*
G02*
X12028500Y-12893750I87500J0D01*
G01*
X12981250Y-3366250D02*
G75*
G02*
X12806250Y-3366250I-87500J0D01*
G01*
X12806250Y-3366250D02*
G75*
G02*
X12981250Y-3366250I87500J0D01*
G01*
X12981250Y-5271750D02*
G75*
G02*
X12806250Y-5271750I-87500J0D01*
G01*
X12806250Y-5271750D02*
G75*
G02*
X12981250Y-5271750I87500J0D01*
G01*
X12981250Y-7177250D02*
G75*
G02*
X12806250Y-7177250I-87500J0D01*
G01*
X12806250Y-7177250D02*
G75*
G02*
X12981250Y-7177250I87500J0D01*
G01*
X12981250Y-9082750D02*
G75*
G02*
X12806250Y-9082750I-87500J0D01*
G01*
X12806250Y-9082750D02*
G75*
G02*
X12981250Y-9082750I87500J0D01*
G01*
X12981250Y-10988250D02*
G75*
G02*
X12806250Y-10988250I-87500J0D01*
G01*
X12806250Y-10988250D02*
G75*
G02*
X12981250Y-10988250I87500J0D01*
G01*
X13870750Y-3366250D02*
G75*
G02*
X13695750Y-3366250I-87500J0D01*
G01*
X13695750Y-3366250D02*
G75*
G02*
X13870750Y-3366250I87500J0D01*
G01*
X13870750Y-5271750D02*
G75*
G02*
X13695750Y-5271750I-87500J0D01*
G01*
X13695750Y-5271750D02*
G75*
G02*
X13870750Y-5271750I87500J0D01*
G01*
X13870750Y-7177250D02*
G75*
G02*
X13695750Y-7177250I-87500J0D01*
G01*
X13695750Y-7177250D02*
G75*
G02*
X13870750Y-7177250I87500J0D01*
G01*
X13870750Y-9082750D02*
G75*
G02*
X13695750Y-9082750I-87500J0D01*
G01*
X13695750Y-9082750D02*
G75*
G02*
X13870750Y-9082750I87500J0D01*
G01*
X13870750Y-11941000D02*
G75*
G02*
X13695750Y-11941000I-87500J0D01*
G01*
X13695750Y-11941000D02*
G75*
G02*
X13870750Y-11941000I87500J0D01*
G01*
X14886750Y-3366250D02*
G75*
G02*
X14711750Y-3366250I-87500J0D01*
G01*
X14711750Y-3366250D02*
G75*
G02*
X14886750Y-3366250I87500J0D01*
G01*
X14886750Y-5271750D02*
G75*
G02*
X14711750Y-5271750I-87500J0D01*
G01*
X14711750Y-5271750D02*
G75*
G02*
X14886750Y-5271750I87500J0D01*
G01*
X14886750Y-7177250D02*
G75*
G02*
X14711750Y-7177250I-87500J0D01*
G01*
X14711750Y-7177250D02*
G75*
G02*
X14886750Y-7177250I87500J0D01*
G01*
X14886750Y-9082750D02*
G75*
G02*
X14711750Y-9082750I-87500J0D01*
G01*
X14711750Y-9082750D02*
G75*
G02*
X14886750Y-9082750I87500J0D01*
G01*
X14886750Y-11941000D02*
G75*
G02*
X14711750Y-11941000I-87500J0D01*
G01*
X14711750Y-11941000D02*
G75*
G02*
X14886750Y-11941000I87500J0D01*
G01*
D15*
X8193750Y-2959750D02*
X8193750Y-3264750D01*
X8041250Y-3112250D02*
X8346250Y-3112250D01*
X8193750Y-4865250D02*
X8193750Y-5170250D01*
X8041250Y-5017750D02*
X8346250Y-5017750D01*
X8193750Y-6770750D02*
X8193750Y-7075750D01*
X8041250Y-6923250D02*
X8346250Y-6923250D01*
X8193750Y-8676250D02*
X8193750Y-8981250D01*
X8041250Y-8828750D02*
X8346250Y-8828750D01*
X8193750Y-10581750D02*
X8193750Y-10886750D01*
X8041250Y-10734250D02*
X8346250Y-10734250D01*
X8193750Y-12487250D02*
X8193750Y-12792250D01*
X8041250Y-12639750D02*
X8346250Y-12639750D01*
X8828750Y-2705750D02*
X8828750Y-3010750D01*
X8676250Y-2858250D02*
X8981250Y-2858250D01*
X8828750Y-4611250D02*
X8828750Y-4916250D01*
X8676250Y-4763750D02*
X8981250Y-4763750D01*
X8828750Y-6516750D02*
X8828750Y-6821750D01*
X8676250Y-6669250D02*
X8981250Y-6669250D01*
X8828750Y-8422250D02*
X8828750Y-8727250D01*
X8676250Y-8574750D02*
X8981250Y-8574750D01*
X8828750Y-10327750D02*
X8828750Y-10632750D01*
X8676250Y-10480250D02*
X8981250Y-10480250D01*
X8828750Y-12233250D02*
X8828750Y-12538250D01*
X8676250Y-12385750D02*
X8981250Y-12385750D01*
X10099250Y-2959750D02*
X10099250Y-3264750D01*
X9946750Y-3112250D02*
X10251750Y-3112250D01*
X10099250Y-4865250D02*
X10099250Y-5170250D01*
X9946750Y-5017750D02*
X10251750Y-5017750D01*
X10099250Y-6770750D02*
X10099250Y-7075750D01*
X9946750Y-6923250D02*
X10251750Y-6923250D01*
X10099250Y-8676250D02*
X10099250Y-8981250D01*
X9946750Y-8828750D02*
X10251750Y-8828750D01*
X10099250Y-10581750D02*
X10099250Y-10886750D01*
X9946750Y-10734250D02*
X10251750Y-10734250D01*
X10734250Y-2705750D02*
X10734250Y-3010750D01*
X10581750Y-2858250D02*
X10886750Y-2858250D01*
X10734250Y-4611250D02*
X10734250Y-4916250D01*
X10581750Y-4763750D02*
X10886750Y-4763750D01*
X10734250Y-6516750D02*
X10734250Y-6821750D01*
X10581750Y-6669250D02*
X10886750Y-6669250D01*
X10734250Y-8422250D02*
X10734250Y-8727250D01*
X10581750Y-8574750D02*
X10886750Y-8574750D01*
X10734250Y-10327750D02*
X10734250Y-10632750D01*
X10581750Y-10480250D02*
X10886750Y-10480250D01*
X11052000Y-12487250D02*
X11052000Y-12792250D01*
X10899500Y-12639750D02*
X11204500Y-12639750D01*
X11687000Y-12233250D02*
X11687000Y-12538250D01*
X11534500Y-12385750D02*
X11839500Y-12385750D01*
X12004750Y-2959750D02*
X12004750Y-3264750D01*
X11852250Y-3112250D02*
X12157250Y-3112250D01*
X12004750Y-4865250D02*
X12004750Y-5170250D01*
X11852250Y-5017750D02*
X12157250Y-5017750D01*
X12004750Y-6770750D02*
X12004750Y-7075750D01*
X11852250Y-6923250D02*
X12157250Y-6923250D01*
X12004750Y-8676250D02*
X12004750Y-8981250D01*
X11852250Y-8828750D02*
X12157250Y-8828750D01*
X12004750Y-10581750D02*
X12004750Y-10886750D01*
X11852250Y-10734250D02*
X12157250Y-10734250D01*
X12639750Y-2705750D02*
X12639750Y-3010750D01*
X12487250Y-2858250D02*
X12792250Y-2858250D01*
X12639750Y-4611250D02*
X12639750Y-4916250D01*
X12487250Y-4763750D02*
X12792250Y-4763750D01*
X12639750Y-6516750D02*
X12639750Y-6821750D01*
X12487250Y-6669250D02*
X12792250Y-6669250D01*
X12639750Y-8422250D02*
X12639750Y-8727250D01*
X12487250Y-8574750D02*
X12792250Y-8574750D01*
X12639750Y-10327750D02*
X12639750Y-10632750D01*
X12487250Y-10480250D02*
X12792250Y-10480250D01*
X13910250Y-2959750D02*
X13910250Y-3264750D01*
X13757750Y-3112250D02*
X14062750Y-3112250D01*
X13910250Y-4865250D02*
X13910250Y-5170250D01*
X13757750Y-5017750D02*
X14062750Y-5017750D01*
X13910250Y-6770750D02*
X13910250Y-7075750D01*
X13757750Y-6923250D02*
X14062750Y-6923250D01*
X13910250Y-8676250D02*
X13910250Y-8981250D01*
X13757750Y-8828750D02*
X14062750Y-8828750D01*
X13910250Y-11534500D02*
X13910250Y-11839500D01*
X13757750Y-11687000D02*
X14062750Y-11687000D01*
X14545250Y-2705750D02*
X14545250Y-3010750D01*
X14392750Y-2858250D02*
X14697750Y-2858250D01*
X14545250Y-4611250D02*
X14545250Y-4916250D01*
X14392750Y-4763750D02*
X14697750Y-4763750D01*
X14545250Y-6516750D02*
X14545250Y-6821750D01*
X14392750Y-6669250D02*
X14697750Y-6669250D01*
X14545250Y-8422250D02*
X14545250Y-8727250D01*
X14392750Y-8574750D02*
X14697750Y-8574750D01*
X14545250Y-11280500D02*
X14545250Y-11585500D01*
X14392750Y-11433000D02*
X14697750Y-11433000D01*
D16*
X8716173Y-3507673D02*
X8716173Y-3224827D01*
X8433327Y-3224827D01*
X8433327Y-3507673D01*
X8716173Y-3507673D01*
X8716173Y-5413173D02*
X8716173Y-5130327D01*
X8433327Y-5130327D01*
X8433327Y-5413173D01*
X8716173Y-5413173D01*
X8716173Y-7318673D02*
X8716173Y-7035827D01*
X8433327Y-7035827D01*
X8433327Y-7318673D01*
X8716173Y-7318673D01*
X8716173Y-9224173D02*
X8716173Y-8941327D01*
X8433327Y-8941327D01*
X8433327Y-9224173D01*
X8716173Y-9224173D01*
X8716173Y-11129673D02*
X8716173Y-10846827D01*
X8433327Y-10846827D01*
X8433327Y-11129673D01*
X8716173Y-11129673D01*
X8716173Y-13035173D02*
X8716173Y-12752327D01*
X8433327Y-12752327D01*
X8433327Y-13035173D01*
X8716173Y-13035173D01*
X10621673Y-3507673D02*
X10621673Y-3224827D01*
X10338827Y-3224827D01*
X10338827Y-3507673D01*
X10621673Y-3507673D01*
X10621673Y-5413173D02*
X10621673Y-5130327D01*
X10338827Y-5130327D01*
X10338827Y-5413173D01*
X10621673Y-5413173D01*
X10621673Y-7318673D02*
X10621673Y-7035827D01*
X10338827Y-7035827D01*
X10338827Y-7318673D01*
X10621673Y-7318673D01*
X10621673Y-9224173D02*
X10621673Y-8941327D01*
X10338827Y-8941327D01*
X10338827Y-9224173D01*
X10621673Y-9224173D01*
X10621673Y-11129673D02*
X10621673Y-10846827D01*
X10338827Y-10846827D01*
X10338827Y-11129673D01*
X10621673Y-11129673D01*
X11574423Y-13035173D02*
X11574423Y-12752327D01*
X11291577Y-12752327D01*
X11291577Y-13035173D01*
X11574423Y-13035173D01*
X12527173Y-3507673D02*
X12527173Y-3224827D01*
X12244327Y-3224827D01*
X12244327Y-3507673D01*
X12527173Y-3507673D01*
X12527173Y-5413173D02*
X12527173Y-5130327D01*
X12244327Y-5130327D01*
X12244327Y-5413173D01*
X12527173Y-5413173D01*
X12527173Y-7318673D02*
X12527173Y-7035827D01*
X12244327Y-7035827D01*
X12244327Y-7318673D01*
X12527173Y-7318673D01*
X12527173Y-9224173D02*
X12527173Y-8941327D01*
X12244327Y-8941327D01*
X12244327Y-9224173D01*
X12527173Y-9224173D01*
X12527173Y-11129673D02*
X12527173Y-10846827D01*
X12244327Y-10846827D01*
X12244327Y-11129673D01*
X12527173Y-11129673D01*
X14432673Y-3507673D02*
X14432673Y-3224827D01*
X14149827Y-3224827D01*
X14149827Y-3507673D01*
X14432673Y-3507673D01*
X14432673Y-5413173D02*
X14432673Y-5130327D01*
X14149827Y-5130327D01*
X14149827Y-5413173D01*
X14432673Y-5413173D01*
X14432673Y-7318673D02*
X14432673Y-7035827D01*
X14149827Y-7035827D01*
X14149827Y-7318673D01*
X14432673Y-7318673D01*
X14432673Y-9224173D02*
X14432673Y-8941327D01*
X14149827Y-8941327D01*
X14149827Y-9224173D01*
X14432673Y-9224173D01*
X14432673Y-12082423D02*
X14432673Y-11799577D01*
X14149827Y-11799577D01*
X14149827Y-12082423D01*
X14432673Y-12082423D01*
D11*
X5276027Y-14605234D02*
X5276027Y-14405234D01*
X5276027Y-14405234D02*
X5323646Y-14405234D01*
X5323646Y-14405234D02*
X5352217Y-14414758D01*
X5352217Y-14414758D02*
X5371265Y-14433805D01*
X5371265Y-14433805D02*
X5380789Y-14452853D01*
X5380789Y-14452853D02*
X5390313Y-14490948D01*
X5390313Y-14490948D02*
X5390313Y-14519519D01*
X5390313Y-14519519D02*
X5380789Y-14557615D01*
X5380789Y-14557615D02*
X5371265Y-14576662D01*
X5371265Y-14576662D02*
X5352217Y-14595710D01*
X5352217Y-14595710D02*
X5323646Y-14605234D01*
X5323646Y-14605234D02*
X5276027Y-14605234D01*
X5476027Y-14605234D02*
X5476027Y-14471900D01*
X5476027Y-14509996D02*
X5485551Y-14490948D01*
X5485551Y-14490948D02*
X5495074Y-14481424D01*
X5495074Y-14481424D02*
X5514122Y-14471900D01*
X5514122Y-14471900D02*
X5533170Y-14471900D01*
X5599836Y-14605234D02*
X5599836Y-14471900D01*
X5599836Y-14405234D02*
X5590313Y-14414758D01*
X5590313Y-14414758D02*
X5599836Y-14424281D01*
X5599836Y-14424281D02*
X5609360Y-14414758D01*
X5609360Y-14414758D02*
X5599836Y-14405234D01*
X5599836Y-14405234D02*
X5599836Y-14424281D01*
X5723646Y-14605234D02*
X5704598Y-14595710D01*
X5704598Y-14595710D02*
X5695074Y-14576662D01*
X5695074Y-14576662D02*
X5695074Y-14405234D01*
X5828408Y-14605234D02*
X5809360Y-14595710D01*
X5809360Y-14595710D02*
X5799836Y-14576662D01*
X5799836Y-14576662D02*
X5799836Y-14405234D01*
X6056979Y-14605234D02*
X6056979Y-14405234D01*
X6056979Y-14405234D02*
X6123646Y-14548091D01*
X6123646Y-14548091D02*
X6190312Y-14405234D01*
X6190312Y-14405234D02*
X6190312Y-14605234D01*
X6371265Y-14605234D02*
X6371265Y-14500472D01*
X6371265Y-14500472D02*
X6361741Y-14481424D01*
X6361741Y-14481424D02*
X6342693Y-14471900D01*
X6342693Y-14471900D02*
X6304598Y-14471900D01*
X6304598Y-14471900D02*
X6285551Y-14481424D01*
X6371265Y-14595710D02*
X6352217Y-14605234D01*
X6352217Y-14605234D02*
X6304598Y-14605234D01*
X6304598Y-14605234D02*
X6285551Y-14595710D01*
X6285551Y-14595710D02*
X6276027Y-14576662D01*
X6276027Y-14576662D02*
X6276027Y-14557615D01*
X6276027Y-14557615D02*
X6285551Y-14538567D01*
X6285551Y-14538567D02*
X6304598Y-14529043D01*
X6304598Y-14529043D02*
X6352217Y-14529043D01*
X6352217Y-14529043D02*
X6371265Y-14519519D01*
X6466503Y-14471900D02*
X6466503Y-14671900D01*
X6466503Y-14481424D02*
X6485551Y-14471900D01*
X6485551Y-14471900D02*
X6523646Y-14471900D01*
X6523646Y-14471900D02*
X6542693Y-14481424D01*
X6542693Y-14481424D02*
X6552217Y-14490948D01*
X6552217Y-14490948D02*
X6561741Y-14509996D01*
X6561741Y-14509996D02*
X6561741Y-14567138D01*
X6561741Y-14567138D02*
X6552217Y-14586186D01*
X6552217Y-14586186D02*
X6542693Y-14595710D01*
X6542693Y-14595710D02*
X6523646Y-14605234D01*
X6523646Y-14605234D02*
X6485551Y-14605234D01*
X6485551Y-14605234D02*
X6466503Y-14595710D01*
X6647455Y-14586186D02*
X6656979Y-14595710D01*
X6656979Y-14595710D02*
X6647455Y-14605234D01*
X6647455Y-14605234D02*
X6637932Y-14595710D01*
X6637932Y-14595710D02*
X6647455Y-14586186D01*
X6647455Y-14586186D02*
X6647455Y-14605234D01*
X6647455Y-14481424D02*
X6656979Y-14490948D01*
X6656979Y-14490948D02*
X6647455Y-14500472D01*
X6647455Y-14500472D02*
X6637932Y-14490948D01*
X6637932Y-14490948D02*
X6647455Y-14481424D01*
X6647455Y-14481424D02*
X6647455Y-14500472D01*
D12*
X4865250Y-14858750D02*
X5015250Y-15008750D01*
X5015250Y-14858750D02*
X4865250Y-15008750D01*
D11*
X5380789Y-15025234D02*
X5266503Y-15025234D01*
X5323646Y-15025234D02*
X5323646Y-14825234D01*
X5323646Y-14825234D02*
X5304598Y-14853805D01*
X5304598Y-14853805D02*
X5285551Y-14872853D01*
X5285551Y-14872853D02*
X5266503Y-14882377D01*
X5466503Y-15006186D02*
X5476027Y-15015710D01*
X5476027Y-15015710D02*
X5466503Y-15025234D01*
X5466503Y-15025234D02*
X5456979Y-15015710D01*
X5456979Y-15015710D02*
X5466503Y-15006186D01*
X5466503Y-15006186D02*
X5466503Y-15025234D01*
X5656979Y-14825234D02*
X5561741Y-14825234D01*
X5561741Y-14825234D02*
X5552217Y-14920472D01*
X5552217Y-14920472D02*
X5561741Y-14910948D01*
X5561741Y-14910948D02*
X5580789Y-14901424D01*
X5580789Y-14901424D02*
X5628408Y-14901424D01*
X5628408Y-14901424D02*
X5647455Y-14910948D01*
X5647455Y-14910948D02*
X5656979Y-14920472D01*
X5656979Y-14920472D02*
X5666503Y-14939519D01*
X5666503Y-14939519D02*
X5666503Y-14987138D01*
X5666503Y-14987138D02*
X5656979Y-15006186D01*
X5656979Y-15006186D02*
X5647455Y-15015710D01*
X5647455Y-15015710D02*
X5628408Y-15025234D01*
X5628408Y-15025234D02*
X5580789Y-15025234D01*
X5580789Y-15025234D02*
X5561741Y-15015710D01*
X5561741Y-15015710D02*
X5552217Y-15006186D01*
X5790312Y-14825234D02*
X5809360Y-14825234D01*
X5809360Y-14825234D02*
X5828408Y-14834758D01*
X5828408Y-14834758D02*
X5837932Y-14844281D01*
X5837932Y-14844281D02*
X5847455Y-14863329D01*
X5847455Y-14863329D02*
X5856979Y-14901424D01*
X5856979Y-14901424D02*
X5856979Y-14949043D01*
X5856979Y-14949043D02*
X5847455Y-14987138D01*
X5847455Y-14987138D02*
X5837932Y-15006186D01*
X5837932Y-15006186D02*
X5828408Y-15015710D01*
X5828408Y-15015710D02*
X5809360Y-15025234D01*
X5809360Y-15025234D02*
X5790312Y-15025234D01*
X5790312Y-15025234D02*
X5771265Y-15015710D01*
X5771265Y-15015710D02*
X5761741Y-15006186D01*
X5761741Y-15006186D02*
X5752217Y-14987138D01*
X5752217Y-14987138D02*
X5742693Y-14949043D01*
X5742693Y-14949043D02*
X5742693Y-14901424D01*
X5742693Y-14901424D02*
X5752217Y-14863329D01*
X5752217Y-14863329D02*
X5761741Y-14844281D01*
X5761741Y-14844281D02*
X5771265Y-14834758D01*
X5771265Y-14834758D02*
X5790312Y-14825234D01*
X5980789Y-14825234D02*
X5999836Y-14825234D01*
X5999836Y-14825234D02*
X6018884Y-14834758D01*
X6018884Y-14834758D02*
X6028408Y-14844281D01*
X6028408Y-14844281D02*
X6037932Y-14863329D01*
X6037932Y-14863329D02*
X6047455Y-14901424D01*
X6047455Y-14901424D02*
X6047455Y-14949043D01*
X6047455Y-14949043D02*
X6037932Y-14987138D01*
X6037932Y-14987138D02*
X6028408Y-15006186D01*
X6028408Y-15006186D02*
X6018884Y-15015710D01*
X6018884Y-15015710D02*
X5999836Y-15025234D01*
X5999836Y-15025234D02*
X5980789Y-15025234D01*
X5980789Y-15025234D02*
X5961741Y-15015710D01*
X5961741Y-15015710D02*
X5952217Y-15006186D01*
X5952217Y-15006186D02*
X5942693Y-14987138D01*
X5942693Y-14987138D02*
X5933170Y-14949043D01*
X5933170Y-14949043D02*
X5933170Y-14901424D01*
X5933170Y-14901424D02*
X5942693Y-14863329D01*
X5942693Y-14863329D02*
X5952217Y-14844281D01*
X5952217Y-14844281D02*
X5961741Y-14834758D01*
X5961741Y-14834758D02*
X5980789Y-14825234D01*
X6133170Y-15025234D02*
X6133170Y-14891900D01*
X6133170Y-14910948D02*
X6142693Y-14901424D01*
X6142693Y-14901424D02*
X6161741Y-14891900D01*
X6161741Y-14891900D02*
X6190313Y-14891900D01*
X6190313Y-14891900D02*
X6209360Y-14901424D01*
X6209360Y-14901424D02*
X6218884Y-14920472D01*
X6218884Y-14920472D02*
X6218884Y-15025234D01*
X6218884Y-14920472D02*
X6228408Y-14901424D01*
X6228408Y-14901424D02*
X6247455Y-14891900D01*
X6247455Y-14891900D02*
X6276027Y-14891900D01*
X6276027Y-14891900D02*
X6295074Y-14901424D01*
X6295074Y-14901424D02*
X6304598Y-14920472D01*
X6304598Y-14920472D02*
X6304598Y-15025234D01*
X6399836Y-15025234D02*
X6399836Y-14891900D01*
X6399836Y-14910948D02*
X6409360Y-14901424D01*
X6409360Y-14901424D02*
X6428408Y-14891900D01*
X6428408Y-14891900D02*
X6456979Y-14891900D01*
X6456979Y-14891900D02*
X6476027Y-14901424D01*
X6476027Y-14901424D02*
X6485551Y-14920472D01*
X6485551Y-14920472D02*
X6485551Y-15025234D01*
X6485551Y-14920472D02*
X6495074Y-14901424D01*
X6495074Y-14901424D02*
X6514122Y-14891900D01*
X6514122Y-14891900D02*
X6542693Y-14891900D01*
X6542693Y-14891900D02*
X6561741Y-14901424D01*
X6561741Y-14901424D02*
X6571265Y-14920472D01*
X6571265Y-14920472D02*
X6571265Y-15025234D01*
X6961741Y-14815710D02*
X6790313Y-15072853D01*
X7218884Y-14825234D02*
X7237932Y-14825234D01*
X7237932Y-14825234D02*
X7256979Y-14834758D01*
X7256979Y-14834758D02*
X7266503Y-14844281D01*
X7266503Y-14844281D02*
X7276027Y-14863329D01*
X7276027Y-14863329D02*
X7285551Y-14901424D01*
X7285551Y-14901424D02*
X7285551Y-14949043D01*
X7285551Y-14949043D02*
X7276027Y-14987138D01*
X7276027Y-14987138D02*
X7266503Y-15006186D01*
X7266503Y-15006186D02*
X7256979Y-15015710D01*
X7256979Y-15015710D02*
X7237932Y-15025234D01*
X7237932Y-15025234D02*
X7218884Y-15025234D01*
X7218884Y-15025234D02*
X7199836Y-15015710D01*
X7199836Y-15015710D02*
X7190313Y-15006186D01*
X7190313Y-15006186D02*
X7180789Y-14987138D01*
X7180789Y-14987138D02*
X7171265Y-14949043D01*
X7171265Y-14949043D02*
X7171265Y-14901424D01*
X7171265Y-14901424D02*
X7180789Y-14863329D01*
X7180789Y-14863329D02*
X7190313Y-14844281D01*
X7190313Y-14844281D02*
X7199836Y-14834758D01*
X7199836Y-14834758D02*
X7218884Y-14825234D01*
X7371265Y-15006186D02*
X7380789Y-15015710D01*
X7380789Y-15015710D02*
X7371265Y-15025234D01*
X7371265Y-15025234D02*
X7361741Y-15015710D01*
X7361741Y-15015710D02*
X7371265Y-15006186D01*
X7371265Y-15006186D02*
X7371265Y-15025234D01*
X7504598Y-14825234D02*
X7523646Y-14825234D01*
X7523646Y-14825234D02*
X7542694Y-14834758D01*
X7542694Y-14834758D02*
X7552217Y-14844281D01*
X7552217Y-14844281D02*
X7561741Y-14863329D01*
X7561741Y-14863329D02*
X7571265Y-14901424D01*
X7571265Y-14901424D02*
X7571265Y-14949043D01*
X7571265Y-14949043D02*
X7561741Y-14987138D01*
X7561741Y-14987138D02*
X7552217Y-15006186D01*
X7552217Y-15006186D02*
X7542694Y-15015710D01*
X7542694Y-15015710D02*
X7523646Y-15025234D01*
X7523646Y-15025234D02*
X7504598Y-15025234D01*
X7504598Y-15025234D02*
X7485551Y-15015710D01*
X7485551Y-15015710D02*
X7476027Y-15006186D01*
X7476027Y-15006186D02*
X7466503Y-14987138D01*
X7466503Y-14987138D02*
X7456979Y-14949043D01*
X7456979Y-14949043D02*
X7456979Y-14901424D01*
X7456979Y-14901424D02*
X7466503Y-14863329D01*
X7466503Y-14863329D02*
X7476027Y-14844281D01*
X7476027Y-14844281D02*
X7485551Y-14834758D01*
X7485551Y-14834758D02*
X7504598Y-14825234D01*
X7752217Y-14825234D02*
X7656979Y-14825234D01*
X7656979Y-14825234D02*
X7647456Y-14920472D01*
X7647456Y-14920472D02*
X7656979Y-14910948D01*
X7656979Y-14910948D02*
X7676027Y-14901424D01*
X7676027Y-14901424D02*
X7723646Y-14901424D01*
X7723646Y-14901424D02*
X7742694Y-14910948D01*
X7742694Y-14910948D02*
X7752217Y-14920472D01*
X7752217Y-14920472D02*
X7761741Y-14939519D01*
X7761741Y-14939519D02*
X7761741Y-14987138D01*
X7761741Y-14987138D02*
X7752217Y-15006186D01*
X7752217Y-15006186D02*
X7742694Y-15015710D01*
X7742694Y-15015710D02*
X7723646Y-15025234D01*
X7723646Y-15025234D02*
X7676027Y-15025234D01*
X7676027Y-15025234D02*
X7656979Y-15015710D01*
X7656979Y-15015710D02*
X7647456Y-15006186D01*
X7856979Y-15025234D02*
X7895075Y-15025234D01*
X7895075Y-15025234D02*
X7914122Y-15015710D01*
X7914122Y-15015710D02*
X7923646Y-15006186D01*
X7923646Y-15006186D02*
X7942694Y-14977615D01*
X7942694Y-14977615D02*
X7952217Y-14939519D01*
X7952217Y-14939519D02*
X7952217Y-14863329D01*
X7952217Y-14863329D02*
X7942694Y-14844281D01*
X7942694Y-14844281D02*
X7933170Y-14834758D01*
X7933170Y-14834758D02*
X7914122Y-14825234D01*
X7914122Y-14825234D02*
X7876027Y-14825234D01*
X7876027Y-14825234D02*
X7856979Y-14834758D01*
X7856979Y-14834758D02*
X7847456Y-14844281D01*
X7847456Y-14844281D02*
X7837932Y-14863329D01*
X7837932Y-14863329D02*
X7837932Y-14910948D01*
X7837932Y-14910948D02*
X7847456Y-14929996D01*
X7847456Y-14929996D02*
X7856979Y-14939519D01*
X7856979Y-14939519D02*
X7876027Y-14949043D01*
X7876027Y-14949043D02*
X7914122Y-14949043D01*
X7914122Y-14949043D02*
X7933170Y-14939519D01*
X7933170Y-14939519D02*
X7942694Y-14929996D01*
X7942694Y-14929996D02*
X7952217Y-14910948D01*
X8142694Y-15025234D02*
X8028408Y-15025234D01*
X8085551Y-15025234D02*
X8085551Y-14825234D01*
X8085551Y-14825234D02*
X8066503Y-14853805D01*
X8066503Y-14853805D02*
X8047456Y-14872853D01*
X8047456Y-14872853D02*
X8028408Y-14882377D01*
X8218884Y-14825234D02*
X8218884Y-14863329D01*
X8295075Y-14825234D02*
X8295075Y-14863329D01*
X8590313Y-15101424D02*
X8580789Y-15091900D01*
X8580789Y-15091900D02*
X8561741Y-15063329D01*
X8561741Y-15063329D02*
X8552218Y-15044281D01*
X8552218Y-15044281D02*
X8542694Y-15015710D01*
X8542694Y-15015710D02*
X8533170Y-14968091D01*
X8533170Y-14968091D02*
X8533170Y-14929996D01*
X8533170Y-14929996D02*
X8542694Y-14882377D01*
X8542694Y-14882377D02*
X8552218Y-14853805D01*
X8552218Y-14853805D02*
X8561741Y-14834758D01*
X8561741Y-14834758D02*
X8580789Y-14806186D01*
X8580789Y-14806186D02*
X8590313Y-14796662D01*
X8704599Y-14825234D02*
X8723646Y-14825234D01*
X8723646Y-14825234D02*
X8742694Y-14834758D01*
X8742694Y-14834758D02*
X8752218Y-14844281D01*
X8752218Y-14844281D02*
X8761741Y-14863329D01*
X8761741Y-14863329D02*
X8771265Y-14901424D01*
X8771265Y-14901424D02*
X8771265Y-14949043D01*
X8771265Y-14949043D02*
X8761741Y-14987138D01*
X8761741Y-14987138D02*
X8752218Y-15006186D01*
X8752218Y-15006186D02*
X8742694Y-15015710D01*
X8742694Y-15015710D02*
X8723646Y-15025234D01*
X8723646Y-15025234D02*
X8704599Y-15025234D01*
X8704599Y-15025234D02*
X8685551Y-15015710D01*
X8685551Y-15015710D02*
X8676027Y-15006186D01*
X8676027Y-15006186D02*
X8666503Y-14987138D01*
X8666503Y-14987138D02*
X8656980Y-14949043D01*
X8656980Y-14949043D02*
X8656980Y-14901424D01*
X8656980Y-14901424D02*
X8666503Y-14863329D01*
X8666503Y-14863329D02*
X8676027Y-14844281D01*
X8676027Y-14844281D02*
X8685551Y-14834758D01*
X8685551Y-14834758D02*
X8704599Y-14825234D01*
X9009361Y-15025234D02*
X9009361Y-14825234D01*
X9095075Y-15025234D02*
X9095075Y-14920472D01*
X9095075Y-14920472D02*
X9085551Y-14901424D01*
X9085551Y-14901424D02*
X9066503Y-14891900D01*
X9066503Y-14891900D02*
X9037932Y-14891900D01*
X9037932Y-14891900D02*
X9018884Y-14901424D01*
X9018884Y-14901424D02*
X9009361Y-14910948D01*
X9218884Y-15025234D02*
X9199837Y-15015710D01*
X9199837Y-15015710D02*
X9190313Y-15006186D01*
X9190313Y-15006186D02*
X9180789Y-14987138D01*
X9180789Y-14987138D02*
X9180789Y-14929996D01*
X9180789Y-14929996D02*
X9190313Y-14910948D01*
X9190313Y-14910948D02*
X9199837Y-14901424D01*
X9199837Y-14901424D02*
X9218884Y-14891900D01*
X9218884Y-14891900D02*
X9247456Y-14891900D01*
X9247456Y-14891900D02*
X9266503Y-14901424D01*
X9266503Y-14901424D02*
X9276027Y-14910948D01*
X9276027Y-14910948D02*
X9285551Y-14929996D01*
X9285551Y-14929996D02*
X9285551Y-14987138D01*
X9285551Y-14987138D02*
X9276027Y-15006186D01*
X9276027Y-15006186D02*
X9266503Y-15015710D01*
X9266503Y-15015710D02*
X9247456Y-15025234D01*
X9247456Y-15025234D02*
X9218884Y-15025234D01*
X9399837Y-15025234D02*
X9380789Y-15015710D01*
X9380789Y-15015710D02*
X9371265Y-14996662D01*
X9371265Y-14996662D02*
X9371265Y-14825234D01*
X9552218Y-15015710D02*
X9533170Y-15025234D01*
X9533170Y-15025234D02*
X9495075Y-15025234D01*
X9495075Y-15025234D02*
X9476027Y-15015710D01*
X9476027Y-15015710D02*
X9466503Y-14996662D01*
X9466503Y-14996662D02*
X9466503Y-14920472D01*
X9466503Y-14920472D02*
X9476027Y-14901424D01*
X9476027Y-14901424D02*
X9495075Y-14891900D01*
X9495075Y-14891900D02*
X9533170Y-14891900D01*
X9533170Y-14891900D02*
X9552218Y-14901424D01*
X9552218Y-14901424D02*
X9561742Y-14920472D01*
X9561742Y-14920472D02*
X9561742Y-14939519D01*
X9561742Y-14939519D02*
X9466503Y-14958567D01*
X9637932Y-15015710D02*
X9656980Y-15025234D01*
X9656980Y-15025234D02*
X9695075Y-15025234D01*
X9695075Y-15025234D02*
X9714123Y-15015710D01*
X9714123Y-15015710D02*
X9723646Y-14996662D01*
X9723646Y-14996662D02*
X9723646Y-14987138D01*
X9723646Y-14987138D02*
X9714123Y-14968091D01*
X9714123Y-14968091D02*
X9695075Y-14958567D01*
X9695075Y-14958567D02*
X9666503Y-14958567D01*
X9666503Y-14958567D02*
X9647456Y-14949043D01*
X9647456Y-14949043D02*
X9637932Y-14929996D01*
X9637932Y-14929996D02*
X9637932Y-14920472D01*
X9637932Y-14920472D02*
X9647456Y-14901424D01*
X9647456Y-14901424D02*
X9666503Y-14891900D01*
X9666503Y-14891900D02*
X9695075Y-14891900D01*
X9695075Y-14891900D02*
X9714123Y-14901424D01*
X9961742Y-14949043D02*
X10114123Y-14949043D01*
X10037932Y-15025234D02*
X10037932Y-14872853D01*
X10447456Y-14891900D02*
X10447456Y-15025234D01*
X10399837Y-14815710D02*
X10352218Y-14958567D01*
X10352218Y-14958567D02*
X10476027Y-14958567D01*
X10695075Y-15015710D02*
X10714123Y-15025234D01*
X10714123Y-15025234D02*
X10752218Y-15025234D01*
X10752218Y-15025234D02*
X10771266Y-15015710D01*
X10771266Y-15015710D02*
X10780789Y-14996662D01*
X10780789Y-14996662D02*
X10780789Y-14987138D01*
X10780789Y-14987138D02*
X10771266Y-14968091D01*
X10771266Y-14968091D02*
X10752218Y-14958567D01*
X10752218Y-14958567D02*
X10723646Y-14958567D01*
X10723646Y-14958567D02*
X10704599Y-14949043D01*
X10704599Y-14949043D02*
X10695075Y-14929996D01*
X10695075Y-14929996D02*
X10695075Y-14920472D01*
X10695075Y-14920472D02*
X10704599Y-14901424D01*
X10704599Y-14901424D02*
X10723646Y-14891900D01*
X10723646Y-14891900D02*
X10752218Y-14891900D01*
X10752218Y-14891900D02*
X10771266Y-14901424D01*
X10895075Y-15025234D02*
X10876027Y-15015710D01*
X10876027Y-15015710D02*
X10866504Y-14996662D01*
X10866504Y-14996662D02*
X10866504Y-14825234D01*
X10999837Y-15025234D02*
X10980789Y-15015710D01*
X10980789Y-15015710D02*
X10971266Y-15006186D01*
X10971266Y-15006186D02*
X10961742Y-14987138D01*
X10961742Y-14987138D02*
X10961742Y-14929996D01*
X10961742Y-14929996D02*
X10971266Y-14910948D01*
X10971266Y-14910948D02*
X10980789Y-14901424D01*
X10980789Y-14901424D02*
X10999837Y-14891900D01*
X10999837Y-14891900D02*
X11028408Y-14891900D01*
X11028408Y-14891900D02*
X11047456Y-14901424D01*
X11047456Y-14901424D02*
X11056980Y-14910948D01*
X11056980Y-14910948D02*
X11066504Y-14929996D01*
X11066504Y-14929996D02*
X11066504Y-14987138D01*
X11066504Y-14987138D02*
X11056980Y-15006186D01*
X11056980Y-15006186D02*
X11047456Y-15015710D01*
X11047456Y-15015710D02*
X11028408Y-15025234D01*
X11028408Y-15025234D02*
X10999837Y-15025234D01*
X11123647Y-14891900D02*
X11199837Y-14891900D01*
X11152218Y-14825234D02*
X11152218Y-14996662D01*
X11152218Y-14996662D02*
X11161742Y-15015710D01*
X11161742Y-15015710D02*
X11180789Y-15025234D01*
X11180789Y-15025234D02*
X11199837Y-15025234D01*
X11256980Y-15015710D02*
X11276027Y-15025234D01*
X11276027Y-15025234D02*
X11314123Y-15025234D01*
X11314123Y-15025234D02*
X11333170Y-15015710D01*
X11333170Y-15015710D02*
X11342694Y-14996662D01*
X11342694Y-14996662D02*
X11342694Y-14987138D01*
X11342694Y-14987138D02*
X11333170Y-14968091D01*
X11333170Y-14968091D02*
X11314123Y-14958567D01*
X11314123Y-14958567D02*
X11285551Y-14958567D01*
X11285551Y-14958567D02*
X11266504Y-14949043D01*
X11266504Y-14949043D02*
X11256980Y-14929996D01*
X11256980Y-14929996D02*
X11256980Y-14920472D01*
X11256980Y-14920472D02*
X11266504Y-14901424D01*
X11266504Y-14901424D02*
X11285551Y-14891900D01*
X11285551Y-14891900D02*
X11314123Y-14891900D01*
X11314123Y-14891900D02*
X11333170Y-14901424D01*
X11409361Y-15101424D02*
X11418885Y-15091900D01*
X11418885Y-15091900D02*
X11437932Y-15063329D01*
X11437932Y-15063329D02*
X11447456Y-15044281D01*
X11447456Y-15044281D02*
X11456980Y-15015710D01*
X11456980Y-15015710D02*
X11466504Y-14968091D01*
X11466504Y-14968091D02*
X11466504Y-14929996D01*
X11466504Y-14929996D02*
X11456980Y-14882377D01*
X11456980Y-14882377D02*
X11447456Y-14853805D01*
X11447456Y-14853805D02*
X11437932Y-14834758D01*
X11437932Y-14834758D02*
X11418885Y-14806186D01*
X11418885Y-14806186D02*
X11409361Y-14796662D01*
X11771266Y-15101424D02*
X11761742Y-15091900D01*
X11761742Y-15091900D02*
X11742694Y-15063329D01*
X11742694Y-15063329D02*
X11733170Y-15044281D01*
X11733170Y-15044281D02*
X11723646Y-15015710D01*
X11723646Y-15015710D02*
X11714123Y-14968091D01*
X11714123Y-14968091D02*
X11714123Y-14929996D01*
X11714123Y-14929996D02*
X11723646Y-14882377D01*
X11723646Y-14882377D02*
X11733170Y-14853805D01*
X11733170Y-14853805D02*
X11742694Y-14834758D01*
X11742694Y-14834758D02*
X11761742Y-14806186D01*
X11761742Y-14806186D02*
X11771266Y-14796662D01*
X11847456Y-14891900D02*
X11847456Y-15025234D01*
X11847456Y-14910948D02*
X11856980Y-14901424D01*
X11856980Y-14901424D02*
X11876027Y-14891900D01*
X11876027Y-14891900D02*
X11904599Y-14891900D01*
X11904599Y-14891900D02*
X11923646Y-14901424D01*
X11923646Y-14901424D02*
X11933170Y-14920472D01*
X11933170Y-14920472D02*
X11933170Y-15025234D01*
X12056980Y-15025234D02*
X12037932Y-15015710D01*
X12037932Y-15015710D02*
X12028408Y-15006186D01*
X12028408Y-15006186D02*
X12018885Y-14987138D01*
X12018885Y-14987138D02*
X12018885Y-14929996D01*
X12018885Y-14929996D02*
X12028408Y-14910948D01*
X12028408Y-14910948D02*
X12037932Y-14901424D01*
X12037932Y-14901424D02*
X12056980Y-14891900D01*
X12056980Y-14891900D02*
X12085551Y-14891900D01*
X12085551Y-14891900D02*
X12104599Y-14901424D01*
X12104599Y-14901424D02*
X12114123Y-14910948D01*
X12114123Y-14910948D02*
X12123646Y-14929996D01*
X12123646Y-14929996D02*
X12123646Y-14987138D01*
X12123646Y-14987138D02*
X12114123Y-15006186D01*
X12114123Y-15006186D02*
X12104599Y-15015710D01*
X12104599Y-15015710D02*
X12085551Y-15025234D01*
X12085551Y-15025234D02*
X12056980Y-15025234D01*
X12180789Y-14891900D02*
X12256980Y-14891900D01*
X12209361Y-14825234D02*
X12209361Y-14996662D01*
X12209361Y-14996662D02*
X12218885Y-15015710D01*
X12218885Y-15015710D02*
X12237932Y-15025234D01*
X12237932Y-15025234D02*
X12256980Y-15025234D01*
X12476027Y-14891900D02*
X12476027Y-15091900D01*
X12476027Y-14901424D02*
X12495075Y-14891900D01*
X12495075Y-14891900D02*
X12533170Y-14891900D01*
X12533170Y-14891900D02*
X12552218Y-14901424D01*
X12552218Y-14901424D02*
X12561742Y-14910948D01*
X12561742Y-14910948D02*
X12571266Y-14929996D01*
X12571266Y-14929996D02*
X12571266Y-14987138D01*
X12571266Y-14987138D02*
X12561742Y-15006186D01*
X12561742Y-15006186D02*
X12552218Y-15015710D01*
X12552218Y-15015710D02*
X12533170Y-15025234D01*
X12533170Y-15025234D02*
X12495075Y-15025234D01*
X12495075Y-15025234D02*
X12476027Y-15015710D01*
X12685551Y-15025234D02*
X12666504Y-15015710D01*
X12666504Y-15015710D02*
X12656980Y-14996662D01*
X12656980Y-14996662D02*
X12656980Y-14825234D01*
X12847456Y-15025234D02*
X12847456Y-14920472D01*
X12847456Y-14920472D02*
X12837932Y-14901424D01*
X12837932Y-14901424D02*
X12818885Y-14891900D01*
X12818885Y-14891900D02*
X12780789Y-14891900D01*
X12780789Y-14891900D02*
X12761742Y-14901424D01*
X12847456Y-15015710D02*
X12828408Y-15025234D01*
X12828408Y-15025234D02*
X12780789Y-15025234D01*
X12780789Y-15025234D02*
X12761742Y-15015710D01*
X12761742Y-15015710D02*
X12752218Y-14996662D01*
X12752218Y-14996662D02*
X12752218Y-14977615D01*
X12752218Y-14977615D02*
X12761742Y-14958567D01*
X12761742Y-14958567D02*
X12780789Y-14949043D01*
X12780789Y-14949043D02*
X12828408Y-14949043D01*
X12828408Y-14949043D02*
X12847456Y-14939519D01*
X12914123Y-14891900D02*
X12990313Y-14891900D01*
X12942694Y-14825234D02*
X12942694Y-14996662D01*
X12942694Y-14996662D02*
X12952218Y-15015710D01*
X12952218Y-15015710D02*
X12971266Y-15025234D01*
X12971266Y-15025234D02*
X12990313Y-15025234D01*
X13133170Y-15015710D02*
X13114123Y-15025234D01*
X13114123Y-15025234D02*
X13076027Y-15025234D01*
X13076027Y-15025234D02*
X13056980Y-15015710D01*
X13056980Y-15015710D02*
X13047456Y-14996662D01*
X13047456Y-14996662D02*
X13047456Y-14920472D01*
X13047456Y-14920472D02*
X13056980Y-14901424D01*
X13056980Y-14901424D02*
X13076027Y-14891900D01*
X13076027Y-14891900D02*
X13114123Y-14891900D01*
X13114123Y-14891900D02*
X13133170Y-14901424D01*
X13133170Y-14901424D02*
X13142694Y-14920472D01*
X13142694Y-14920472D02*
X13142694Y-14939519D01*
X13142694Y-14939519D02*
X13047456Y-14958567D01*
X13314123Y-15025234D02*
X13314123Y-14825234D01*
X13314123Y-15015710D02*
X13295075Y-15025234D01*
X13295075Y-15025234D02*
X13256980Y-15025234D01*
X13256980Y-15025234D02*
X13237932Y-15015710D01*
X13237932Y-15015710D02*
X13228408Y-15006186D01*
X13228408Y-15006186D02*
X13218885Y-14987138D01*
X13218885Y-14987138D02*
X13218885Y-14929996D01*
X13218885Y-14929996D02*
X13228408Y-14910948D01*
X13228408Y-14910948D02*
X13237932Y-14901424D01*
X13237932Y-14901424D02*
X13256980Y-14891900D01*
X13256980Y-14891900D02*
X13295075Y-14891900D01*
X13295075Y-14891900D02*
X13314123Y-14901424D01*
X13390313Y-15101424D02*
X13399837Y-15091900D01*
X13399837Y-15091900D02*
X13418885Y-15063329D01*
X13418885Y-15063329D02*
X13428408Y-15044281D01*
X13428408Y-15044281D02*
X13437932Y-15015710D01*
X13437932Y-15015710D02*
X13447456Y-14968091D01*
X13447456Y-14968091D02*
X13447456Y-14929996D01*
X13447456Y-14929996D02*
X13437932Y-14882377D01*
X13437932Y-14882377D02*
X13428408Y-14853805D01*
X13428408Y-14853805D02*
X13418885Y-14834758D01*
X13418885Y-14834758D02*
X13399837Y-14806186D01*
X13399837Y-14806186D02*
X13390313Y-14796662D01*
D14*
X5015250Y-15203750D02*
G75*
G02*
X4840250Y-15203750I-87500J0D01*
G01*
X4840250Y-15203750D02*
G75*
G02*
X5015250Y-15203750I87500J0D01*
G01*
D11*
X5380789Y-15295234D02*
X5266503Y-15295234D01*
X5323646Y-15295234D02*
X5323646Y-15095234D01*
X5323646Y-15095234D02*
X5304598Y-15123805D01*
X5304598Y-15123805D02*
X5285551Y-15142853D01*
X5285551Y-15142853D02*
X5266503Y-15152377D01*
X5466503Y-15276186D02*
X5476027Y-15285710D01*
X5476027Y-15285710D02*
X5466503Y-15295234D01*
X5466503Y-15295234D02*
X5456979Y-15285710D01*
X5456979Y-15285710D02*
X5466503Y-15276186D01*
X5466503Y-15276186D02*
X5466503Y-15295234D01*
X5542694Y-15095234D02*
X5676027Y-15095234D01*
X5676027Y-15095234D02*
X5590313Y-15295234D01*
X5847455Y-15095234D02*
X5752217Y-15095234D01*
X5752217Y-15095234D02*
X5742693Y-15190472D01*
X5742693Y-15190472D02*
X5752217Y-15180948D01*
X5752217Y-15180948D02*
X5771265Y-15171424D01*
X5771265Y-15171424D02*
X5818884Y-15171424D01*
X5818884Y-15171424D02*
X5837932Y-15180948D01*
X5837932Y-15180948D02*
X5847455Y-15190472D01*
X5847455Y-15190472D02*
X5856979Y-15209519D01*
X5856979Y-15209519D02*
X5856979Y-15257138D01*
X5856979Y-15257138D02*
X5847455Y-15276186D01*
X5847455Y-15276186D02*
X5837932Y-15285710D01*
X5837932Y-15285710D02*
X5818884Y-15295234D01*
X5818884Y-15295234D02*
X5771265Y-15295234D01*
X5771265Y-15295234D02*
X5752217Y-15285710D01*
X5752217Y-15285710D02*
X5742693Y-15276186D01*
X5980789Y-15095234D02*
X5999836Y-15095234D01*
X5999836Y-15095234D02*
X6018884Y-15104758D01*
X6018884Y-15104758D02*
X6028408Y-15114281D01*
X6028408Y-15114281D02*
X6037932Y-15133329D01*
X6037932Y-15133329D02*
X6047455Y-15171424D01*
X6047455Y-15171424D02*
X6047455Y-15219043D01*
X6047455Y-15219043D02*
X6037932Y-15257138D01*
X6037932Y-15257138D02*
X6028408Y-15276186D01*
X6028408Y-15276186D02*
X6018884Y-15285710D01*
X6018884Y-15285710D02*
X5999836Y-15295234D01*
X5999836Y-15295234D02*
X5980789Y-15295234D01*
X5980789Y-15295234D02*
X5961741Y-15285710D01*
X5961741Y-15285710D02*
X5952217Y-15276186D01*
X5952217Y-15276186D02*
X5942693Y-15257138D01*
X5942693Y-15257138D02*
X5933170Y-15219043D01*
X5933170Y-15219043D02*
X5933170Y-15171424D01*
X5933170Y-15171424D02*
X5942693Y-15133329D01*
X5942693Y-15133329D02*
X5952217Y-15114281D01*
X5952217Y-15114281D02*
X5961741Y-15104758D01*
X5961741Y-15104758D02*
X5980789Y-15095234D01*
X6133170Y-15295234D02*
X6133170Y-15161900D01*
X6133170Y-15180948D02*
X6142693Y-15171424D01*
X6142693Y-15171424D02*
X6161741Y-15161900D01*
X6161741Y-15161900D02*
X6190313Y-15161900D01*
X6190313Y-15161900D02*
X6209360Y-15171424D01*
X6209360Y-15171424D02*
X6218884Y-15190472D01*
X6218884Y-15190472D02*
X6218884Y-15295234D01*
X6218884Y-15190472D02*
X6228408Y-15171424D01*
X6228408Y-15171424D02*
X6247455Y-15161900D01*
X6247455Y-15161900D02*
X6276027Y-15161900D01*
X6276027Y-15161900D02*
X6295074Y-15171424D01*
X6295074Y-15171424D02*
X6304598Y-15190472D01*
X6304598Y-15190472D02*
X6304598Y-15295234D01*
X6399836Y-15295234D02*
X6399836Y-15161900D01*
X6399836Y-15180948D02*
X6409360Y-15171424D01*
X6409360Y-15171424D02*
X6428408Y-15161900D01*
X6428408Y-15161900D02*
X6456979Y-15161900D01*
X6456979Y-15161900D02*
X6476027Y-15171424D01*
X6476027Y-15171424D02*
X6485551Y-15190472D01*
X6485551Y-15190472D02*
X6485551Y-15295234D01*
X6485551Y-15190472D02*
X6495074Y-15171424D01*
X6495074Y-15171424D02*
X6514122Y-15161900D01*
X6514122Y-15161900D02*
X6542693Y-15161900D01*
X6542693Y-15161900D02*
X6561741Y-15171424D01*
X6561741Y-15171424D02*
X6571265Y-15190472D01*
X6571265Y-15190472D02*
X6571265Y-15295234D01*
X6961741Y-15085710D02*
X6790313Y-15342853D01*
X7218884Y-15095234D02*
X7237932Y-15095234D01*
X7237932Y-15095234D02*
X7256979Y-15104758D01*
X7256979Y-15104758D02*
X7266503Y-15114281D01*
X7266503Y-15114281D02*
X7276027Y-15133329D01*
X7276027Y-15133329D02*
X7285551Y-15171424D01*
X7285551Y-15171424D02*
X7285551Y-15219043D01*
X7285551Y-15219043D02*
X7276027Y-15257138D01*
X7276027Y-15257138D02*
X7266503Y-15276186D01*
X7266503Y-15276186D02*
X7256979Y-15285710D01*
X7256979Y-15285710D02*
X7237932Y-15295234D01*
X7237932Y-15295234D02*
X7218884Y-15295234D01*
X7218884Y-15295234D02*
X7199836Y-15285710D01*
X7199836Y-15285710D02*
X7190313Y-15276186D01*
X7190313Y-15276186D02*
X7180789Y-15257138D01*
X7180789Y-15257138D02*
X7171265Y-15219043D01*
X7171265Y-15219043D02*
X7171265Y-15171424D01*
X7171265Y-15171424D02*
X7180789Y-15133329D01*
X7180789Y-15133329D02*
X7190313Y-15114281D01*
X7190313Y-15114281D02*
X7199836Y-15104758D01*
X7199836Y-15104758D02*
X7218884Y-15095234D01*
X7371265Y-15276186D02*
X7380789Y-15285710D01*
X7380789Y-15285710D02*
X7371265Y-15295234D01*
X7371265Y-15295234D02*
X7361741Y-15285710D01*
X7361741Y-15285710D02*
X7371265Y-15276186D01*
X7371265Y-15276186D02*
X7371265Y-15295234D01*
X7504598Y-15095234D02*
X7523646Y-15095234D01*
X7523646Y-15095234D02*
X7542694Y-15104758D01*
X7542694Y-15104758D02*
X7552217Y-15114281D01*
X7552217Y-15114281D02*
X7561741Y-15133329D01*
X7561741Y-15133329D02*
X7571265Y-15171424D01*
X7571265Y-15171424D02*
X7571265Y-15219043D01*
X7571265Y-15219043D02*
X7561741Y-15257138D01*
X7561741Y-15257138D02*
X7552217Y-15276186D01*
X7552217Y-15276186D02*
X7542694Y-15285710D01*
X7542694Y-15285710D02*
X7523646Y-15295234D01*
X7523646Y-15295234D02*
X7504598Y-15295234D01*
X7504598Y-15295234D02*
X7485551Y-15285710D01*
X7485551Y-15285710D02*
X7476027Y-15276186D01*
X7476027Y-15276186D02*
X7466503Y-15257138D01*
X7466503Y-15257138D02*
X7456979Y-15219043D01*
X7456979Y-15219043D02*
X7456979Y-15171424D01*
X7456979Y-15171424D02*
X7466503Y-15133329D01*
X7466503Y-15133329D02*
X7476027Y-15114281D01*
X7476027Y-15114281D02*
X7485551Y-15104758D01*
X7485551Y-15104758D02*
X7504598Y-15095234D01*
X7742694Y-15095234D02*
X7704598Y-15095234D01*
X7704598Y-15095234D02*
X7685551Y-15104758D01*
X7685551Y-15104758D02*
X7676027Y-15114281D01*
X7676027Y-15114281D02*
X7656979Y-15142853D01*
X7656979Y-15142853D02*
X7647456Y-15180948D01*
X7647456Y-15180948D02*
X7647456Y-15257138D01*
X7647456Y-15257138D02*
X7656979Y-15276186D01*
X7656979Y-15276186D02*
X7666503Y-15285710D01*
X7666503Y-15285710D02*
X7685551Y-15295234D01*
X7685551Y-15295234D02*
X7723646Y-15295234D01*
X7723646Y-15295234D02*
X7742694Y-15285710D01*
X7742694Y-15285710D02*
X7752217Y-15276186D01*
X7752217Y-15276186D02*
X7761741Y-15257138D01*
X7761741Y-15257138D02*
X7761741Y-15209519D01*
X7761741Y-15209519D02*
X7752217Y-15190472D01*
X7752217Y-15190472D02*
X7742694Y-15180948D01*
X7742694Y-15180948D02*
X7723646Y-15171424D01*
X7723646Y-15171424D02*
X7685551Y-15171424D01*
X7685551Y-15171424D02*
X7666503Y-15180948D01*
X7666503Y-15180948D02*
X7656979Y-15190472D01*
X7656979Y-15190472D02*
X7647456Y-15209519D01*
X7876027Y-15180948D02*
X7856979Y-15171424D01*
X7856979Y-15171424D02*
X7847456Y-15161900D01*
X7847456Y-15161900D02*
X7837932Y-15142853D01*
X7837932Y-15142853D02*
X7837932Y-15133329D01*
X7837932Y-15133329D02*
X7847456Y-15114281D01*
X7847456Y-15114281D02*
X7856979Y-15104758D01*
X7856979Y-15104758D02*
X7876027Y-15095234D01*
X7876027Y-15095234D02*
X7914122Y-15095234D01*
X7914122Y-15095234D02*
X7933170Y-15104758D01*
X7933170Y-15104758D02*
X7942694Y-15114281D01*
X7942694Y-15114281D02*
X7952217Y-15133329D01*
X7952217Y-15133329D02*
X7952217Y-15142853D01*
X7952217Y-15142853D02*
X7942694Y-15161900D01*
X7942694Y-15161900D02*
X7933170Y-15171424D01*
X7933170Y-15171424D02*
X7914122Y-15180948D01*
X7914122Y-15180948D02*
X7876027Y-15180948D01*
X7876027Y-15180948D02*
X7856979Y-15190472D01*
X7856979Y-15190472D02*
X7847456Y-15199996D01*
X7847456Y-15199996D02*
X7837932Y-15219043D01*
X7837932Y-15219043D02*
X7837932Y-15257138D01*
X7837932Y-15257138D02*
X7847456Y-15276186D01*
X7847456Y-15276186D02*
X7856979Y-15285710D01*
X7856979Y-15285710D02*
X7876027Y-15295234D01*
X7876027Y-15295234D02*
X7914122Y-15295234D01*
X7914122Y-15295234D02*
X7933170Y-15285710D01*
X7933170Y-15285710D02*
X7942694Y-15276186D01*
X7942694Y-15276186D02*
X7952217Y-15257138D01*
X7952217Y-15257138D02*
X7952217Y-15219043D01*
X7952217Y-15219043D02*
X7942694Y-15199996D01*
X7942694Y-15199996D02*
X7933170Y-15190472D01*
X7933170Y-15190472D02*
X7914122Y-15180948D01*
X8047456Y-15295234D02*
X8085551Y-15295234D01*
X8085551Y-15295234D02*
X8104598Y-15285710D01*
X8104598Y-15285710D02*
X8114122Y-15276186D01*
X8114122Y-15276186D02*
X8133170Y-15247615D01*
X8133170Y-15247615D02*
X8142694Y-15209519D01*
X8142694Y-15209519D02*
X8142694Y-15133329D01*
X8142694Y-15133329D02*
X8133170Y-15114281D01*
X8133170Y-15114281D02*
X8123646Y-15104758D01*
X8123646Y-15104758D02*
X8104598Y-15095234D01*
X8104598Y-15095234D02*
X8066503Y-15095234D01*
X8066503Y-15095234D02*
X8047456Y-15104758D01*
X8047456Y-15104758D02*
X8037932Y-15114281D01*
X8037932Y-15114281D02*
X8028408Y-15133329D01*
X8028408Y-15133329D02*
X8028408Y-15180948D01*
X8028408Y-15180948D02*
X8037932Y-15199996D01*
X8037932Y-15199996D02*
X8047456Y-15209519D01*
X8047456Y-15209519D02*
X8066503Y-15219043D01*
X8066503Y-15219043D02*
X8104598Y-15219043D01*
X8104598Y-15219043D02*
X8123646Y-15209519D01*
X8123646Y-15209519D02*
X8133170Y-15199996D01*
X8133170Y-15199996D02*
X8142694Y-15180948D01*
X8218884Y-15095234D02*
X8218884Y-15133329D01*
X8295075Y-15095234D02*
X8295075Y-15133329D01*
X8590313Y-15371424D02*
X8580789Y-15361900D01*
X8580789Y-15361900D02*
X8561741Y-15333329D01*
X8561741Y-15333329D02*
X8552218Y-15314281D01*
X8552218Y-15314281D02*
X8542694Y-15285710D01*
X8542694Y-15285710D02*
X8533170Y-15238091D01*
X8533170Y-15238091D02*
X8533170Y-15199996D01*
X8533170Y-15199996D02*
X8542694Y-15152377D01*
X8542694Y-15152377D02*
X8552218Y-15123805D01*
X8552218Y-15123805D02*
X8561741Y-15104758D01*
X8561741Y-15104758D02*
X8580789Y-15076186D01*
X8580789Y-15076186D02*
X8590313Y-15066662D01*
X8752218Y-15161900D02*
X8752218Y-15295234D01*
X8704599Y-15085710D02*
X8656980Y-15228567D01*
X8656980Y-15228567D02*
X8780789Y-15228567D01*
X8942694Y-15161900D02*
X8942694Y-15295234D01*
X8895075Y-15085710D02*
X8847456Y-15228567D01*
X8847456Y-15228567D02*
X8971265Y-15228567D01*
X9199837Y-15295234D02*
X9199837Y-15095234D01*
X9285551Y-15295234D02*
X9285551Y-15190472D01*
X9285551Y-15190472D02*
X9276027Y-15171424D01*
X9276027Y-15171424D02*
X9256980Y-15161900D01*
X9256980Y-15161900D02*
X9228408Y-15161900D01*
X9228408Y-15161900D02*
X9209361Y-15171424D01*
X9209361Y-15171424D02*
X9199837Y-15180948D01*
X9409361Y-15295234D02*
X9390313Y-15285710D01*
X9390313Y-15285710D02*
X9380789Y-15276186D01*
X9380789Y-15276186D02*
X9371265Y-15257138D01*
X9371265Y-15257138D02*
X9371265Y-15199996D01*
X9371265Y-15199996D02*
X9380789Y-15180948D01*
X9380789Y-15180948D02*
X9390313Y-15171424D01*
X9390313Y-15171424D02*
X9409361Y-15161900D01*
X9409361Y-15161900D02*
X9437932Y-15161900D01*
X9437932Y-15161900D02*
X9456980Y-15171424D01*
X9456980Y-15171424D02*
X9466503Y-15180948D01*
X9466503Y-15180948D02*
X9476027Y-15199996D01*
X9476027Y-15199996D02*
X9476027Y-15257138D01*
X9476027Y-15257138D02*
X9466503Y-15276186D01*
X9466503Y-15276186D02*
X9456980Y-15285710D01*
X9456980Y-15285710D02*
X9437932Y-15295234D01*
X9437932Y-15295234D02*
X9409361Y-15295234D01*
X9590313Y-15295234D02*
X9571265Y-15285710D01*
X9571265Y-15285710D02*
X9561742Y-15266662D01*
X9561742Y-15266662D02*
X9561742Y-15095234D01*
X9742694Y-15285710D02*
X9723646Y-15295234D01*
X9723646Y-15295234D02*
X9685551Y-15295234D01*
X9685551Y-15295234D02*
X9666503Y-15285710D01*
X9666503Y-15285710D02*
X9656980Y-15266662D01*
X9656980Y-15266662D02*
X9656980Y-15190472D01*
X9656980Y-15190472D02*
X9666503Y-15171424D01*
X9666503Y-15171424D02*
X9685551Y-15161900D01*
X9685551Y-15161900D02*
X9723646Y-15161900D01*
X9723646Y-15161900D02*
X9742694Y-15171424D01*
X9742694Y-15171424D02*
X9752218Y-15190472D01*
X9752218Y-15190472D02*
X9752218Y-15209519D01*
X9752218Y-15209519D02*
X9656980Y-15228567D01*
X9828408Y-15285710D02*
X9847456Y-15295234D01*
X9847456Y-15295234D02*
X9885551Y-15295234D01*
X9885551Y-15295234D02*
X9904599Y-15285710D01*
X9904599Y-15285710D02*
X9914123Y-15266662D01*
X9914123Y-15266662D02*
X9914123Y-15257138D01*
X9914123Y-15257138D02*
X9904599Y-15238091D01*
X9904599Y-15238091D02*
X9885551Y-15228567D01*
X9885551Y-15228567D02*
X9856980Y-15228567D01*
X9856980Y-15228567D02*
X9837932Y-15219043D01*
X9837932Y-15219043D02*
X9828408Y-15199996D01*
X9828408Y-15199996D02*
X9828408Y-15190472D01*
X9828408Y-15190472D02*
X9837932Y-15171424D01*
X9837932Y-15171424D02*
X9856980Y-15161900D01*
X9856980Y-15161900D02*
X9885551Y-15161900D01*
X9885551Y-15161900D02*
X9904599Y-15171424D01*
X9980789Y-15371424D02*
X9990313Y-15361900D01*
X9990313Y-15361900D02*
X10009361Y-15333329D01*
X10009361Y-15333329D02*
X10018884Y-15314281D01*
X10018884Y-15314281D02*
X10028408Y-15285710D01*
X10028408Y-15285710D02*
X10037932Y-15238091D01*
X10037932Y-15238091D02*
X10037932Y-15199996D01*
X10037932Y-15199996D02*
X10028408Y-15152377D01*
X10028408Y-15152377D02*
X10018884Y-15123805D01*
X10018884Y-15123805D02*
X10009361Y-15104758D01*
X10009361Y-15104758D02*
X9990313Y-15076186D01*
X9990313Y-15076186D02*
X9980789Y-15066662D01*
X10342694Y-15371424D02*
X10333170Y-15361900D01*
X10333170Y-15361900D02*
X10314123Y-15333329D01*
X10314123Y-15333329D02*
X10304599Y-15314281D01*
X10304599Y-15314281D02*
X10295075Y-15285710D01*
X10295075Y-15285710D02*
X10285551Y-15238091D01*
X10285551Y-15238091D02*
X10285551Y-15199996D01*
X10285551Y-15199996D02*
X10295075Y-15152377D01*
X10295075Y-15152377D02*
X10304599Y-15123805D01*
X10304599Y-15123805D02*
X10314123Y-15104758D01*
X10314123Y-15104758D02*
X10333170Y-15076186D01*
X10333170Y-15076186D02*
X10342694Y-15066662D01*
X10418884Y-15161900D02*
X10418884Y-15295234D01*
X10418884Y-15180948D02*
X10428408Y-15171424D01*
X10428408Y-15171424D02*
X10447456Y-15161900D01*
X10447456Y-15161900D02*
X10476027Y-15161900D01*
X10476027Y-15161900D02*
X10495075Y-15171424D01*
X10495075Y-15171424D02*
X10504599Y-15190472D01*
X10504599Y-15190472D02*
X10504599Y-15295234D01*
X10628408Y-15295234D02*
X10609361Y-15285710D01*
X10609361Y-15285710D02*
X10599837Y-15276186D01*
X10599837Y-15276186D02*
X10590313Y-15257138D01*
X10590313Y-15257138D02*
X10590313Y-15199996D01*
X10590313Y-15199996D02*
X10599837Y-15180948D01*
X10599837Y-15180948D02*
X10609361Y-15171424D01*
X10609361Y-15171424D02*
X10628408Y-15161900D01*
X10628408Y-15161900D02*
X10656980Y-15161900D01*
X10656980Y-15161900D02*
X10676027Y-15171424D01*
X10676027Y-15171424D02*
X10685551Y-15180948D01*
X10685551Y-15180948D02*
X10695075Y-15199996D01*
X10695075Y-15199996D02*
X10695075Y-15257138D01*
X10695075Y-15257138D02*
X10685551Y-15276186D01*
X10685551Y-15276186D02*
X10676027Y-15285710D01*
X10676027Y-15285710D02*
X10656980Y-15295234D01*
X10656980Y-15295234D02*
X10628408Y-15295234D01*
X10752218Y-15161900D02*
X10828408Y-15161900D01*
X10780789Y-15095234D02*
X10780789Y-15266662D01*
X10780789Y-15266662D02*
X10790313Y-15285710D01*
X10790313Y-15285710D02*
X10809361Y-15295234D01*
X10809361Y-15295234D02*
X10828408Y-15295234D01*
X11047456Y-15161900D02*
X11047456Y-15361900D01*
X11047456Y-15171424D02*
X11066504Y-15161900D01*
X11066504Y-15161900D02*
X11104599Y-15161900D01*
X11104599Y-15161900D02*
X11123646Y-15171424D01*
X11123646Y-15171424D02*
X11133170Y-15180948D01*
X11133170Y-15180948D02*
X11142694Y-15199996D01*
X11142694Y-15199996D02*
X11142694Y-15257138D01*
X11142694Y-15257138D02*
X11133170Y-15276186D01*
X11133170Y-15276186D02*
X11123646Y-15285710D01*
X11123646Y-15285710D02*
X11104599Y-15295234D01*
X11104599Y-15295234D02*
X11066504Y-15295234D01*
X11066504Y-15295234D02*
X11047456Y-15285710D01*
X11256980Y-15295234D02*
X11237932Y-15285710D01*
X11237932Y-15285710D02*
X11228408Y-15266662D01*
X11228408Y-15266662D02*
X11228408Y-15095234D01*
X11418884Y-15295234D02*
X11418884Y-15190472D01*
X11418884Y-15190472D02*
X11409361Y-15171424D01*
X11409361Y-15171424D02*
X11390313Y-15161900D01*
X11390313Y-15161900D02*
X11352218Y-15161900D01*
X11352218Y-15161900D02*
X11333170Y-15171424D01*
X11418884Y-15285710D02*
X11399837Y-15295234D01*
X11399837Y-15295234D02*
X11352218Y-15295234D01*
X11352218Y-15295234D02*
X11333170Y-15285710D01*
X11333170Y-15285710D02*
X11323646Y-15266662D01*
X11323646Y-15266662D02*
X11323646Y-15247615D01*
X11323646Y-15247615D02*
X11333170Y-15228567D01*
X11333170Y-15228567D02*
X11352218Y-15219043D01*
X11352218Y-15219043D02*
X11399837Y-15219043D01*
X11399837Y-15219043D02*
X11418884Y-15209519D01*
X11485551Y-15161900D02*
X11561742Y-15161900D01*
X11514123Y-15095234D02*
X11514123Y-15266662D01*
X11514123Y-15266662D02*
X11523646Y-15285710D01*
X11523646Y-15285710D02*
X11542694Y-15295234D01*
X11542694Y-15295234D02*
X11561742Y-15295234D01*
X11704599Y-15285710D02*
X11685551Y-15295234D01*
X11685551Y-15295234D02*
X11647456Y-15295234D01*
X11647456Y-15295234D02*
X11628408Y-15285710D01*
X11628408Y-15285710D02*
X11618884Y-15266662D01*
X11618884Y-15266662D02*
X11618884Y-15190472D01*
X11618884Y-15190472D02*
X11628408Y-15171424D01*
X11628408Y-15171424D02*
X11647456Y-15161900D01*
X11647456Y-15161900D02*
X11685551Y-15161900D01*
X11685551Y-15161900D02*
X11704599Y-15171424D01*
X11704599Y-15171424D02*
X11714123Y-15190472D01*
X11714123Y-15190472D02*
X11714123Y-15209519D01*
X11714123Y-15209519D02*
X11618884Y-15228567D01*
X11885551Y-15295234D02*
X11885551Y-15095234D01*
X11885551Y-15285710D02*
X11866504Y-15295234D01*
X11866504Y-15295234D02*
X11828408Y-15295234D01*
X11828408Y-15295234D02*
X11809361Y-15285710D01*
X11809361Y-15285710D02*
X11799837Y-15276186D01*
X11799837Y-15276186D02*
X11790313Y-15257138D01*
X11790313Y-15257138D02*
X11790313Y-15199996D01*
X11790313Y-15199996D02*
X11799837Y-15180948D01*
X11799837Y-15180948D02*
X11809361Y-15171424D01*
X11809361Y-15171424D02*
X11828408Y-15161900D01*
X11828408Y-15161900D02*
X11866504Y-15161900D01*
X11866504Y-15161900D02*
X11885551Y-15171424D01*
X11961742Y-15371424D02*
X11971265Y-15361900D01*
X11971265Y-15361900D02*
X11990313Y-15333329D01*
X11990313Y-15333329D02*
X11999837Y-15314281D01*
X11999837Y-15314281D02*
X12009361Y-15285710D01*
X12009361Y-15285710D02*
X12018884Y-15238091D01*
X12018884Y-15238091D02*
X12018884Y-15199996D01*
X12018884Y-15199996D02*
X12009361Y-15152377D01*
X12009361Y-15152377D02*
X11999837Y-15123805D01*
X11999837Y-15123805D02*
X11990313Y-15104758D01*
X11990313Y-15104758D02*
X11971265Y-15076186D01*
X11971265Y-15076186D02*
X11961742Y-15066662D01*
X4915250Y-15398750D02*
X4915250Y-15598750D01*
X4815250Y-15498750D02*
X5015250Y-15498750D01*
X5256979Y-15390234D02*
X5380789Y-15390234D01*
X5380789Y-15390234D02*
X5314122Y-15466424D01*
X5314122Y-15466424D02*
X5342694Y-15466424D01*
X5342694Y-15466424D02*
X5361741Y-15475948D01*
X5361741Y-15475948D02*
X5371265Y-15485472D01*
X5371265Y-15485472D02*
X5380789Y-15504519D01*
X5380789Y-15504519D02*
X5380789Y-15552138D01*
X5380789Y-15552138D02*
X5371265Y-15571186D01*
X5371265Y-15571186D02*
X5361741Y-15580710D01*
X5361741Y-15580710D02*
X5342694Y-15590234D01*
X5342694Y-15590234D02*
X5285551Y-15590234D01*
X5285551Y-15590234D02*
X5266503Y-15580710D01*
X5266503Y-15580710D02*
X5256979Y-15571186D01*
X5466503Y-15571186D02*
X5476027Y-15580710D01*
X5476027Y-15580710D02*
X5466503Y-15590234D01*
X5466503Y-15590234D02*
X5456979Y-15580710D01*
X5456979Y-15580710D02*
X5466503Y-15571186D01*
X5466503Y-15571186D02*
X5466503Y-15590234D01*
X5599836Y-15390234D02*
X5618884Y-15390234D01*
X5618884Y-15390234D02*
X5637932Y-15399758D01*
X5637932Y-15399758D02*
X5647455Y-15409281D01*
X5647455Y-15409281D02*
X5656979Y-15428329D01*
X5656979Y-15428329D02*
X5666503Y-15466424D01*
X5666503Y-15466424D02*
X5666503Y-15514043D01*
X5666503Y-15514043D02*
X5656979Y-15552138D01*
X5656979Y-15552138D02*
X5647455Y-15571186D01*
X5647455Y-15571186D02*
X5637932Y-15580710D01*
X5637932Y-15580710D02*
X5618884Y-15590234D01*
X5618884Y-15590234D02*
X5599836Y-15590234D01*
X5599836Y-15590234D02*
X5580789Y-15580710D01*
X5580789Y-15580710D02*
X5571265Y-15571186D01*
X5571265Y-15571186D02*
X5561741Y-15552138D01*
X5561741Y-15552138D02*
X5552217Y-15514043D01*
X5552217Y-15514043D02*
X5552217Y-15466424D01*
X5552217Y-15466424D02*
X5561741Y-15428329D01*
X5561741Y-15428329D02*
X5571265Y-15409281D01*
X5571265Y-15409281D02*
X5580789Y-15399758D01*
X5580789Y-15399758D02*
X5599836Y-15390234D01*
X5847455Y-15390234D02*
X5752217Y-15390234D01*
X5752217Y-15390234D02*
X5742693Y-15485472D01*
X5742693Y-15485472D02*
X5752217Y-15475948D01*
X5752217Y-15475948D02*
X5771265Y-15466424D01*
X5771265Y-15466424D02*
X5818884Y-15466424D01*
X5818884Y-15466424D02*
X5837932Y-15475948D01*
X5837932Y-15475948D02*
X5847455Y-15485472D01*
X5847455Y-15485472D02*
X5856979Y-15504519D01*
X5856979Y-15504519D02*
X5856979Y-15552138D01*
X5856979Y-15552138D02*
X5847455Y-15571186D01*
X5847455Y-15571186D02*
X5837932Y-15580710D01*
X5837932Y-15580710D02*
X5818884Y-15590234D01*
X5818884Y-15590234D02*
X5771265Y-15590234D01*
X5771265Y-15590234D02*
X5752217Y-15580710D01*
X5752217Y-15580710D02*
X5742693Y-15571186D01*
X5980789Y-15390234D02*
X5999836Y-15390234D01*
X5999836Y-15390234D02*
X6018884Y-15399758D01*
X6018884Y-15399758D02*
X6028408Y-15409281D01*
X6028408Y-15409281D02*
X6037932Y-15428329D01*
X6037932Y-15428329D02*
X6047455Y-15466424D01*
X6047455Y-15466424D02*
X6047455Y-15514043D01*
X6047455Y-15514043D02*
X6037932Y-15552138D01*
X6037932Y-15552138D02*
X6028408Y-15571186D01*
X6028408Y-15571186D02*
X6018884Y-15580710D01*
X6018884Y-15580710D02*
X5999836Y-15590234D01*
X5999836Y-15590234D02*
X5980789Y-15590234D01*
X5980789Y-15590234D02*
X5961741Y-15580710D01*
X5961741Y-15580710D02*
X5952217Y-15571186D01*
X5952217Y-15571186D02*
X5942693Y-15552138D01*
X5942693Y-15552138D02*
X5933170Y-15514043D01*
X5933170Y-15514043D02*
X5933170Y-15466424D01*
X5933170Y-15466424D02*
X5942693Y-15428329D01*
X5942693Y-15428329D02*
X5952217Y-15409281D01*
X5952217Y-15409281D02*
X5961741Y-15399758D01*
X5961741Y-15399758D02*
X5980789Y-15390234D01*
X6133170Y-15590234D02*
X6133170Y-15456900D01*
X6133170Y-15475948D02*
X6142693Y-15466424D01*
X6142693Y-15466424D02*
X6161741Y-15456900D01*
X6161741Y-15456900D02*
X6190313Y-15456900D01*
X6190313Y-15456900D02*
X6209360Y-15466424D01*
X6209360Y-15466424D02*
X6218884Y-15485472D01*
X6218884Y-15485472D02*
X6218884Y-15590234D01*
X6218884Y-15485472D02*
X6228408Y-15466424D01*
X6228408Y-15466424D02*
X6247455Y-15456900D01*
X6247455Y-15456900D02*
X6276027Y-15456900D01*
X6276027Y-15456900D02*
X6295074Y-15466424D01*
X6295074Y-15466424D02*
X6304598Y-15485472D01*
X6304598Y-15485472D02*
X6304598Y-15590234D01*
X6399836Y-15590234D02*
X6399836Y-15456900D01*
X6399836Y-15475948D02*
X6409360Y-15466424D01*
X6409360Y-15466424D02*
X6428408Y-15456900D01*
X6428408Y-15456900D02*
X6456979Y-15456900D01*
X6456979Y-15456900D02*
X6476027Y-15466424D01*
X6476027Y-15466424D02*
X6485551Y-15485472D01*
X6485551Y-15485472D02*
X6485551Y-15590234D01*
X6485551Y-15485472D02*
X6495074Y-15466424D01*
X6495074Y-15466424D02*
X6514122Y-15456900D01*
X6514122Y-15456900D02*
X6542693Y-15456900D01*
X6542693Y-15456900D02*
X6561741Y-15466424D01*
X6561741Y-15466424D02*
X6571265Y-15485472D01*
X6571265Y-15485472D02*
X6571265Y-15590234D01*
X6961741Y-15380710D02*
X6790313Y-15637853D01*
X7218884Y-15390234D02*
X7237932Y-15390234D01*
X7237932Y-15390234D02*
X7256979Y-15399758D01*
X7256979Y-15399758D02*
X7266503Y-15409281D01*
X7266503Y-15409281D02*
X7276027Y-15428329D01*
X7276027Y-15428329D02*
X7285551Y-15466424D01*
X7285551Y-15466424D02*
X7285551Y-15514043D01*
X7285551Y-15514043D02*
X7276027Y-15552138D01*
X7276027Y-15552138D02*
X7266503Y-15571186D01*
X7266503Y-15571186D02*
X7256979Y-15580710D01*
X7256979Y-15580710D02*
X7237932Y-15590234D01*
X7237932Y-15590234D02*
X7218884Y-15590234D01*
X7218884Y-15590234D02*
X7199836Y-15580710D01*
X7199836Y-15580710D02*
X7190313Y-15571186D01*
X7190313Y-15571186D02*
X7180789Y-15552138D01*
X7180789Y-15552138D02*
X7171265Y-15514043D01*
X7171265Y-15514043D02*
X7171265Y-15466424D01*
X7171265Y-15466424D02*
X7180789Y-15428329D01*
X7180789Y-15428329D02*
X7190313Y-15409281D01*
X7190313Y-15409281D02*
X7199836Y-15399758D01*
X7199836Y-15399758D02*
X7218884Y-15390234D01*
X7371265Y-15571186D02*
X7380789Y-15580710D01*
X7380789Y-15580710D02*
X7371265Y-15590234D01*
X7371265Y-15590234D02*
X7361741Y-15580710D01*
X7361741Y-15580710D02*
X7371265Y-15571186D01*
X7371265Y-15571186D02*
X7371265Y-15590234D01*
X7571265Y-15590234D02*
X7456979Y-15590234D01*
X7514122Y-15590234D02*
X7514122Y-15390234D01*
X7514122Y-15390234D02*
X7495075Y-15418805D01*
X7495075Y-15418805D02*
X7476027Y-15437853D01*
X7476027Y-15437853D02*
X7456979Y-15447377D01*
X7647456Y-15409281D02*
X7656979Y-15399758D01*
X7656979Y-15399758D02*
X7676027Y-15390234D01*
X7676027Y-15390234D02*
X7723646Y-15390234D01*
X7723646Y-15390234D02*
X7742694Y-15399758D01*
X7742694Y-15399758D02*
X7752217Y-15409281D01*
X7752217Y-15409281D02*
X7761741Y-15428329D01*
X7761741Y-15428329D02*
X7761741Y-15447377D01*
X7761741Y-15447377D02*
X7752217Y-15475948D01*
X7752217Y-15475948D02*
X7637932Y-15590234D01*
X7637932Y-15590234D02*
X7761741Y-15590234D01*
X7885551Y-15390234D02*
X7904598Y-15390234D01*
X7904598Y-15390234D02*
X7923646Y-15399758D01*
X7923646Y-15399758D02*
X7933170Y-15409281D01*
X7933170Y-15409281D02*
X7942694Y-15428329D01*
X7942694Y-15428329D02*
X7952217Y-15466424D01*
X7952217Y-15466424D02*
X7952217Y-15514043D01*
X7952217Y-15514043D02*
X7942694Y-15552138D01*
X7942694Y-15552138D02*
X7933170Y-15571186D01*
X7933170Y-15571186D02*
X7923646Y-15580710D01*
X7923646Y-15580710D02*
X7904598Y-15590234D01*
X7904598Y-15590234D02*
X7885551Y-15590234D01*
X7885551Y-15590234D02*
X7866503Y-15580710D01*
X7866503Y-15580710D02*
X7856979Y-15571186D01*
X7856979Y-15571186D02*
X7847456Y-15552138D01*
X7847456Y-15552138D02*
X7837932Y-15514043D01*
X7837932Y-15514043D02*
X7837932Y-15466424D01*
X7837932Y-15466424D02*
X7847456Y-15428329D01*
X7847456Y-15428329D02*
X7856979Y-15409281D01*
X7856979Y-15409281D02*
X7866503Y-15399758D01*
X7866503Y-15399758D02*
X7885551Y-15390234D01*
X8142694Y-15590234D02*
X8028408Y-15590234D01*
X8085551Y-15590234D02*
X8085551Y-15390234D01*
X8085551Y-15390234D02*
X8066503Y-15418805D01*
X8066503Y-15418805D02*
X8047456Y-15437853D01*
X8047456Y-15437853D02*
X8028408Y-15447377D01*
X8218884Y-15390234D02*
X8218884Y-15428329D01*
X8295075Y-15390234D02*
X8295075Y-15428329D01*
X8590313Y-15666424D02*
X8580789Y-15656900D01*
X8580789Y-15656900D02*
X8561741Y-15628329D01*
X8561741Y-15628329D02*
X8552218Y-15609281D01*
X8552218Y-15609281D02*
X8542694Y-15580710D01*
X8542694Y-15580710D02*
X8533170Y-15533091D01*
X8533170Y-15533091D02*
X8533170Y-15494996D01*
X8533170Y-15494996D02*
X8542694Y-15447377D01*
X8542694Y-15447377D02*
X8552218Y-15418805D01*
X8552218Y-15418805D02*
X8561741Y-15399758D01*
X8561741Y-15399758D02*
X8580789Y-15371186D01*
X8580789Y-15371186D02*
X8590313Y-15361662D01*
X8752218Y-15456900D02*
X8752218Y-15590234D01*
X8704599Y-15380710D02*
X8656980Y-15523567D01*
X8656980Y-15523567D02*
X8780789Y-15523567D01*
X8942694Y-15456900D02*
X8942694Y-15590234D01*
X8895075Y-15380710D02*
X8847456Y-15523567D01*
X8847456Y-15523567D02*
X8971265Y-15523567D01*
X9199837Y-15590234D02*
X9199837Y-15390234D01*
X9285551Y-15590234D02*
X9285551Y-15485472D01*
X9285551Y-15485472D02*
X9276027Y-15466424D01*
X9276027Y-15466424D02*
X9256980Y-15456900D01*
X9256980Y-15456900D02*
X9228408Y-15456900D01*
X9228408Y-15456900D02*
X9209361Y-15466424D01*
X9209361Y-15466424D02*
X9199837Y-15475948D01*
X9409361Y-15590234D02*
X9390313Y-15580710D01*
X9390313Y-15580710D02*
X9380789Y-15571186D01*
X9380789Y-15571186D02*
X9371265Y-15552138D01*
X9371265Y-15552138D02*
X9371265Y-15494996D01*
X9371265Y-15494996D02*
X9380789Y-15475948D01*
X9380789Y-15475948D02*
X9390313Y-15466424D01*
X9390313Y-15466424D02*
X9409361Y-15456900D01*
X9409361Y-15456900D02*
X9437932Y-15456900D01*
X9437932Y-15456900D02*
X9456980Y-15466424D01*
X9456980Y-15466424D02*
X9466503Y-15475948D01*
X9466503Y-15475948D02*
X9476027Y-15494996D01*
X9476027Y-15494996D02*
X9476027Y-15552138D01*
X9476027Y-15552138D02*
X9466503Y-15571186D01*
X9466503Y-15571186D02*
X9456980Y-15580710D01*
X9456980Y-15580710D02*
X9437932Y-15590234D01*
X9437932Y-15590234D02*
X9409361Y-15590234D01*
X9590313Y-15590234D02*
X9571265Y-15580710D01*
X9571265Y-15580710D02*
X9561742Y-15561662D01*
X9561742Y-15561662D02*
X9561742Y-15390234D01*
X9742694Y-15580710D02*
X9723646Y-15590234D01*
X9723646Y-15590234D02*
X9685551Y-15590234D01*
X9685551Y-15590234D02*
X9666503Y-15580710D01*
X9666503Y-15580710D02*
X9656980Y-15561662D01*
X9656980Y-15561662D02*
X9656980Y-15485472D01*
X9656980Y-15485472D02*
X9666503Y-15466424D01*
X9666503Y-15466424D02*
X9685551Y-15456900D01*
X9685551Y-15456900D02*
X9723646Y-15456900D01*
X9723646Y-15456900D02*
X9742694Y-15466424D01*
X9742694Y-15466424D02*
X9752218Y-15485472D01*
X9752218Y-15485472D02*
X9752218Y-15504519D01*
X9752218Y-15504519D02*
X9656980Y-15523567D01*
X9828408Y-15580710D02*
X9847456Y-15590234D01*
X9847456Y-15590234D02*
X9885551Y-15590234D01*
X9885551Y-15590234D02*
X9904599Y-15580710D01*
X9904599Y-15580710D02*
X9914123Y-15561662D01*
X9914123Y-15561662D02*
X9914123Y-15552138D01*
X9914123Y-15552138D02*
X9904599Y-15533091D01*
X9904599Y-15533091D02*
X9885551Y-15523567D01*
X9885551Y-15523567D02*
X9856980Y-15523567D01*
X9856980Y-15523567D02*
X9837932Y-15514043D01*
X9837932Y-15514043D02*
X9828408Y-15494996D01*
X9828408Y-15494996D02*
X9828408Y-15485472D01*
X9828408Y-15485472D02*
X9837932Y-15466424D01*
X9837932Y-15466424D02*
X9856980Y-15456900D01*
X9856980Y-15456900D02*
X9885551Y-15456900D01*
X9885551Y-15456900D02*
X9904599Y-15466424D01*
X9980789Y-15666424D02*
X9990313Y-15656900D01*
X9990313Y-15656900D02*
X10009361Y-15628329D01*
X10009361Y-15628329D02*
X10018884Y-15609281D01*
X10018884Y-15609281D02*
X10028408Y-15580710D01*
X10028408Y-15580710D02*
X10037932Y-15533091D01*
X10037932Y-15533091D02*
X10037932Y-15494996D01*
X10037932Y-15494996D02*
X10028408Y-15447377D01*
X10028408Y-15447377D02*
X10018884Y-15418805D01*
X10018884Y-15418805D02*
X10009361Y-15399758D01*
X10009361Y-15399758D02*
X9990313Y-15371186D01*
X9990313Y-15371186D02*
X9980789Y-15361662D01*
X10342694Y-15666424D02*
X10333170Y-15656900D01*
X10333170Y-15656900D02*
X10314123Y-15628329D01*
X10314123Y-15628329D02*
X10304599Y-15609281D01*
X10304599Y-15609281D02*
X10295075Y-15580710D01*
X10295075Y-15580710D02*
X10285551Y-15533091D01*
X10285551Y-15533091D02*
X10285551Y-15494996D01*
X10285551Y-15494996D02*
X10295075Y-15447377D01*
X10295075Y-15447377D02*
X10304599Y-15418805D01*
X10304599Y-15418805D02*
X10314123Y-15399758D01*
X10314123Y-15399758D02*
X10333170Y-15371186D01*
X10333170Y-15371186D02*
X10342694Y-15361662D01*
X10418884Y-15456900D02*
X10418884Y-15590234D01*
X10418884Y-15475948D02*
X10428408Y-15466424D01*
X10428408Y-15466424D02*
X10447456Y-15456900D01*
X10447456Y-15456900D02*
X10476027Y-15456900D01*
X10476027Y-15456900D02*
X10495075Y-15466424D01*
X10495075Y-15466424D02*
X10504599Y-15485472D01*
X10504599Y-15485472D02*
X10504599Y-15590234D01*
X10628408Y-15590234D02*
X10609361Y-15580710D01*
X10609361Y-15580710D02*
X10599837Y-15571186D01*
X10599837Y-15571186D02*
X10590313Y-15552138D01*
X10590313Y-15552138D02*
X10590313Y-15494996D01*
X10590313Y-15494996D02*
X10599837Y-15475948D01*
X10599837Y-15475948D02*
X10609361Y-15466424D01*
X10609361Y-15466424D02*
X10628408Y-15456900D01*
X10628408Y-15456900D02*
X10656980Y-15456900D01*
X10656980Y-15456900D02*
X10676027Y-15466424D01*
X10676027Y-15466424D02*
X10685551Y-15475948D01*
X10685551Y-15475948D02*
X10695075Y-15494996D01*
X10695075Y-15494996D02*
X10695075Y-15552138D01*
X10695075Y-15552138D02*
X10685551Y-15571186D01*
X10685551Y-15571186D02*
X10676027Y-15580710D01*
X10676027Y-15580710D02*
X10656980Y-15590234D01*
X10656980Y-15590234D02*
X10628408Y-15590234D01*
X10752218Y-15456900D02*
X10828408Y-15456900D01*
X10780789Y-15390234D02*
X10780789Y-15561662D01*
X10780789Y-15561662D02*
X10790313Y-15580710D01*
X10790313Y-15580710D02*
X10809361Y-15590234D01*
X10809361Y-15590234D02*
X10828408Y-15590234D01*
X11047456Y-15456900D02*
X11047456Y-15656900D01*
X11047456Y-15466424D02*
X11066504Y-15456900D01*
X11066504Y-15456900D02*
X11104599Y-15456900D01*
X11104599Y-15456900D02*
X11123646Y-15466424D01*
X11123646Y-15466424D02*
X11133170Y-15475948D01*
X11133170Y-15475948D02*
X11142694Y-15494996D01*
X11142694Y-15494996D02*
X11142694Y-15552138D01*
X11142694Y-15552138D02*
X11133170Y-15571186D01*
X11133170Y-15571186D02*
X11123646Y-15580710D01*
X11123646Y-15580710D02*
X11104599Y-15590234D01*
X11104599Y-15590234D02*
X11066504Y-15590234D01*
X11066504Y-15590234D02*
X11047456Y-15580710D01*
X11256980Y-15590234D02*
X11237932Y-15580710D01*
X11237932Y-15580710D02*
X11228408Y-15561662D01*
X11228408Y-15561662D02*
X11228408Y-15390234D01*
X11418884Y-15590234D02*
X11418884Y-15485472D01*
X11418884Y-15485472D02*
X11409361Y-15466424D01*
X11409361Y-15466424D02*
X11390313Y-15456900D01*
X11390313Y-15456900D02*
X11352218Y-15456900D01*
X11352218Y-15456900D02*
X11333170Y-15466424D01*
X11418884Y-15580710D02*
X11399837Y-15590234D01*
X11399837Y-15590234D02*
X11352218Y-15590234D01*
X11352218Y-15590234D02*
X11333170Y-15580710D01*
X11333170Y-15580710D02*
X11323646Y-15561662D01*
X11323646Y-15561662D02*
X11323646Y-15542615D01*
X11323646Y-15542615D02*
X11333170Y-15523567D01*
X11333170Y-15523567D02*
X11352218Y-15514043D01*
X11352218Y-15514043D02*
X11399837Y-15514043D01*
X11399837Y-15514043D02*
X11418884Y-15504519D01*
X11485551Y-15456900D02*
X11561742Y-15456900D01*
X11514123Y-15390234D02*
X11514123Y-15561662D01*
X11514123Y-15561662D02*
X11523646Y-15580710D01*
X11523646Y-15580710D02*
X11542694Y-15590234D01*
X11542694Y-15590234D02*
X11561742Y-15590234D01*
X11704599Y-15580710D02*
X11685551Y-15590234D01*
X11685551Y-15590234D02*
X11647456Y-15590234D01*
X11647456Y-15590234D02*
X11628408Y-15580710D01*
X11628408Y-15580710D02*
X11618884Y-15561662D01*
X11618884Y-15561662D02*
X11618884Y-15485472D01*
X11618884Y-15485472D02*
X11628408Y-15466424D01*
X11628408Y-15466424D02*
X11647456Y-15456900D01*
X11647456Y-15456900D02*
X11685551Y-15456900D01*
X11685551Y-15456900D02*
X11704599Y-15466424D01*
X11704599Y-15466424D02*
X11714123Y-15485472D01*
X11714123Y-15485472D02*
X11714123Y-15504519D01*
X11714123Y-15504519D02*
X11618884Y-15523567D01*
X11885551Y-15590234D02*
X11885551Y-15390234D01*
X11885551Y-15580710D02*
X11866504Y-15590234D01*
X11866504Y-15590234D02*
X11828408Y-15590234D01*
X11828408Y-15590234D02*
X11809361Y-15580710D01*
X11809361Y-15580710D02*
X11799837Y-15571186D01*
X11799837Y-15571186D02*
X11790313Y-15552138D01*
X11790313Y-15552138D02*
X11790313Y-15494996D01*
X11790313Y-15494996D02*
X11799837Y-15475948D01*
X11799837Y-15475948D02*
X11809361Y-15466424D01*
X11809361Y-15466424D02*
X11828408Y-15456900D01*
X11828408Y-15456900D02*
X11866504Y-15456900D01*
X11866504Y-15456900D02*
X11885551Y-15466424D01*
X11961742Y-15666424D02*
X11971265Y-15656900D01*
X11971265Y-15656900D02*
X11990313Y-15628329D01*
X11990313Y-15628329D02*
X11999837Y-15609281D01*
X11999837Y-15609281D02*
X12009361Y-15580710D01*
X12009361Y-15580710D02*
X12018884Y-15533091D01*
X12018884Y-15533091D02*
X12018884Y-15494996D01*
X12018884Y-15494996D02*
X12009361Y-15447377D01*
X12009361Y-15447377D02*
X11999837Y-15418805D01*
X11999837Y-15418805D02*
X11990313Y-15399758D01*
X11990313Y-15399758D02*
X11971265Y-15371186D01*
X11971265Y-15371186D02*
X11961742Y-15361662D01*
X4985961Y-15889461D02*
X4985961Y-15748039D01*
X4844539Y-15748039D01*
X4844539Y-15889461D01*
X4985961Y-15889461D01*
X5361741Y-15776900D02*
X5361741Y-15910234D01*
X5314122Y-15700710D02*
X5266503Y-15843567D01*
X5266503Y-15843567D02*
X5390313Y-15843567D01*
X5466503Y-15891186D02*
X5476027Y-15900710D01*
X5476027Y-15900710D02*
X5466503Y-15910234D01*
X5466503Y-15910234D02*
X5456979Y-15900710D01*
X5456979Y-15900710D02*
X5466503Y-15891186D01*
X5466503Y-15891186D02*
X5466503Y-15910234D01*
X5599836Y-15710234D02*
X5618884Y-15710234D01*
X5618884Y-15710234D02*
X5637932Y-15719758D01*
X5637932Y-15719758D02*
X5647455Y-15729281D01*
X5647455Y-15729281D02*
X5656979Y-15748329D01*
X5656979Y-15748329D02*
X5666503Y-15786424D01*
X5666503Y-15786424D02*
X5666503Y-15834043D01*
X5666503Y-15834043D02*
X5656979Y-15872138D01*
X5656979Y-15872138D02*
X5647455Y-15891186D01*
X5647455Y-15891186D02*
X5637932Y-15900710D01*
X5637932Y-15900710D02*
X5618884Y-15910234D01*
X5618884Y-15910234D02*
X5599836Y-15910234D01*
X5599836Y-15910234D02*
X5580789Y-15900710D01*
X5580789Y-15900710D02*
X5571265Y-15891186D01*
X5571265Y-15891186D02*
X5561741Y-15872138D01*
X5561741Y-15872138D02*
X5552217Y-15834043D01*
X5552217Y-15834043D02*
X5552217Y-15786424D01*
X5552217Y-15786424D02*
X5561741Y-15748329D01*
X5561741Y-15748329D02*
X5571265Y-15729281D01*
X5571265Y-15729281D02*
X5580789Y-15719758D01*
X5580789Y-15719758D02*
X5599836Y-15710234D01*
X5790312Y-15710234D02*
X5809360Y-15710234D01*
X5809360Y-15710234D02*
X5828408Y-15719758D01*
X5828408Y-15719758D02*
X5837932Y-15729281D01*
X5837932Y-15729281D02*
X5847455Y-15748329D01*
X5847455Y-15748329D02*
X5856979Y-15786424D01*
X5856979Y-15786424D02*
X5856979Y-15834043D01*
X5856979Y-15834043D02*
X5847455Y-15872138D01*
X5847455Y-15872138D02*
X5837932Y-15891186D01*
X5837932Y-15891186D02*
X5828408Y-15900710D01*
X5828408Y-15900710D02*
X5809360Y-15910234D01*
X5809360Y-15910234D02*
X5790312Y-15910234D01*
X5790312Y-15910234D02*
X5771265Y-15900710D01*
X5771265Y-15900710D02*
X5761741Y-15891186D01*
X5761741Y-15891186D02*
X5752217Y-15872138D01*
X5752217Y-15872138D02*
X5742693Y-15834043D01*
X5742693Y-15834043D02*
X5742693Y-15786424D01*
X5742693Y-15786424D02*
X5752217Y-15748329D01*
X5752217Y-15748329D02*
X5761741Y-15729281D01*
X5761741Y-15729281D02*
X5771265Y-15719758D01*
X5771265Y-15719758D02*
X5790312Y-15710234D01*
X5980789Y-15710234D02*
X5999836Y-15710234D01*
X5999836Y-15710234D02*
X6018884Y-15719758D01*
X6018884Y-15719758D02*
X6028408Y-15729281D01*
X6028408Y-15729281D02*
X6037932Y-15748329D01*
X6037932Y-15748329D02*
X6047455Y-15786424D01*
X6047455Y-15786424D02*
X6047455Y-15834043D01*
X6047455Y-15834043D02*
X6037932Y-15872138D01*
X6037932Y-15872138D02*
X6028408Y-15891186D01*
X6028408Y-15891186D02*
X6018884Y-15900710D01*
X6018884Y-15900710D02*
X5999836Y-15910234D01*
X5999836Y-15910234D02*
X5980789Y-15910234D01*
X5980789Y-15910234D02*
X5961741Y-15900710D01*
X5961741Y-15900710D02*
X5952217Y-15891186D01*
X5952217Y-15891186D02*
X5942693Y-15872138D01*
X5942693Y-15872138D02*
X5933170Y-15834043D01*
X5933170Y-15834043D02*
X5933170Y-15786424D01*
X5933170Y-15786424D02*
X5942693Y-15748329D01*
X5942693Y-15748329D02*
X5952217Y-15729281D01*
X5952217Y-15729281D02*
X5961741Y-15719758D01*
X5961741Y-15719758D02*
X5980789Y-15710234D01*
X6133170Y-15910234D02*
X6133170Y-15776900D01*
X6133170Y-15795948D02*
X6142693Y-15786424D01*
X6142693Y-15786424D02*
X6161741Y-15776900D01*
X6161741Y-15776900D02*
X6190313Y-15776900D01*
X6190313Y-15776900D02*
X6209360Y-15786424D01*
X6209360Y-15786424D02*
X6218884Y-15805472D01*
X6218884Y-15805472D02*
X6218884Y-15910234D01*
X6218884Y-15805472D02*
X6228408Y-15786424D01*
X6228408Y-15786424D02*
X6247455Y-15776900D01*
X6247455Y-15776900D02*
X6276027Y-15776900D01*
X6276027Y-15776900D02*
X6295074Y-15786424D01*
X6295074Y-15786424D02*
X6304598Y-15805472D01*
X6304598Y-15805472D02*
X6304598Y-15910234D01*
X6399836Y-15910234D02*
X6399836Y-15776900D01*
X6399836Y-15795948D02*
X6409360Y-15786424D01*
X6409360Y-15786424D02*
X6428408Y-15776900D01*
X6428408Y-15776900D02*
X6456979Y-15776900D01*
X6456979Y-15776900D02*
X6476027Y-15786424D01*
X6476027Y-15786424D02*
X6485551Y-15805472D01*
X6485551Y-15805472D02*
X6485551Y-15910234D01*
X6485551Y-15805472D02*
X6495074Y-15786424D01*
X6495074Y-15786424D02*
X6514122Y-15776900D01*
X6514122Y-15776900D02*
X6542693Y-15776900D01*
X6542693Y-15776900D02*
X6561741Y-15786424D01*
X6561741Y-15786424D02*
X6571265Y-15805472D01*
X6571265Y-15805472D02*
X6571265Y-15910234D01*
X6961741Y-15700710D02*
X6790313Y-15957853D01*
X7218884Y-15710234D02*
X7237932Y-15710234D01*
X7237932Y-15710234D02*
X7256979Y-15719758D01*
X7256979Y-15719758D02*
X7266503Y-15729281D01*
X7266503Y-15729281D02*
X7276027Y-15748329D01*
X7276027Y-15748329D02*
X7285551Y-15786424D01*
X7285551Y-15786424D02*
X7285551Y-15834043D01*
X7285551Y-15834043D02*
X7276027Y-15872138D01*
X7276027Y-15872138D02*
X7266503Y-15891186D01*
X7266503Y-15891186D02*
X7256979Y-15900710D01*
X7256979Y-15900710D02*
X7237932Y-15910234D01*
X7237932Y-15910234D02*
X7218884Y-15910234D01*
X7218884Y-15910234D02*
X7199836Y-15900710D01*
X7199836Y-15900710D02*
X7190313Y-15891186D01*
X7190313Y-15891186D02*
X7180789Y-15872138D01*
X7180789Y-15872138D02*
X7171265Y-15834043D01*
X7171265Y-15834043D02*
X7171265Y-15786424D01*
X7171265Y-15786424D02*
X7180789Y-15748329D01*
X7180789Y-15748329D02*
X7190313Y-15729281D01*
X7190313Y-15729281D02*
X7199836Y-15719758D01*
X7199836Y-15719758D02*
X7218884Y-15710234D01*
X7371265Y-15891186D02*
X7380789Y-15900710D01*
X7380789Y-15900710D02*
X7371265Y-15910234D01*
X7371265Y-15910234D02*
X7361741Y-15900710D01*
X7361741Y-15900710D02*
X7371265Y-15891186D01*
X7371265Y-15891186D02*
X7371265Y-15910234D01*
X7571265Y-15910234D02*
X7456979Y-15910234D01*
X7514122Y-15910234D02*
X7514122Y-15710234D01*
X7514122Y-15710234D02*
X7495075Y-15738805D01*
X7495075Y-15738805D02*
X7476027Y-15757853D01*
X7476027Y-15757853D02*
X7456979Y-15767377D01*
X7752217Y-15710234D02*
X7656979Y-15710234D01*
X7656979Y-15710234D02*
X7647456Y-15805472D01*
X7647456Y-15805472D02*
X7656979Y-15795948D01*
X7656979Y-15795948D02*
X7676027Y-15786424D01*
X7676027Y-15786424D02*
X7723646Y-15786424D01*
X7723646Y-15786424D02*
X7742694Y-15795948D01*
X7742694Y-15795948D02*
X7752217Y-15805472D01*
X7752217Y-15805472D02*
X7761741Y-15824519D01*
X7761741Y-15824519D02*
X7761741Y-15872138D01*
X7761741Y-15872138D02*
X7752217Y-15891186D01*
X7752217Y-15891186D02*
X7742694Y-15900710D01*
X7742694Y-15900710D02*
X7723646Y-15910234D01*
X7723646Y-15910234D02*
X7676027Y-15910234D01*
X7676027Y-15910234D02*
X7656979Y-15900710D01*
X7656979Y-15900710D02*
X7647456Y-15891186D01*
X7828408Y-15710234D02*
X7961741Y-15710234D01*
X7961741Y-15710234D02*
X7876027Y-15910234D01*
X8133170Y-15710234D02*
X8037932Y-15710234D01*
X8037932Y-15710234D02*
X8028408Y-15805472D01*
X8028408Y-15805472D02*
X8037932Y-15795948D01*
X8037932Y-15795948D02*
X8056979Y-15786424D01*
X8056979Y-15786424D02*
X8104598Y-15786424D01*
X8104598Y-15786424D02*
X8123646Y-15795948D01*
X8123646Y-15795948D02*
X8133170Y-15805472D01*
X8133170Y-15805472D02*
X8142694Y-15824519D01*
X8142694Y-15824519D02*
X8142694Y-15872138D01*
X8142694Y-15872138D02*
X8133170Y-15891186D01*
X8133170Y-15891186D02*
X8123646Y-15900710D01*
X8123646Y-15900710D02*
X8104598Y-15910234D01*
X8104598Y-15910234D02*
X8056979Y-15910234D01*
X8056979Y-15910234D02*
X8037932Y-15900710D01*
X8037932Y-15900710D02*
X8028408Y-15891186D01*
X8218884Y-15710234D02*
X8218884Y-15748329D01*
X8295075Y-15710234D02*
X8295075Y-15748329D01*
X8590313Y-15986424D02*
X8580789Y-15976900D01*
X8580789Y-15976900D02*
X8561741Y-15948329D01*
X8561741Y-15948329D02*
X8552218Y-15929281D01*
X8552218Y-15929281D02*
X8542694Y-15900710D01*
X8542694Y-15900710D02*
X8533170Y-15853091D01*
X8533170Y-15853091D02*
X8533170Y-15814996D01*
X8533170Y-15814996D02*
X8542694Y-15767377D01*
X8542694Y-15767377D02*
X8552218Y-15738805D01*
X8552218Y-15738805D02*
X8561741Y-15719758D01*
X8561741Y-15719758D02*
X8580789Y-15691186D01*
X8580789Y-15691186D02*
X8590313Y-15681662D01*
X8656980Y-15729281D02*
X8666503Y-15719758D01*
X8666503Y-15719758D02*
X8685551Y-15710234D01*
X8685551Y-15710234D02*
X8733170Y-15710234D01*
X8733170Y-15710234D02*
X8752218Y-15719758D01*
X8752218Y-15719758D02*
X8761741Y-15729281D01*
X8761741Y-15729281D02*
X8771265Y-15748329D01*
X8771265Y-15748329D02*
X8771265Y-15767377D01*
X8771265Y-15767377D02*
X8761741Y-15795948D01*
X8761741Y-15795948D02*
X8647456Y-15910234D01*
X8647456Y-15910234D02*
X8771265Y-15910234D01*
X8847456Y-15729281D02*
X8856980Y-15719758D01*
X8856980Y-15719758D02*
X8876027Y-15710234D01*
X8876027Y-15710234D02*
X8923646Y-15710234D01*
X8923646Y-15710234D02*
X8942694Y-15719758D01*
X8942694Y-15719758D02*
X8952218Y-15729281D01*
X8952218Y-15729281D02*
X8961741Y-15748329D01*
X8961741Y-15748329D02*
X8961741Y-15767377D01*
X8961741Y-15767377D02*
X8952218Y-15795948D01*
X8952218Y-15795948D02*
X8837932Y-15910234D01*
X8837932Y-15910234D02*
X8961741Y-15910234D01*
X9199837Y-15910234D02*
X9199837Y-15710234D01*
X9285551Y-15910234D02*
X9285551Y-15805472D01*
X9285551Y-15805472D02*
X9276027Y-15786424D01*
X9276027Y-15786424D02*
X9256980Y-15776900D01*
X9256980Y-15776900D02*
X9228408Y-15776900D01*
X9228408Y-15776900D02*
X9209361Y-15786424D01*
X9209361Y-15786424D02*
X9199837Y-15795948D01*
X9409361Y-15910234D02*
X9390313Y-15900710D01*
X9390313Y-15900710D02*
X9380789Y-15891186D01*
X9380789Y-15891186D02*
X9371265Y-15872138D01*
X9371265Y-15872138D02*
X9371265Y-15814996D01*
X9371265Y-15814996D02*
X9380789Y-15795948D01*
X9380789Y-15795948D02*
X9390313Y-15786424D01*
X9390313Y-15786424D02*
X9409361Y-15776900D01*
X9409361Y-15776900D02*
X9437932Y-15776900D01*
X9437932Y-15776900D02*
X9456980Y-15786424D01*
X9456980Y-15786424D02*
X9466503Y-15795948D01*
X9466503Y-15795948D02*
X9476027Y-15814996D01*
X9476027Y-15814996D02*
X9476027Y-15872138D01*
X9476027Y-15872138D02*
X9466503Y-15891186D01*
X9466503Y-15891186D02*
X9456980Y-15900710D01*
X9456980Y-15900710D02*
X9437932Y-15910234D01*
X9437932Y-15910234D02*
X9409361Y-15910234D01*
X9590313Y-15910234D02*
X9571265Y-15900710D01*
X9571265Y-15900710D02*
X9561742Y-15881662D01*
X9561742Y-15881662D02*
X9561742Y-15710234D01*
X9742694Y-15900710D02*
X9723646Y-15910234D01*
X9723646Y-15910234D02*
X9685551Y-15910234D01*
X9685551Y-15910234D02*
X9666503Y-15900710D01*
X9666503Y-15900710D02*
X9656980Y-15881662D01*
X9656980Y-15881662D02*
X9656980Y-15805472D01*
X9656980Y-15805472D02*
X9666503Y-15786424D01*
X9666503Y-15786424D02*
X9685551Y-15776900D01*
X9685551Y-15776900D02*
X9723646Y-15776900D01*
X9723646Y-15776900D02*
X9742694Y-15786424D01*
X9742694Y-15786424D02*
X9752218Y-15805472D01*
X9752218Y-15805472D02*
X9752218Y-15824519D01*
X9752218Y-15824519D02*
X9656980Y-15843567D01*
X9828408Y-15900710D02*
X9847456Y-15910234D01*
X9847456Y-15910234D02*
X9885551Y-15910234D01*
X9885551Y-15910234D02*
X9904599Y-15900710D01*
X9904599Y-15900710D02*
X9914123Y-15881662D01*
X9914123Y-15881662D02*
X9914123Y-15872138D01*
X9914123Y-15872138D02*
X9904599Y-15853091D01*
X9904599Y-15853091D02*
X9885551Y-15843567D01*
X9885551Y-15843567D02*
X9856980Y-15843567D01*
X9856980Y-15843567D02*
X9837932Y-15834043D01*
X9837932Y-15834043D02*
X9828408Y-15814996D01*
X9828408Y-15814996D02*
X9828408Y-15805472D01*
X9828408Y-15805472D02*
X9837932Y-15786424D01*
X9837932Y-15786424D02*
X9856980Y-15776900D01*
X9856980Y-15776900D02*
X9885551Y-15776900D01*
X9885551Y-15776900D02*
X9904599Y-15786424D01*
X9980789Y-15986424D02*
X9990313Y-15976900D01*
X9990313Y-15976900D02*
X10009361Y-15948329D01*
X10009361Y-15948329D02*
X10018884Y-15929281D01*
X10018884Y-15929281D02*
X10028408Y-15900710D01*
X10028408Y-15900710D02*
X10037932Y-15853091D01*
X10037932Y-15853091D02*
X10037932Y-15814996D01*
X10037932Y-15814996D02*
X10028408Y-15767377D01*
X10028408Y-15767377D02*
X10018884Y-15738805D01*
X10018884Y-15738805D02*
X10009361Y-15719758D01*
X10009361Y-15719758D02*
X9990313Y-15691186D01*
X9990313Y-15691186D02*
X9980789Y-15681662D01*
X10342694Y-15986424D02*
X10333170Y-15976900D01*
X10333170Y-15976900D02*
X10314123Y-15948329D01*
X10314123Y-15948329D02*
X10304599Y-15929281D01*
X10304599Y-15929281D02*
X10295075Y-15900710D01*
X10295075Y-15900710D02*
X10285551Y-15853091D01*
X10285551Y-15853091D02*
X10285551Y-15814996D01*
X10285551Y-15814996D02*
X10295075Y-15767377D01*
X10295075Y-15767377D02*
X10304599Y-15738805D01*
X10304599Y-15738805D02*
X10314123Y-15719758D01*
X10314123Y-15719758D02*
X10333170Y-15691186D01*
X10333170Y-15691186D02*
X10342694Y-15681662D01*
X10418884Y-15776900D02*
X10418884Y-15910234D01*
X10418884Y-15795948D02*
X10428408Y-15786424D01*
X10428408Y-15786424D02*
X10447456Y-15776900D01*
X10447456Y-15776900D02*
X10476027Y-15776900D01*
X10476027Y-15776900D02*
X10495075Y-15786424D01*
X10495075Y-15786424D02*
X10504599Y-15805472D01*
X10504599Y-15805472D02*
X10504599Y-15910234D01*
X10628408Y-15910234D02*
X10609361Y-15900710D01*
X10609361Y-15900710D02*
X10599837Y-15891186D01*
X10599837Y-15891186D02*
X10590313Y-15872138D01*
X10590313Y-15872138D02*
X10590313Y-15814996D01*
X10590313Y-15814996D02*
X10599837Y-15795948D01*
X10599837Y-15795948D02*
X10609361Y-15786424D01*
X10609361Y-15786424D02*
X10628408Y-15776900D01*
X10628408Y-15776900D02*
X10656980Y-15776900D01*
X10656980Y-15776900D02*
X10676027Y-15786424D01*
X10676027Y-15786424D02*
X10685551Y-15795948D01*
X10685551Y-15795948D02*
X10695075Y-15814996D01*
X10695075Y-15814996D02*
X10695075Y-15872138D01*
X10695075Y-15872138D02*
X10685551Y-15891186D01*
X10685551Y-15891186D02*
X10676027Y-15900710D01*
X10676027Y-15900710D02*
X10656980Y-15910234D01*
X10656980Y-15910234D02*
X10628408Y-15910234D01*
X10752218Y-15776900D02*
X10828408Y-15776900D01*
X10780789Y-15710234D02*
X10780789Y-15881662D01*
X10780789Y-15881662D02*
X10790313Y-15900710D01*
X10790313Y-15900710D02*
X10809361Y-15910234D01*
X10809361Y-15910234D02*
X10828408Y-15910234D01*
X11047456Y-15776900D02*
X11047456Y-15976900D01*
X11047456Y-15786424D02*
X11066504Y-15776900D01*
X11066504Y-15776900D02*
X11104599Y-15776900D01*
X11104599Y-15776900D02*
X11123646Y-15786424D01*
X11123646Y-15786424D02*
X11133170Y-15795948D01*
X11133170Y-15795948D02*
X11142694Y-15814996D01*
X11142694Y-15814996D02*
X11142694Y-15872138D01*
X11142694Y-15872138D02*
X11133170Y-15891186D01*
X11133170Y-15891186D02*
X11123646Y-15900710D01*
X11123646Y-15900710D02*
X11104599Y-15910234D01*
X11104599Y-15910234D02*
X11066504Y-15910234D01*
X11066504Y-15910234D02*
X11047456Y-15900710D01*
X11256980Y-15910234D02*
X11237932Y-15900710D01*
X11237932Y-15900710D02*
X11228408Y-15881662D01*
X11228408Y-15881662D02*
X11228408Y-15710234D01*
X11418884Y-15910234D02*
X11418884Y-15805472D01*
X11418884Y-15805472D02*
X11409361Y-15786424D01*
X11409361Y-15786424D02*
X11390313Y-15776900D01*
X11390313Y-15776900D02*
X11352218Y-15776900D01*
X11352218Y-15776900D02*
X11333170Y-15786424D01*
X11418884Y-15900710D02*
X11399837Y-15910234D01*
X11399837Y-15910234D02*
X11352218Y-15910234D01*
X11352218Y-15910234D02*
X11333170Y-15900710D01*
X11333170Y-15900710D02*
X11323646Y-15881662D01*
X11323646Y-15881662D02*
X11323646Y-15862615D01*
X11323646Y-15862615D02*
X11333170Y-15843567D01*
X11333170Y-15843567D02*
X11352218Y-15834043D01*
X11352218Y-15834043D02*
X11399837Y-15834043D01*
X11399837Y-15834043D02*
X11418884Y-15824519D01*
X11485551Y-15776900D02*
X11561742Y-15776900D01*
X11514123Y-15710234D02*
X11514123Y-15881662D01*
X11514123Y-15881662D02*
X11523646Y-15900710D01*
X11523646Y-15900710D02*
X11542694Y-15910234D01*
X11542694Y-15910234D02*
X11561742Y-15910234D01*
X11704599Y-15900710D02*
X11685551Y-15910234D01*
X11685551Y-15910234D02*
X11647456Y-15910234D01*
X11647456Y-15910234D02*
X11628408Y-15900710D01*
X11628408Y-15900710D02*
X11618884Y-15881662D01*
X11618884Y-15881662D02*
X11618884Y-15805472D01*
X11618884Y-15805472D02*
X11628408Y-15786424D01*
X11628408Y-15786424D02*
X11647456Y-15776900D01*
X11647456Y-15776900D02*
X11685551Y-15776900D01*
X11685551Y-15776900D02*
X11704599Y-15786424D01*
X11704599Y-15786424D02*
X11714123Y-15805472D01*
X11714123Y-15805472D02*
X11714123Y-15824519D01*
X11714123Y-15824519D02*
X11618884Y-15843567D01*
X11885551Y-15910234D02*
X11885551Y-15710234D01*
X11885551Y-15900710D02*
X11866504Y-15910234D01*
X11866504Y-15910234D02*
X11828408Y-15910234D01*
X11828408Y-15910234D02*
X11809361Y-15900710D01*
X11809361Y-15900710D02*
X11799837Y-15891186D01*
X11799837Y-15891186D02*
X11790313Y-15872138D01*
X11790313Y-15872138D02*
X11790313Y-15814996D01*
X11790313Y-15814996D02*
X11799837Y-15795948D01*
X11799837Y-15795948D02*
X11809361Y-15786424D01*
X11809361Y-15786424D02*
X11828408Y-15776900D01*
X11828408Y-15776900D02*
X11866504Y-15776900D01*
X11866504Y-15776900D02*
X11885551Y-15786424D01*
X11961742Y-15986424D02*
X11971265Y-15976900D01*
X11971265Y-15976900D02*
X11990313Y-15948329D01*
X11990313Y-15948329D02*
X11999837Y-15929281D01*
X11999837Y-15929281D02*
X12009361Y-15900710D01*
X12009361Y-15900710D02*
X12018884Y-15853091D01*
X12018884Y-15853091D02*
X12018884Y-15814996D01*
X12018884Y-15814996D02*
X12009361Y-15767377D01*
X12009361Y-15767377D02*
X11999837Y-15738805D01*
X11999837Y-15738805D02*
X11990313Y-15719758D01*
X11990313Y-15719758D02*
X11971265Y-15691186D01*
X11971265Y-15691186D02*
X11961742Y-15681662D01*
M02*
