G04 #@! TF.GenerationSoftware,KiCad,Pcbnew,8.0.2*
G04 #@! TF.CreationDate,2024-06-05T18:53:51-04:00*
G04 #@! TF.ProjectId,CSP_macropad_arduino,4353505f-6d61-4637-926f-7061645f6172,rev?*
G04 #@! TF.SameCoordinates,Original*
G04 #@! TF.FileFunction,Soldermask,Top*
G04 #@! TF.FilePolarity,Negative*
%FSLAX46Y46*%
G04 Gerber Fmt 4.6, Leading zero omitted, Abs format (unit mm)*
G04 Created by KiCad (PCBNEW 8.0.2) date 2024-06-05 18:53:51*
%MOMM*%
%LPD*%
G01*
G04 APERTURE LIST*
%ADD10C,1.750000*%
%ADD11C,3.050000*%
%ADD12C,4.000000*%
%ADD13O,3.200000X2.000000*%
%ADD14R,2.000000X2.000000*%
%ADD15C,2.000000*%
%ADD16R,1.752600X1.752600*%
%ADD17C,1.752600*%
G04 APERTURE END LIST*
D10*
X109882500Y-71772500D03*
D11*
X107342500Y-66692500D03*
D12*
X104802500Y-71772500D03*
D11*
X100992500Y-69232500D03*
D10*
X99722500Y-71772500D03*
X99722500Y-33662500D03*
D11*
X100992500Y-31122500D03*
D12*
X104802500Y-33662500D03*
D11*
X107342500Y-28582500D03*
D10*
X109882500Y-33662500D03*
X137832500Y-119410000D03*
D11*
X139102500Y-116870000D03*
D12*
X142912500Y-119410000D03*
D11*
X145452500Y-114330000D03*
D10*
X147992500Y-119410000D03*
X99722500Y-90827500D03*
D11*
X100992500Y-88287500D03*
D12*
X104802500Y-90827500D03*
D11*
X107342500Y-85747500D03*
D10*
X109882500Y-90827500D03*
D13*
X63570082Y-105702500D03*
X63570082Y-116902500D03*
D14*
X56070082Y-108802500D03*
D15*
X56070082Y-113802500D03*
X56070082Y-111302500D03*
X70570082Y-113802500D03*
X70570082Y-108802500D03*
D10*
X118777500Y-109882500D03*
D11*
X120047500Y-107342500D03*
D12*
X123857500Y-109882500D03*
D11*
X126397500Y-104802500D03*
D10*
X128937500Y-109882500D03*
X118777500Y-52717500D03*
D11*
X120047500Y-50177500D03*
D12*
X123857500Y-52717500D03*
D11*
X126397500Y-47637500D03*
D10*
X128937500Y-52717500D03*
X137832500Y-71772500D03*
D11*
X139102500Y-69232500D03*
D12*
X142912500Y-71772500D03*
D11*
X145452500Y-66692500D03*
D10*
X147992500Y-71772500D03*
X118777500Y-71772500D03*
D11*
X120047500Y-69232500D03*
D12*
X123857500Y-71772500D03*
D11*
X126397500Y-66692500D03*
D10*
X128937500Y-71772500D03*
X80667500Y-33662500D03*
D11*
X81937500Y-31122500D03*
D12*
X85747500Y-33662500D03*
D11*
X88287500Y-28582500D03*
D10*
X90827500Y-33662500D03*
X137832500Y-52717500D03*
D11*
X139102500Y-50177500D03*
D12*
X142912500Y-52717500D03*
D11*
X145452500Y-47637500D03*
D10*
X147992500Y-52717500D03*
D13*
X63570082Y-64492500D03*
X63570082Y-75692500D03*
D14*
X56070082Y-67592500D03*
D15*
X56070082Y-72592500D03*
X56070082Y-70092500D03*
X70570082Y-72592500D03*
X70570082Y-67592500D03*
D16*
X54943250Y-23818750D03*
D17*
X54943250Y-26358750D03*
X54943250Y-28898750D03*
X54943250Y-31438750D03*
X54943250Y-33978750D03*
X54943250Y-36518750D03*
X54943250Y-39058750D03*
X54943250Y-41598750D03*
X54943250Y-44138750D03*
X54943250Y-46678750D03*
X54943250Y-49218750D03*
X54943250Y-51758750D03*
X70183250Y-51758750D03*
X70183250Y-49218750D03*
X70183250Y-46678750D03*
X70183250Y-44138750D03*
X70183250Y-41598750D03*
X70183250Y-39058750D03*
X70183250Y-36518750D03*
X70183250Y-33978750D03*
X70183250Y-31438750D03*
X70183250Y-28898750D03*
X70183250Y-26358750D03*
X70183250Y-23818750D03*
D10*
X137832500Y-90827500D03*
D11*
X139102500Y-88287500D03*
D12*
X142912500Y-90827500D03*
D11*
X145452500Y-85747500D03*
D10*
X147992500Y-90827500D03*
X80667500Y-52717500D03*
D11*
X81937500Y-50177500D03*
D12*
X85747500Y-52717500D03*
D11*
X88287500Y-47637500D03*
D10*
X90827500Y-52717500D03*
X80667500Y-71772500D03*
D11*
X81937500Y-69232500D03*
D12*
X85747500Y-71772500D03*
D11*
X88287500Y-66692500D03*
D10*
X90827500Y-71772500D03*
X80667500Y-128937500D03*
D11*
X81937500Y-126397500D03*
D12*
X85747500Y-128937500D03*
D11*
X88287500Y-123857500D03*
D10*
X90827500Y-128937500D03*
X109250000Y-128937500D03*
D11*
X110520000Y-126397500D03*
D12*
X114330000Y-128937500D03*
D11*
X116870000Y-123857500D03*
D10*
X119410000Y-128937500D03*
X99722500Y-109882500D03*
D11*
X100992500Y-107342500D03*
D12*
X104802500Y-109882500D03*
D11*
X107342500Y-104802500D03*
D10*
X109882500Y-109882500D03*
X137832500Y-33662500D03*
D11*
X139102500Y-31122500D03*
D12*
X142912500Y-33662500D03*
D11*
X145452500Y-28582500D03*
D10*
X147992500Y-33662500D03*
X80667500Y-90827500D03*
D11*
X81937500Y-88287500D03*
D12*
X85747500Y-90827500D03*
D11*
X88287500Y-85747500D03*
D10*
X90827500Y-90827500D03*
X118777500Y-90827500D03*
D11*
X120047500Y-88287500D03*
D12*
X123857500Y-90827500D03*
D11*
X126397500Y-85747500D03*
D10*
X128937500Y-90827500D03*
X99722500Y-52717500D03*
D11*
X100992500Y-50177500D03*
D12*
X104802500Y-52717500D03*
D11*
X107342500Y-47637500D03*
D10*
X109882500Y-52717500D03*
X118777500Y-33662500D03*
D11*
X120047500Y-31122500D03*
D12*
X123857500Y-33662500D03*
D11*
X126397500Y-28582500D03*
D10*
X128937500Y-33662500D03*
X80667500Y-109882500D03*
D11*
X81937500Y-107342500D03*
D12*
X85747500Y-109882500D03*
D11*
X88287500Y-104802500D03*
D10*
X90827500Y-109882500D03*
M02*
