M48
; DRILL file {KiCad 8.0.2} date 2024-06-05T18:53:58-0400
; FORMAT={-:-/ absolute / metric / decimal}
; #@! TF.CreationDate,2024-06-05T18:53:58-04:00
; #@! TF.GenerationSoftware,Kicad,Pcbnew,8.0.2
; #@! TF.FileFunction,Plated,1,2,PTH
FMAT,2
METRIC
; #@! TA.AperFunction,Plated,PTH,ViaDrill
T1C0.300
; #@! TA.AperFunction,Plated,PTH,ComponentDrill
T2C1.000
; #@! TA.AperFunction,Plated,PTH,ComponentDrill
T3C1.092
%
G90
G05
T1
X52.269Y-69.088
X52.269Y-72.764
X53.038Y-69.596
X53.285Y-72.764
X53.285Y-107.188
X53.285Y-109.728
X53.838Y-69.596
X56.841Y-57.404
X57.441Y-56.804
X58.041Y-56.186
X58.641Y-55.586
X73.967Y-57.404
X74.151Y-133.229
X74.475Y-56.786
X74.659Y-114.433
X75.075Y-56.257
X75.167Y-95.129
X75.637Y-55.372
X75.675Y-76.333
X78.723Y-33.153
X78.723Y-48.393
X78.723Y-67.189
X78.723Y-86.493
X78.723Y-105.289
X78.723Y-124.085
X97.734Y-33.22
X97.734Y-39.624
X97.734Y-48.26
X97.734Y-67.32
X97.734Y-86.36
X97.734Y-105.664
X107.133Y-124.46
X116.784Y-33.37
X116.784Y-41.656
X116.784Y-48.37
X116.784Y-67.245
X116.784Y-86.395
X116.784Y-105.72
X135.834Y-33.145
X135.834Y-44.196
X135.834Y-48.52
X135.834Y-67.52
X135.834Y-86.545
X135.834Y-115.195
T2
X56.07Y-67.593
X56.07Y-70.093
X56.07Y-72.593
X56.07Y-108.802
X56.07Y-111.302
X56.07Y-113.802
X70.57Y-67.593
X70.57Y-72.593
X70.57Y-108.802
X70.57Y-113.802
T3
X54.943Y-23.819
X54.943Y-26.359
X54.943Y-28.899
X54.943Y-31.439
X54.943Y-33.979
X54.943Y-36.519
X54.943Y-39.059
X54.943Y-41.599
X54.943Y-44.139
X54.943Y-46.679
X54.943Y-49.219
X54.943Y-51.759
X70.183Y-23.819
X70.183Y-26.359
X70.183Y-28.899
X70.183Y-31.439
X70.183Y-33.979
X70.183Y-36.519
X70.183Y-39.059
X70.183Y-41.599
X70.183Y-44.139
X70.183Y-46.679
X70.183Y-49.219
X70.183Y-51.759
M30
